<svg width="803" height="203" viewBox="0 0 803 203" fill="none" xmlns="http://www.w3.org/2000/svg">
<path fill-rule="evenodd" clip-rule="evenodd" d="M3.95476 1H142.828C175.466 1 201.923 27.4578 201.923 60.0951V142.828C201.923 175.466 175.466 201.923 142.828 201.923H3.95475C2.32289 201.923 1 200.6 1 198.969V3.95476C1 2.32289 2.32289 1 3.95476 1ZM53.8162 63.7885C47.9007 63.7885 43.1053 58.9931 43.1053 53.0776C43.1053 47.162 47.9007 42.3666 53.8162 42.3666H126.577C145.856 42.3666 160.926 58.389 160.926 77.4543C160.926 86.8304 157.281 95.4706 151.283 101.831C157.281 108.191 160.926 116.832 160.926 126.208C160.926 145.273 145.856 161.295 126.577 161.295H53.8162C47.9007 161.295 43.1053 156.5 43.1053 150.584C43.1053 144.669 47.9007 139.873 53.8162 139.873H126.577C133.408 139.873 139.504 134.068 139.504 126.208C139.504 118.347 133.408 112.542 126.577 112.542H53.8162C47.9007 112.542 43.1053 107.747 43.1053 101.831C43.1053 95.9155 47.9007 91.12 53.8162 91.12H126.577C133.408 91.12 139.504 85.3148 139.504 77.4543C139.504 69.5938 133.408 63.7885 126.577 63.7885H53.8162Z" fill="#1A1A1A"/>
<path d="M749.476 164.989C731.994 164.989 719.067 161.095 710.695 153.307C702.447 145.52 698.322 134.147 698.322 119.19C698.322 104.357 702.508 93.0459 710.88 85.2583C719.252 77.347 732.117 73.3914 749.476 73.3914C766.959 73.3914 779.886 77.347 788.258 85.2583C796.752 93.0459 801 104.357 801 119.19C801 134.147 796.814 145.52 788.442 153.307C780.07 161.095 767.082 164.989 749.476 164.989ZM749.476 139.586C755.14 139.586 759.202 137.979 761.665 134.765C764.25 131.551 765.543 126.36 765.543 119.19C765.543 112.144 764.25 107.014 761.665 103.8C759.202 100.463 755.14 98.7939 749.476 98.7939C743.936 98.7939 739.935 100.463 737.473 103.8C735.01 107.014 733.779 112.144 733.779 119.19C733.779 126.36 735.01 131.551 737.473 134.765C739.935 137.979 743.936 139.586 749.476 139.586Z" fill="#1A1A1A"/>
<path d="M628.559 164.989C620.265 164.989 613.022 163.627 606.832 160.902C600.766 158.054 595.999 153.472 592.533 147.157C589.19 140.841 587.519 132.42 587.519 121.894C587.519 111.121 589.438 102.143 593.276 94.9602C597.114 87.7778 602.251 82.391 608.689 78.7998C615.127 75.0847 622.122 73.2272 629.674 73.2272C633.759 73.2272 637.783 73.6607 641.744 74.5275C645.83 75.3943 649.358 76.6327 652.329 78.2425V37.9343H687.242V163.131H656.972L655.301 156.258C651.834 158.983 647.935 161.15 643.601 162.76C639.392 164.246 634.378 164.989 628.559 164.989ZM638.587 139.727C643.911 139.727 648.492 137.931 652.329 134.34V103.133C648.863 100.037 644.282 98.4895 638.587 98.4895C634.007 98.4895 630.293 100.533 627.445 104.619C624.598 108.706 623.174 114.526 623.174 122.08C623.174 129.51 624.412 134.34 626.888 136.569C629.364 138.674 633.264 139.727 638.587 139.727Z" fill="#1A1A1A"/>
<path d="M480.409 163.511V75.2534H512.974L513.899 81.9565C517.23 79.7221 521.609 77.736 527.036 75.9982C532.587 74.2603 538.508 73.3914 544.799 73.3914C555.777 73.3914 563.795 76.1223 568.852 81.5841C573.91 87.0459 576.439 95.4869 576.439 106.907V163.511H541.653V110.445C541.653 106.473 540.79 103.618 539.063 101.88C537.336 100.142 534.314 99.273 529.996 99.273C527.406 99.273 524.692 99.8936 521.855 101.135C519.141 102.376 516.921 103.866 515.194 105.604V163.511H480.409Z" fill="#1A1A1A"/>
<path d="M402.908 164.989C397.357 164.989 392.176 164 387.365 162.022C382.677 160.044 378.915 156.954 376.078 152.751C373.24 148.548 371.822 143.233 371.822 136.805C371.822 127.534 374.906 120.364 381.074 115.296C387.242 110.105 396.555 107.509 409.015 107.509H431.774V105.84C431.774 102.379 430.356 99.8446 427.519 98.2376C424.681 96.6307 419.685 95.8272 412.53 95.8272C402.415 95.8272 392.423 97.3724 382.554 100.463V79.5102C386.995 77.7797 392.546 76.3581 399.208 75.2456C405.869 74.0095 412.654 73.3914 419.562 73.3914C433.501 73.3914 444.542 76.2345 452.684 81.9207C460.826 87.6069 464.896 96.6307 464.896 108.992V163.135H434.55L432.885 156.089C429.801 158.808 425.792 160.971 420.857 162.578C416.046 164.185 410.063 164.989 402.908 164.989ZM414.751 144.593C418.698 144.593 422.029 143.913 424.743 142.553C427.58 141.193 429.924 139.524 431.774 137.547V126.607H414.936C407.288 126.607 403.463 129.635 403.463 135.692C403.463 141.626 407.226 144.593 414.751 144.593Z" fill="#1A1A1A"/>
<path d="M255.109 163.511V43.8438H320.823C332.951 43.8438 342.17 46.6931 348.482 52.3915C354.793 58.09 357.949 66.266 357.949 76.9197C357.949 83.1136 356.774 88.3166 354.422 92.5285C352.195 96.7404 349.224 100.085 345.512 102.563C350.586 104.545 354.608 107.456 357.578 111.296C360.672 115.013 362.219 120.587 362.219 128.02C362.219 139.293 358.754 148.026 351.823 154.22C344.893 160.414 335.055 163.511 322.308 163.511H255.109ZM288.708 91.5994H311.355C319.895 91.5994 324.164 87.7591 324.164 80.0786C324.164 76.2383 323.112 73.3272 321.008 71.3451C319.028 69.363 315.501 68.372 310.427 68.372H288.708V91.5994ZM288.708 139.169H312.841C317.543 139.169 321.008 138.178 323.236 136.196C325.464 134.214 326.577 130.931 326.577 126.348C326.577 122.507 325.464 119.596 323.236 117.614C321.008 115.632 317.296 114.641 312.098 114.641H288.708V139.169Z" fill="#1A1A1A"/>
</svg>
