<svg width="200" height="248" viewBox="0 0 200 248" fill="none" xmlns="http://www.w3.org/2000/svg">
<g clip-path="url(#clip0_4689_71784)">
<rect width="200" height="248" rx="12" fill="#00ABE1"/>
<rect width="200" height="160" fill="#00ABE1"/>
<path d="M138.012 44.0891C135.222 42.3159 131.739 42.3858 128.6 42.8752C122.238 44.4006 117.668 49.8665 115.348 55.7455C113.344 60.253 111.518 64.8281 109.689 69.4103L109.59 69.6581C108.713 71.8254 107.893 74.1071 106.234 75.8168C103.92 78.3909 99.8846 79.3315 96.7385 77.7998C92.1751 75.8994 89.8553 71.247 87.3702 67.2938C83.9826 62.1584 80.792 56.6035 75.6312 53.0253C70.3115 49.5233 62.7609 50.8453 58.3755 55.2879C53.2846 60.3597 51.3969 67.6243 50.1639 74.4885C49.2614 78.6959 49.6618 83.0178 49.5156 87.2825C50.5516 95.6021 52.5664 103.833 55.8014 111.587C56.7293 113.449 57.8035 115.591 59.8754 116.379C61.2864 116.748 62.78 116.57 64.2036 116.373C66.5362 115.324 67.1972 112.419 66.7332 110.106C65.4049 102.6 61.6741 95.5767 61.4898 87.8672C61.4071 85.6173 62.3923 82.7 64.9981 82.4585C67.4768 82.1916 69.0785 84.5177 70.267 86.3355C74.0105 92.5831 77.4235 99.0342 81.256 105.231C84.3322 110.099 89.6074 113.779 95.4673 114.059C100.056 114.224 104.925 113.512 108.757 110.811C111.954 108.631 114.109 105.225 115.443 101.646C118.106 93.9496 120.083 85.9732 123.655 78.6197C125.11 75.7977 126.89 72.9631 129.604 71.2026C131.205 70.084 133.538 69.8488 135.152 71.0691C137.065 72.3847 137.815 74.7999 137.834 77.0307C138.057 81.9183 137.79 86.8376 137.097 91.687C136.919 94.7568 136.246 98.316 138.381 100.896C139.703 102.587 142.144 102.759 144.05 102.117C147.273 100.623 148.531 96.9114 148.951 93.6255C150.826 80.7933 150.4 67.3637 145.932 55.0845C144.343 50.8262 142.042 46.4852 138.012 44.0891Z" fill="white"/>
<path d="M0 160H200V236C200 242.627 194.627 248 188 248H12C5.37258 248 0 242.627 0 236V160Z" fill="#00ABE1"/>
<path d="M19.192 195V182.946L17.05 183.324V181.875L20.914 181.266V195H19.192ZM28.7619 195.21C27.4039 195.21 26.2979 194.937 25.4439 194.391C24.6039 193.845 23.9879 193.061 23.5959 192.039C23.2039 191.017 23.0079 189.806 23.0079 188.406C23.0079 186.894 23.1899 185.606 23.5539 184.542C23.9179 183.478 24.5199 182.666 25.3599 182.106C26.1999 181.546 27.3339 181.266 28.7619 181.266C30.1759 181.266 31.3029 181.546 32.1429 182.106C32.9829 182.666 33.5849 183.478 33.9489 184.542C34.3129 185.606 34.4949 186.894 34.4949 188.406C34.4949 189.806 34.2989 191.017 33.9069 192.039C33.5289 193.061 32.9199 193.845 32.0799 194.391C31.2399 194.937 30.1339 195.21 28.7619 195.21ZM28.7619 193.74C29.7559 193.74 30.5399 193.523 31.1139 193.089C31.7019 192.641 32.1219 192.018 32.3739 191.22C32.6399 190.408 32.7729 189.47 32.7729 188.406C32.7729 186.572 32.4789 185.172 31.8909 184.206C31.3169 183.226 30.2739 182.736 28.7619 182.736C27.7539 182.736 26.9559 182.953 26.3679 183.387C25.7799 183.821 25.3599 184.465 25.1079 185.319C24.8559 186.159 24.7299 187.188 24.7299 188.406C24.7299 189.47 24.8559 190.408 25.1079 191.22C25.3739 192.018 25.8009 192.641 26.3889 193.089C26.9909 193.523 27.7819 193.74 28.7619 193.74ZM39.0826 187.335C38.1026 187.335 37.3746 187.069 36.8986 186.537C36.4226 185.991 36.1846 185.291 36.1846 184.437C36.1846 183.457 36.4226 182.687 36.8986 182.127C37.3746 181.553 38.1026 181.266 39.0826 181.266C40.0486 181.266 40.7696 181.553 41.2456 182.127C41.7216 182.687 41.9596 183.457 41.9596 184.437C41.9596 185.291 41.7216 185.991 41.2456 186.537C40.7696 187.069 40.0486 187.335 39.0826 187.335ZM38.2006 195L45.3826 181.476H46.9996L39.8176 195H38.2006ZM39.0826 186.18C39.6986 186.18 40.1326 186.026 40.3846 185.718C40.6366 185.41 40.7626 184.976 40.7626 184.416C40.7626 183.716 40.6296 183.212 40.3636 182.904C40.0976 182.596 39.6706 182.442 39.0826 182.442C38.4946 182.442 38.0676 182.596 37.8016 182.904C37.5356 183.212 37.4026 183.716 37.4026 184.416C37.4026 184.976 37.5286 185.41 37.7806 185.718C38.0466 186.026 38.4806 186.18 39.0826 186.18ZM46.1806 195.21C45.2006 195.21 44.4726 194.944 43.9966 194.412C43.5206 193.866 43.2826 193.166 43.2826 192.312C43.2826 191.332 43.5206 190.562 43.9966 190.002C44.4726 189.428 45.2006 189.141 46.1806 189.141C47.1466 189.141 47.8676 189.428 48.3436 190.002C48.8196 190.562 49.0576 191.332 49.0576 192.312C49.0576 193.166 48.8196 193.866 48.3436 194.412C47.8676 194.944 47.1466 195.21 46.1806 195.21ZM46.1806 194.055C46.7966 194.055 47.2306 193.901 47.4826 193.593C47.7346 193.285 47.8606 192.851 47.8606 192.291C47.8606 191.591 47.7276 191.087 47.4616 190.779C47.1956 190.471 46.7686 190.317 46.1806 190.317C45.5926 190.317 45.1656 190.471 44.8996 190.779C44.6336 191.087 44.5006 191.591 44.5006 192.291C44.5006 192.851 44.6266 193.285 44.8786 193.593C45.1446 193.901 45.5786 194.055 46.1806 194.055ZM60.1322 195.21C58.3962 195.21 57.1292 194.769 56.3312 193.887C55.5472 192.991 55.1552 191.703 55.1552 190.023C55.1552 188.357 55.5542 187.076 56.3522 186.18C57.1502 185.284 58.4102 184.836 60.1322 184.836C61.8542 184.836 63.1142 185.284 63.9122 186.18C64.7102 187.076 65.1092 188.357 65.1092 190.023C65.1092 191.703 64.7172 192.991 63.9332 193.887C63.1492 194.769 61.8822 195.21 60.1322 195.21ZM60.1322 193.74C61.3222 193.74 62.1622 193.446 62.6522 192.858C63.1422 192.256 63.3872 191.311 63.3872 190.023C63.3872 188.735 63.1352 187.797 62.6312 187.209C62.1412 186.607 61.3082 186.306 60.1322 186.306C58.9562 186.306 58.1162 186.607 57.6122 187.209C57.1222 187.797 56.8772 188.735 56.8772 190.023C56.8772 191.311 57.1222 192.256 57.6122 192.858C58.1022 193.446 58.9422 193.74 60.1322 193.74ZM67.8648 195V186.411H66.3738V185.046H67.8648V183.597C67.8648 182.645 68.1238 181.896 68.6418 181.35C69.1738 180.79 69.9508 180.51 70.9728 180.51C71.3368 180.51 71.6658 180.538 71.9598 180.594C72.2678 180.65 72.5478 180.727 72.7998 180.825V182.127C72.3658 181.973 71.9038 181.896 71.4138 181.896C70.6998 181.896 70.2168 182.029 69.9648 182.295C69.7128 182.547 69.5868 182.981 69.5868 183.597V185.046H72.2748L72.1908 186.411H69.5868V195H67.8648ZM74.0278 195V186.411H72.5368V185.046H74.0278V183.597C74.0278 182.645 74.2868 181.896 74.8048 181.35C75.3368 180.79 76.1138 180.51 77.1358 180.51C77.4998 180.51 77.8288 180.538 78.1228 180.594C78.4308 180.65 78.7108 180.727 78.9628 180.825V182.127C78.5288 181.973 78.0668 181.896 77.5768 181.896C76.8628 181.896 76.3798 182.029 76.1278 182.295C75.8758 182.547 75.7498 182.981 75.7498 183.597V185.046H78.4378L78.3538 186.411H75.7498V195H74.0278ZM85.7454 182.715V181.14H87.6564V182.715H85.7454ZM85.9134 195V186.411H84.3804L84.5484 185.046H87.6354V195H85.9134ZM90.1841 195V185.046H91.7381L91.8431 186.18C92.3191 185.788 92.8721 185.466 93.5021 185.214C94.1461 184.962 94.8811 184.836 95.7071 184.836C96.9671 184.836 97.8841 185.13 98.4581 185.718C99.0321 186.306 99.3191 187.23 99.3191 188.49V195H97.5971V188.553C97.5971 187.685 97.4221 187.083 97.0721 186.747C96.7221 186.397 96.0501 186.222 95.0561 186.222C94.4401 186.222 93.8591 186.334 93.3131 186.558C92.7671 186.782 92.2981 187.09 91.9061 187.482V195H90.1841ZM109.248 195.21C108.618 195.21 108.037 195.098 107.505 194.874C106.973 194.65 106.546 194.321 106.224 193.887C105.902 193.439 105.741 192.879 105.741 192.207C105.741 191.297 106.042 190.555 106.644 189.981C107.246 189.393 108.226 189.099 109.584 189.099H113.049V188.49C113.049 187.944 112.972 187.51 112.818 187.188C112.678 186.866 112.405 186.635 111.999 186.495C111.593 186.355 110.998 186.285 110.214 186.285C109.612 186.285 109.031 186.334 108.471 186.432C107.911 186.53 107.386 186.663 106.896 186.831V185.403C107.344 185.235 107.869 185.102 108.471 185.004C109.087 184.892 109.745 184.836 110.445 184.836C111.859 184.836 112.916 185.123 113.616 185.697C114.33 186.271 114.687 187.202 114.687 188.49V195H113.238L113.112 193.866C112.678 194.314 112.153 194.65 111.537 194.874C110.921 195.098 110.158 195.21 109.248 195.21ZM109.689 193.803C110.417 193.803 111.061 193.677 111.621 193.425C112.181 193.159 112.657 192.802 113.049 192.354V190.422H109.626C108.842 190.422 108.282 190.569 107.946 190.863C107.61 191.157 107.442 191.605 107.442 192.207C107.442 192.809 107.645 193.229 108.051 193.467C108.457 193.691 109.003 193.803 109.689 193.803ZM119.265 195.21C118.593 195.21 118.061 195.035 117.669 194.685C117.291 194.321 117.102 193.712 117.102 192.858V180.846H118.824V192.669C118.824 193.089 118.894 193.376 119.034 193.53C119.174 193.684 119.391 193.761 119.685 193.761C120.007 193.761 120.322 193.719 120.63 193.635V195C120.406 195.084 120.182 195.14 119.958 195.168C119.734 195.196 119.503 195.21 119.265 195.21ZM123.828 195.21C123.156 195.21 122.624 195.035 122.232 194.685C121.854 194.321 121.665 193.712 121.665 192.858V180.846H123.387V192.669C123.387 193.089 123.457 193.376 123.597 193.53C123.737 193.684 123.954 193.761 124.248 193.761C124.57 193.761 124.885 193.719 125.193 193.635V195C124.969 195.084 124.745 195.14 124.521 195.168C124.297 195.196 124.066 195.21 123.828 195.21ZM17.47 223.536V209.046H18.94L19.066 210.096C19.528 209.662 20.032 209.347 20.578 209.151C21.138 208.941 21.789 208.836 22.531 208.836C23.931 208.836 25.03 209.228 25.828 210.012C26.626 210.782 27.025 212.07 27.025 213.876C27.025 215.668 26.626 217.005 25.828 217.887C25.03 218.769 23.924 219.21 22.51 219.21C21.208 219.21 20.102 218.895 19.192 218.265V223.536H17.47ZM22.048 217.824C23.168 217.824 23.987 217.509 24.505 216.879C25.037 216.235 25.303 215.234 25.303 213.876C25.303 212.574 25.058 211.643 24.568 211.083C24.078 210.509 23.252 210.222 22.09 210.222C21.516 210.222 20.984 210.32 20.494 210.516C20.004 210.712 19.57 211.013 19.192 211.419V216.837C19.542 217.145 19.955 217.39 20.431 217.572C20.907 217.74 21.446 217.824 22.048 217.824ZM29.1291 219V209.046H30.6831L30.8091 210.306C31.2991 209.984 31.8731 209.69 32.5311 209.424C33.2031 209.158 33.8611 208.962 34.5051 208.836V210.18C34.1131 210.264 33.6861 210.383 33.2241 210.537C32.7621 210.677 32.3211 210.838 31.9011 211.02C31.4811 211.202 31.1311 211.391 30.8511 211.587V219H29.1291ZM40.1157 219.21C38.3797 219.21 37.1127 218.769 36.3147 217.887C35.5307 216.991 35.1387 215.703 35.1387 214.023C35.1387 212.357 35.5377 211.076 36.3357 210.18C37.1337 209.284 38.3937 208.836 40.1157 208.836C41.8377 208.836 43.0977 209.284 43.8957 210.18C44.6937 211.076 45.0927 212.357 45.0927 214.023C45.0927 215.703 44.7007 216.991 43.9167 217.887C43.1327 218.769 41.8657 219.21 40.1157 219.21ZM40.1157 217.74C41.3057 217.74 42.1457 217.446 42.6357 216.858C43.1257 216.256 43.3707 215.311 43.3707 214.023C43.3707 212.735 43.1187 211.797 42.6147 211.209C42.1247 210.607 41.2917 210.306 40.1157 210.306C38.9397 210.306 38.0997 210.607 37.5957 211.209C37.1057 211.797 36.8607 212.735 36.8607 214.023C36.8607 215.311 37.1057 216.256 37.5957 216.858C38.0857 217.446 38.9257 217.74 40.1157 217.74ZM51.2713 219.21C49.8713 219.21 48.7723 218.825 47.9743 218.055C47.1763 217.271 46.7773 215.976 46.7773 214.17C46.7773 212.378 47.1903 211.041 48.0163 210.159C48.8563 209.277 49.9763 208.836 51.3763 208.836C52.6223 208.836 53.7003 209.151 54.6103 209.781V204.846H56.3323V219H54.8623L54.7363 217.95C54.2743 218.384 53.7633 218.706 53.2033 218.916C52.6573 219.112 52.0133 219.21 51.2713 219.21ZM51.7123 217.824C52.2863 217.824 52.8183 217.726 53.3083 217.53C53.7983 217.334 54.2323 217.033 54.6103 216.627V211.209C54.2603 210.901 53.8473 210.663 53.3713 210.495C52.8953 210.313 52.3563 210.222 51.7543 210.222C50.6483 210.222 49.8293 210.544 49.2973 211.188C48.7653 211.818 48.4993 212.812 48.4993 214.17C48.4993 215.472 48.7443 216.41 49.2343 216.984C49.7243 217.544 50.5503 217.824 51.7123 217.824ZM62.3634 219.21C61.1734 219.21 60.2704 218.881 59.6544 218.223C59.0524 217.565 58.7514 216.606 58.7514 215.346V209.046H60.4734V215.409C60.4734 216.235 60.6764 216.844 61.0824 217.236C61.5024 217.628 62.1464 217.824 63.0144 217.824C63.6304 217.824 64.2114 217.712 64.7574 217.488C65.3034 217.264 65.7724 216.956 66.1644 216.564V209.046H67.8864V219H66.3324L66.2274 217.866C65.7514 218.258 65.1844 218.58 64.5264 218.832C63.8684 219.084 63.1474 219.21 62.3634 219.21ZM75.117 219.21C73.381 219.21 72.093 218.762 71.253 217.866C70.413 216.956 69.993 215.675 69.993 214.023C69.993 212.273 70.469 210.971 71.421 210.117C72.373 209.263 73.654 208.836 75.264 208.836C75.922 208.836 76.468 208.885 76.902 208.983C77.336 209.067 77.756 209.207 78.162 209.403V210.768C77.406 210.404 76.545 210.222 75.579 210.222C74.347 210.222 73.395 210.516 72.723 211.104C72.051 211.678 71.715 212.651 71.715 214.023C71.715 215.339 72.009 216.305 72.597 216.921C73.185 217.523 74.158 217.824 75.516 217.824C76.482 217.824 77.371 217.642 78.183 217.278V218.664C77.749 218.846 77.28 218.979 76.776 219.063C76.286 219.161 75.733 219.21 75.117 219.21ZM83.3262 219.21C82.3462 219.21 81.6042 218.951 81.1002 218.433C80.6102 217.901 80.3652 217.166 80.3652 216.228V210.411H78.8532V209.046H80.3652V206.589L82.0872 206.064V209.046H84.8382L84.7332 210.411H82.0872V216.144C82.0872 216.746 82.2202 217.18 82.4862 217.446C82.7662 217.698 83.2422 217.824 83.9142 217.824C84.2782 217.824 84.6772 217.754 85.1112 217.614V218.916C84.5932 219.112 83.9982 219.21 83.3262 219.21ZM89.8055 219.21C89.1615 219.21 88.5455 219.168 87.9575 219.084C87.3835 219 86.9005 218.888 86.5085 218.748V217.236C86.9845 217.404 87.4815 217.53 87.9995 217.614C88.5315 217.698 89.0565 217.74 89.5745 217.74C90.4565 217.74 91.0865 217.649 91.4645 217.467C91.8425 217.271 92.0315 216.914 92.0315 216.396C92.0315 216.018 91.9265 215.731 91.7165 215.535C91.5205 215.339 91.2125 215.164 90.7925 215.01C90.3865 214.856 89.8615 214.674 89.2175 214.464C88.6435 214.268 88.1325 214.065 87.6845 213.855C87.2365 213.645 86.8865 213.365 86.6345 213.015C86.3825 212.651 86.2565 212.168 86.2565 211.566C86.2565 210.684 86.5645 210.012 87.1805 209.55C87.7965 209.074 88.7905 208.836 90.1625 208.836C90.6945 208.836 91.2055 208.878 91.6955 208.962C92.1855 209.032 92.6125 209.123 92.9765 209.235V210.747C92.0945 210.453 91.2475 210.306 90.4355 210.306C89.5675 210.306 88.9375 210.397 88.5455 210.579C88.1675 210.747 87.9785 211.069 87.9785 211.545C87.9785 211.867 88.0625 212.126 88.2305 212.322C88.4125 212.504 88.6855 212.665 89.0495 212.805C89.4275 212.931 89.9105 213.092 90.4985 213.288C91.2685 213.526 91.8915 213.771 92.3675 214.023C92.8435 214.275 93.1935 214.583 93.4175 214.947C93.6415 215.311 93.7535 215.787 93.7535 216.375C93.7535 217.355 93.4105 218.076 92.7245 218.538C92.0385 218.986 91.0655 219.21 89.8055 219.21Z" fill="white"/>
<rect x="16" y="151" width="70" height="18" rx="9" fill="white"/>
<path d="M25.0988 165V155.984H26.6668L29.5228 161.822L32.3648 155.984H33.9328V165H32.4208V158.462L29.9848 163.446H29.0608L26.6108 158.462V165H25.0988ZM38.8725 165.14C37.6778 165.14 36.8005 164.841 36.2405 164.244C35.6898 163.647 35.4145 162.793 35.4145 161.682C35.4145 160.571 35.6945 159.717 36.2545 159.12C36.8145 158.523 37.6872 158.224 38.8725 158.224C40.0672 158.224 40.9445 158.523 41.5045 159.12C42.0645 159.717 42.3445 160.571 42.3445 161.682C42.3445 162.793 42.0645 163.647 41.5045 164.244C40.9538 164.841 40.0765 165.14 38.8725 165.14ZM38.8725 163.852C39.5725 163.852 40.0672 163.684 40.3565 163.348C40.6552 163.003 40.8045 162.447 40.8045 161.682C40.8045 160.917 40.6552 160.366 40.3565 160.03C40.0672 159.694 39.5725 159.526 38.8725 159.526C38.1818 159.526 37.6872 159.694 37.3885 160.03C37.0992 160.366 36.9545 160.917 36.9545 161.682C36.9545 162.447 37.0992 163.003 37.3885 163.348C37.6872 163.684 38.1818 163.852 38.8725 163.852ZM45.4016 165L42.7836 158.364H44.3656L46.2276 163.516L48.0896 158.364H49.6576L47.0536 165H45.4016ZM51.2252 156.978V155.718H52.8912V156.978H51.2252ZM51.3512 165V159.526H50.3432L50.4832 158.364H52.8772V165H51.3512ZM56.8694 165.14C56.4121 165.14 55.9734 165.107 55.5534 165.042C55.1427 164.977 54.8021 164.897 54.5314 164.804V163.516C54.8487 163.637 55.1987 163.731 55.5814 163.796C55.9641 163.861 56.3281 163.894 56.6734 163.894C57.1961 163.894 57.5694 163.847 57.7934 163.754C58.0174 163.661 58.1294 163.479 58.1294 163.208C58.1294 163.012 58.0594 162.858 57.9194 162.746C57.7887 162.634 57.5881 162.531 57.3174 162.438C57.0561 162.345 56.7201 162.233 56.3094 162.102C55.9174 161.971 55.5767 161.831 55.2874 161.682C54.9981 161.523 54.7741 161.323 54.6154 161.08C54.4567 160.837 54.3774 160.52 54.3774 160.128C54.3774 159.521 54.5967 159.055 55.0354 158.728C55.4741 158.392 56.1787 158.224 57.1494 158.224C57.5321 158.224 57.8961 158.252 58.2414 158.308C58.5867 158.364 58.8807 158.434 59.1234 158.518V159.792C58.8621 159.689 58.5727 159.61 58.2554 159.554C57.9474 159.498 57.6581 159.47 57.3874 159.47C56.9021 159.47 56.5334 159.512 56.2814 159.596C56.0387 159.68 55.9174 159.848 55.9174 160.1C55.9174 160.361 56.0434 160.548 56.2954 160.66C56.5567 160.763 56.9721 160.907 57.5414 161.094C58.0641 161.253 58.4794 161.421 58.7874 161.598C59.0954 161.775 59.3147 161.99 59.4454 162.242C59.5854 162.485 59.6554 162.802 59.6554 163.194C59.6554 163.847 59.4174 164.337 58.9414 164.664C58.4654 164.981 57.7747 165.14 56.8694 165.14ZM63.4805 165.14C62.7711 165.14 62.2391 164.953 61.8845 164.58C61.5391 164.197 61.3665 163.679 61.3665 163.026V159.554H60.3865V158.364H61.3665V156.838L62.8785 156.376V158.364H64.6425L64.5445 159.554H62.8785V162.942C62.8785 163.325 62.9671 163.595 63.1445 163.754C63.3218 163.903 63.6111 163.978 64.0125 163.978C64.2645 163.978 64.5305 163.931 64.8105 163.838V164.916C64.4465 165.065 64.0031 165.14 63.4805 165.14ZM68.0497 165.14C67.6297 165.14 67.2377 165.065 66.8737 164.916C66.519 164.767 66.2344 164.543 66.0197 164.244C65.805 163.936 65.6977 163.558 65.6977 163.11C65.6977 162.475 65.9124 161.967 66.3417 161.584C66.7804 161.192 67.4524 160.996 68.3577 160.996H70.4857V160.702C70.4857 160.385 70.4344 160.133 70.3317 159.946C70.2384 159.759 70.061 159.624 69.7997 159.54C69.5477 159.456 69.1744 159.414 68.6797 159.414C67.8957 159.414 67.163 159.531 66.4817 159.764V158.63C66.7804 158.509 67.1444 158.411 67.5737 158.336C68.003 158.261 68.465 158.224 68.9597 158.224C69.9304 158.224 70.6677 158.42 71.1717 158.812C71.685 159.204 71.9417 159.843 71.9417 160.73V165H70.6397L70.5417 164.328C70.271 164.589 69.935 164.79 69.5337 164.93C69.1417 165.07 68.647 165.14 68.0497 165.14ZM68.4557 164.048C68.913 164.048 69.3097 163.973 69.6457 163.824C69.991 163.665 70.271 163.455 70.4857 163.194V162.032H68.3857C67.9377 162.032 67.611 162.121 67.4057 162.298C67.2097 162.466 67.1117 162.727 67.1117 163.082C67.1117 163.427 67.2284 163.675 67.4617 163.824C67.695 163.973 68.0264 164.048 68.4557 164.048ZM73.634 165V158.364H75.034L75.118 159.134C75.4353 158.929 75.8133 158.742 76.252 158.574C76.6906 158.406 77.1246 158.289 77.554 158.224V159.386C77.2926 159.433 77.008 159.503 76.7 159.596C76.4013 159.68 76.1166 159.778 75.846 159.89C75.5753 159.993 75.3466 160.1 75.16 160.212V165H73.634Z" fill="#00ABE1"/>
</g>
<defs>
<clipPath id="clip0_4689_71784">
<rect width="200" height="248" rx="12" fill="white"/>
</clipPath>
</defs>
</svg>
