<svg width="200" height="248" viewBox="0 0 200 248" fill="none" xmlns="http://www.w3.org/2000/svg">
<g clip-path="url(#clip0_4656_60865)">
<rect width="200" height="248" rx="12" fill="#00ABE1"/>
<rect width="200" height="160" fill="#00ABE1"/>
<path d="M138.012 44.0891C135.222 42.3159 131.739 42.3858 128.6 42.8752C122.238 44.4006 117.668 49.8665 115.348 55.7455C113.344 60.253 111.518 64.8281 109.689 69.4103L109.59 69.6581C108.713 71.8254 107.893 74.1071 106.234 75.8168C103.92 78.3909 99.8846 79.3315 96.7385 77.7998C92.1751 75.8994 89.8553 71.247 87.3702 67.2938C83.9826 62.1584 80.792 56.6035 75.6312 53.0253C70.3115 49.5233 62.7609 50.8453 58.3755 55.2879C53.2846 60.3597 51.3969 67.6243 50.1639 74.4885C49.2614 78.6959 49.6618 83.0178 49.5156 87.2825C50.5516 95.6021 52.5664 103.833 55.8014 111.587C56.7293 113.449 57.8035 115.591 59.8754 116.379C61.2864 116.748 62.78 116.57 64.2036 116.373C66.5362 115.324 67.1972 112.419 66.7332 110.106C65.4049 102.6 61.6741 95.5767 61.4898 87.8672C61.4071 85.6173 62.3923 82.7 64.9981 82.4585C67.4768 82.1916 69.0785 84.5177 70.267 86.3355C74.0105 92.5831 77.4235 99.0342 81.256 105.231C84.3322 110.099 89.6074 113.779 95.4673 114.059C100.056 114.224 104.925 113.512 108.757 110.811C111.954 108.631 114.109 105.225 115.443 101.646C118.106 93.9496 120.083 85.9732 123.655 78.6197C125.11 75.7977 126.89 72.9631 129.604 71.2026C131.205 70.084 133.538 69.8488 135.152 71.0691C137.065 72.3847 137.815 74.7999 137.834 77.0307C138.057 81.9183 137.79 86.8376 137.097 91.687C136.919 94.7568 136.246 98.316 138.381 100.896C139.703 102.587 142.144 102.759 144.05 102.117C147.273 100.623 148.531 96.9114 148.951 93.6255C150.826 80.7933 150.4 67.3637 145.932 55.0845C144.343 50.8262 142.042 46.4852 138.012 44.0891Z" fill="white"/>
<path d="M0 160H200V236C200 242.627 194.627 248 188 248H12C5.37258 248 0 242.627 0 236V160Z" fill="#00ABE1"/>
<path d="M19.648 198V184.224L17.2 184.656V183L21.616 182.304V198H19.648ZM30.5851 198.24C29.0331 198.24 27.7691 197.928 26.7931 197.304C25.8331 196.68 25.1291 195.784 24.6811 194.616C24.2331 193.448 24.0091 192.064 24.0091 190.464C24.0091 188.736 24.2171 187.264 24.6331 186.048C25.0491 184.832 25.7371 183.904 26.6971 183.264C27.6571 182.624 28.9531 182.304 30.5851 182.304C32.2011 182.304 33.4891 182.624 34.4491 183.264C35.4091 183.904 36.0971 184.832 36.5131 186.048C36.9291 187.264 37.1371 188.736 37.1371 190.464C37.1371 192.064 36.9131 193.448 36.4651 194.616C36.0331 195.784 35.3371 196.68 34.3771 197.304C33.4171 197.928 32.1531 198.24 30.5851 198.24ZM30.5851 196.56C31.7211 196.56 32.6171 196.312 33.2731 195.816C33.9451 195.304 34.4251 194.592 34.7131 193.68C35.0171 192.752 35.1691 191.68 35.1691 190.464C35.1691 188.368 34.8331 186.768 34.1611 185.664C33.5051 184.544 32.3131 183.984 30.5851 183.984C29.4331 183.984 28.5211 184.232 27.8491 184.728C27.1771 185.224 26.6971 185.96 26.4091 186.936C26.1211 187.896 25.9771 189.072 25.9771 190.464C25.9771 191.68 26.1211 192.752 26.4091 193.68C26.7131 194.592 27.2011 195.304 27.8731 195.816C28.5611 196.312 29.4651 196.56 30.5851 196.56ZM42.3801 189.24C41.2601 189.24 40.4281 188.936 39.8841 188.328C39.3401 187.704 39.0681 186.904 39.0681 185.928C39.0681 184.808 39.3401 183.928 39.8841 183.288C40.4281 182.632 41.2601 182.304 42.3801 182.304C43.4841 182.304 44.3081 182.632 44.8521 183.288C45.3961 183.928 45.6681 184.808 45.6681 185.928C45.6681 186.904 45.3961 187.704 44.8521 188.328C44.3081 188.936 43.4841 189.24 42.3801 189.24ZM41.3721 198L49.5801 182.544H51.4281L43.2201 198H41.3721ZM42.3801 187.92C43.0841 187.92 43.5801 187.744 43.8681 187.392C44.1561 187.04 44.3001 186.544 44.3001 185.904C44.3001 185.104 44.1481 184.528 43.8441 184.176C43.5401 183.824 43.0521 183.648 42.3801 183.648C41.7081 183.648 41.2201 183.824 40.9161 184.176C40.6121 184.528 40.4601 185.104 40.4601 185.904C40.4601 186.544 40.6041 187.04 40.8921 187.392C41.1961 187.744 41.6921 187.92 42.3801 187.92ZM50.4921 198.24C49.3721 198.24 48.5401 197.936 47.9961 197.328C47.4521 196.704 47.1801 195.904 47.1801 194.928C47.1801 193.808 47.4521 192.928 47.9961 192.288C48.5401 191.632 49.3721 191.304 50.4921 191.304C51.5961 191.304 52.4201 191.632 52.9641 192.288C53.5081 192.928 53.7801 193.808 53.7801 194.928C53.7801 195.904 53.5081 196.704 52.9641 197.328C52.4201 197.936 51.5961 198.24 50.4921 198.24ZM50.4921 196.92C51.1961 196.92 51.6921 196.744 51.9801 196.392C52.2681 196.04 52.4121 195.544 52.4121 194.904C52.4121 194.104 52.2601 193.528 51.9561 193.176C51.6521 192.824 51.1641 192.648 50.4921 192.648C49.8201 192.648 49.3321 192.824 49.0281 193.176C48.7241 193.528 48.5721 194.104 48.5721 194.904C48.5721 195.544 48.7161 196.04 49.0041 196.392C49.3081 196.744 49.8041 196.92 50.4921 196.92ZM66.4368 198.24C64.4528 198.24 63.0048 197.736 62.0928 196.728C61.1968 195.704 60.7488 194.232 60.7488 192.312C60.7488 190.408 61.2048 188.944 62.1168 187.92C63.0288 186.896 64.4688 186.384 66.4368 186.384C68.4048 186.384 69.8448 186.896 70.7568 187.92C71.6688 188.944 72.1248 190.408 72.1248 192.312C72.1248 194.232 71.6768 195.704 70.7808 196.728C69.8848 197.736 68.4368 198.24 66.4368 198.24ZM66.4368 196.56C67.7968 196.56 68.7568 196.224 69.3168 195.552C69.8768 194.864 70.1568 193.784 70.1568 192.312C70.1568 190.84 69.8688 189.768 69.2928 189.096C68.7328 188.408 67.7808 188.064 66.4368 188.064C65.0928 188.064 64.1328 188.408 63.5568 189.096C62.9968 189.768 62.7168 190.84 62.7168 192.312C62.7168 193.784 62.9968 194.864 63.5568 195.552C64.1168 196.224 65.0768 196.56 66.4368 196.56ZM75.274 198V188.184H73.57V186.624H75.274V184.968C75.274 183.88 75.57 183.024 76.162 182.4C76.77 181.76 77.658 181.44 78.826 181.44C79.242 181.44 79.618 181.472 79.954 181.536C80.306 181.6 80.626 181.688 80.914 181.8V183.288C80.418 183.112 79.89 183.024 79.33 183.024C78.514 183.024 77.962 183.176 77.674 183.48C77.386 183.768 77.242 184.264 77.242 184.968V186.624H80.314L80.218 188.184H77.242V198H75.274ZM82.3174 198V188.184H80.6134V186.624H82.3174V184.968C82.3174 183.88 82.6134 183.024 83.2054 182.4C83.8134 181.76 84.7014 181.44 85.8694 181.44C86.2854 181.44 86.6614 181.472 86.9974 181.536C87.3494 181.6 87.6694 181.688 87.9574 181.8V183.288C87.4614 183.112 86.9334 183.024 86.3734 183.024C85.5574 183.024 85.0054 183.176 84.7174 183.48C84.4294 183.768 84.2854 184.264 84.2854 184.968V186.624H87.3574L87.2614 188.184H84.2854V198H82.3174ZM95.7091 183.96V182.16H97.8931V183.96H95.7091ZM95.9011 198V188.184H94.1491L94.3411 186.624H97.8691V198H95.9011ZM100.782 198V186.624H102.558L102.678 187.92C103.222 187.472 103.854 187.104 104.574 186.816C105.31 186.528 106.15 186.384 107.094 186.384C108.534 186.384 109.582 186.72 110.238 187.392C110.894 188.064 111.222 189.12 111.222 190.56V198H109.254V190.632C109.254 189.64 109.054 188.952 108.654 188.568C108.254 188.168 107.486 187.968 106.35 187.968C105.646 187.968 104.982 188.096 104.358 188.352C103.734 188.608 103.198 188.96 102.75 189.408V198H100.782ZM122.569 198.24C121.849 198.24 121.185 198.112 120.577 197.856C119.969 197.6 119.481 197.224 119.113 196.728C118.745 196.216 118.561 195.576 118.561 194.808C118.561 193.768 118.905 192.92 119.593 192.264C120.281 191.592 121.401 191.256 122.953 191.256H126.913V190.56C126.913 189.936 126.825 189.44 126.649 189.072C126.489 188.704 126.177 188.44 125.713 188.28C125.249 188.12 124.569 188.04 123.673 188.04C122.985 188.04 122.321 188.096 121.681 188.208C121.041 188.32 120.441 188.472 119.881 188.664V187.032C120.393 186.84 120.993 186.688 121.681 186.576C122.385 186.448 123.137 186.384 123.937 186.384C125.553 186.384 126.761 186.712 127.561 187.368C128.377 188.024 128.785 189.088 128.785 190.56V198H127.129L126.985 196.704C126.489 197.216 125.889 197.6 125.185 197.856C124.481 198.112 123.609 198.24 122.569 198.24ZM123.073 196.632C123.905 196.632 124.641 196.488 125.281 196.2C125.921 195.896 126.465 195.488 126.913 194.976V192.768H123.001C122.105 192.768 121.465 192.936 121.081 193.272C120.697 193.608 120.505 194.12 120.505 194.808C120.505 195.496 120.737 195.976 121.201 196.248C121.665 196.504 122.289 196.632 123.073 196.632ZM134.017 198.24C133.249 198.24 132.641 198.04 132.193 197.64C131.761 197.224 131.545 196.528 131.545 195.552V181.824H133.513V195.336C133.513 195.816 133.593 196.144 133.753 196.32C133.913 196.496 134.161 196.584 134.497 196.584C134.865 196.584 135.225 196.536 135.577 196.44V198C135.321 198.096 135.065 198.16 134.809 198.192C134.553 198.224 134.289 198.24 134.017 198.24ZM139.232 198.24C138.464 198.24 137.856 198.04 137.408 197.64C136.976 197.224 136.76 196.528 136.76 195.552V181.824H138.728V195.336C138.728 195.816 138.808 196.144 138.968 196.32C139.128 196.496 139.376 196.584 139.712 196.584C140.08 196.584 140.44 196.536 140.792 196.44V198C140.536 198.096 140.28 198.16 140.024 198.192C139.768 198.224 139.504 198.24 139.232 198.24ZM17.68 231.184V214.624H19.36L19.504 215.824C20.032 215.328 20.608 214.968 21.232 214.744C21.872 214.504 22.616 214.384 23.464 214.384C25.064 214.384 26.32 214.832 27.232 215.728C28.144 216.608 28.6 218.08 28.6 220.144C28.6 222.192 28.144 223.72 27.232 224.728C26.32 225.736 25.056 226.24 23.44 226.24C21.952 226.24 20.688 225.88 19.648 225.16V231.184H17.68ZM22.912 224.656C24.192 224.656 25.128 224.296 25.72 223.576C26.328 222.84 26.632 221.696 26.632 220.144C26.632 218.656 26.352 217.592 25.792 216.952C25.232 216.296 24.288 215.968 22.96 215.968C22.304 215.968 21.696 216.08 21.136 216.304C20.576 216.528 20.08 216.872 19.648 217.336V223.528C20.048 223.88 20.52 224.16 21.064 224.368C21.608 224.56 22.224 224.656 22.912 224.656ZM31.0047 226V214.624H32.7807L32.9247 216.064C33.4847 215.696 34.1407 215.36 34.8927 215.056C35.6607 214.752 36.4127 214.528 37.1487 214.384V215.92C36.7007 216.016 36.2127 216.152 35.6847 216.328C35.1567 216.488 34.6527 216.672 34.1727 216.88C33.6927 217.088 33.2927 217.304 32.9727 217.528V226H31.0047ZM43.5608 226.24C41.5768 226.24 40.1288 225.736 39.2168 224.728C38.3208 223.704 37.8728 222.232 37.8728 220.312C37.8728 218.408 38.3288 216.944 39.2408 215.92C40.1528 214.896 41.5928 214.384 43.5608 214.384C45.5288 214.384 46.9688 214.896 47.8808 215.92C48.7928 216.944 49.2488 218.408 49.2488 220.312C49.2488 222.232 48.8008 223.704 47.9048 224.728C47.0088 225.736 45.5608 226.24 43.5608 226.24ZM43.5608 224.56C44.9208 224.56 45.8808 224.224 46.4408 223.552C47.0008 222.864 47.2808 221.784 47.2808 220.312C47.2808 218.84 46.9928 217.768 46.4168 217.096C45.8568 216.408 44.9048 216.064 43.5608 216.064C42.2168 216.064 41.2568 216.408 40.6808 217.096C40.1208 217.768 39.8408 218.84 39.8408 220.312C39.8408 221.784 40.1208 222.864 40.6808 223.552C41.2408 224.224 42.2008 224.56 43.5608 224.56ZM56.3101 226.24C54.7101 226.24 53.4541 225.8 52.5421 224.92C51.6301 224.024 51.1741 222.544 51.1741 220.48C51.1741 218.432 51.6461 216.904 52.5901 215.896C53.5501 214.888 54.8301 214.384 56.4301 214.384C57.8541 214.384 59.0861 214.744 60.1261 215.464V209.824H62.0941V226H60.4141L60.2701 224.8C59.7421 225.296 59.1581 225.664 58.5181 225.904C57.8941 226.128 57.1581 226.24 56.3101 226.24ZM56.8141 224.656C57.4701 224.656 58.0781 224.544 58.6381 224.32C59.1981 224.096 59.6941 223.752 60.1261 223.288V217.096C59.7261 216.744 59.2541 216.472 58.7101 216.28C58.1661 216.072 57.5501 215.968 56.8621 215.968C55.5981 215.968 54.6621 216.336 54.0541 217.072C53.4461 217.792 53.1421 218.928 53.1421 220.48C53.1421 221.968 53.4221 223.04 53.9821 223.696C54.5421 224.336 55.4861 224.656 56.8141 224.656ZM68.9868 226.24C67.6268 226.24 66.5948 225.864 65.8908 225.112C65.2028 224.36 64.8588 223.264 64.8588 221.824V214.624H66.8268V221.896C66.8268 222.84 67.0588 223.536 67.5228 223.984C68.0028 224.432 68.7388 224.656 69.7308 224.656C70.4348 224.656 71.0988 224.528 71.7228 224.272C72.3468 224.016 72.8828 223.664 73.3308 223.216V214.624H75.2988V226H73.5228L73.4028 224.704C72.8588 225.152 72.2108 225.52 71.4588 225.808C70.7068 226.096 69.8828 226.24 68.9868 226.24ZM83.5622 226.24C81.5782 226.24 80.1062 225.728 79.1462 224.704C78.1862 223.664 77.7062 222.2 77.7062 220.312C77.7062 218.312 78.2502 216.824 79.3382 215.848C80.4262 214.872 81.8902 214.384 83.7302 214.384C84.4822 214.384 85.1062 214.44 85.6022 214.552C86.0982 214.648 86.5782 214.808 87.0422 215.032V216.592C86.1782 216.176 85.1942 215.968 84.0902 215.968C82.6822 215.968 81.5942 216.304 80.8262 216.976C80.0582 217.632 79.6742 218.744 79.6742 220.312C79.6742 221.816 80.0102 222.92 80.6822 223.624C81.3542 224.312 82.4662 224.656 84.0182 224.656C85.1222 224.656 86.1382 224.448 87.0662 224.032V225.616C86.5702 225.824 86.0342 225.976 85.4582 226.072C84.8982 226.184 84.2662 226.24 83.5622 226.24ZM92.9442 226.24C91.8242 226.24 90.9762 225.944 90.4002 225.352C89.8402 224.744 89.5602 223.904 89.5602 222.832V216.184H87.8322V214.624H89.5602V211.816L91.5282 211.216V214.624H94.6722L94.5522 216.184H91.5282V222.736C91.5282 223.424 91.6802 223.92 91.9842 224.224C92.3042 224.512 92.8482 224.656 93.6162 224.656C94.0322 224.656 94.4882 224.576 94.9842 224.416V225.904C94.3922 226.128 93.7122 226.24 92.9442 226.24ZM100.349 226.24C99.6131 226.24 98.9091 226.192 98.2371 226.096C97.5811 226 97.0291 225.872 96.5811 225.712V223.984C97.1251 224.176 97.6931 224.32 98.2851 224.416C98.8931 224.512 99.4931 224.56 100.085 224.56C101.093 224.56 101.813 224.456 102.245 224.248C102.677 224.024 102.893 223.616 102.893 223.024C102.893 222.592 102.773 222.264 102.533 222.04C102.309 221.816 101.957 221.616 101.477 221.44C101.013 221.264 100.413 221.056 99.6771 220.816C99.0211 220.592 98.4371 220.36 97.9251 220.12C97.4131 219.88 97.0131 219.56 96.7251 219.16C96.4371 218.744 96.2931 218.192 96.2931 217.504C96.2931 216.496 96.6451 215.728 97.3491 215.2C98.0531 214.656 99.1891 214.384 100.757 214.384C101.365 214.384 101.949 214.432 102.509 214.528C103.069 214.608 103.557 214.712 103.973 214.84V216.568C102.965 216.232 101.997 216.064 101.069 216.064C100.077 216.064 99.3571 216.168 98.9091 216.376C98.4771 216.568 98.2611 216.936 98.2611 217.48C98.2611 217.848 98.3571 218.144 98.5491 218.368C98.7571 218.576 99.0691 218.76 99.4851 218.92C99.9171 219.064 100.469 219.248 101.141 219.472C102.021 219.744 102.733 220.024 103.277 220.312C103.821 220.6 104.221 220.952 104.477 221.368C104.733 221.784 104.861 222.328 104.861 223C104.861 224.12 104.469 224.944 103.685 225.472C102.901 225.984 101.789 226.24 100.349 226.24Z" fill="white"/>
</g>
<defs>
<clipPath id="clip0_4656_60865">
<rect width="200" height="248" rx="12" fill="white"/>
</clipPath>
</defs>
</svg>
