<svg width="200" height="248" viewBox="0 0 200 248" fill="none" xmlns="http://www.w3.org/2000/svg">
<g clip-path="url(#clip0_4689_59923)">
<rect width="200" height="248" rx="12" fill="#ED1D24"/>
<rect width="200" height="160" fill="#ED1D24"/>
<path d="M91.0214 129.97C97.3233 127.565 102.322 124.219 107.108 120.986L108.419 120.125C113.526 116.719 118.513 112.737 123.641 107.992C134.99 97.4833 141.803 87.172 145.704 74.5882C147.296 69.4687 149.524 59.5271 146.79 50.1888C144.779 43.3922 140.878 37.778 135.223 33.5553C134.572 32.9762 127.514 27 114.19 27C102.004 27 88.6526 31.9707 74.4964 41.7996L74.054 42.1013L73.9856 42.1494C73.5583 42.424 73.1373 42.7084 72.7228 43.0022C72.4011 43.2676 72.0472 43.513 71.6289 43.8065C68.7334 45.8857 65.9584 48.1498 63.4047 50.5467C57.4245 56.6717 50.6038 66.9069 51.018 75.6138C51.199 79.2936 52.6548 82.3097 55.3412 84.5417C57.7542 86.5405 60.7825 87.5579 64.3296 87.5579C71.5766 87.5579 79.5234 83.3834 84.9607 79.8524C85.3026 79.591 85.6444 79.3377 85.9943 79.1165L88.8376 77.1057L89.7626 76.438C97.4841 70.9605 105.447 65.2822 114.484 61.9764C116.828 61.1238 118.867 60.7297 120.745 60.7297C121.67 60.7297 122.587 60.8101 123.456 61.0353C126.199 61.6988 128.201 63.3476 129.396 65.9295C131.475 70.4499 130.98 77.5924 128.141 84.0672C124.264 92.9229 117.604 101.67 108.363 110.035C103.641 114.298 99.2939 117.596 95.421 119.816L95.0712 120.017C93.2614 121.074 91.2265 122.269 89.0709 123.113L88.7773 123.234C88.1419 123.487 87.5949 123.717 87.0882 123.89C78.0475 126.451 83.5491 118.018 83.5491 118.018C85.5398 115.517 87.5708 113.498 89.7264 111.394L93.4826 107.574L93.7641 107.264C95.3406 105.591 97.5043 103.307 97.3836 100.025C97.1946 95.6537 93.0281 92.927 89.0869 92.8103H88.8054C85.0331 92.8103 81.4539 95.167 79.1133 97.1256C76.5674 99.3702 74.3774 101.989 72.6183 104.891C70.2174 108.933 65.15 119.249 70.0846 127.485C72.0552 130.775 75.353 132.448 79.8773 132.448C83.0343 132.448 86.7664 131.635 90.9851 130.018" fill="white"/>
<path d="M0 160H200V236C200 242.627 194.627 248 188 248H12C5.37258 248 0 242.627 0 236V160Z" fill="#ED1D24"/>
<path d="M23.056 195.21C21.208 195.21 19.794 194.769 18.814 193.887C17.848 193.005 17.365 191.724 17.365 190.044V181.476H19.087V190.065C19.087 191.297 19.43 192.221 20.116 192.837C20.816 193.439 21.796 193.74 23.056 193.74C24.302 193.74 25.268 193.439 25.954 192.837C26.654 192.221 27.004 191.297 27.004 190.065V181.476H28.726V190.044C28.726 191.724 28.236 193.005 27.256 193.887C26.29 194.769 24.89 195.21 23.056 195.21ZM31.1389 199.536V185.046H32.6089L32.7349 186.096C33.1969 185.662 33.7009 185.347 34.2469 185.151C34.8069 184.941 35.4579 184.836 36.1999 184.836C37.5999 184.836 38.6989 185.228 39.4969 186.012C40.2949 186.782 40.6939 188.07 40.6939 189.876C40.6939 191.668 40.2949 193.005 39.4969 193.887C38.6989 194.769 37.5929 195.21 36.1789 195.21C34.8769 195.21 33.7709 194.895 32.8609 194.265V199.536H31.1389ZM35.7169 193.824C36.8369 193.824 37.6559 193.509 38.1739 192.879C38.7059 192.235 38.9719 191.234 38.9719 189.876C38.9719 188.574 38.7269 187.643 38.2369 187.083C37.7469 186.509 36.9209 186.222 35.7589 186.222C35.1849 186.222 34.6529 186.32 34.1629 186.516C33.6729 186.712 33.2389 187.013 32.8609 187.419V192.837C33.2109 193.145 33.6239 193.39 34.0999 193.572C34.5759 193.74 35.1149 193.824 35.7169 193.824ZM46.662 198.696C45.92 198.696 45.192 198.654 44.478 198.57C43.778 198.486 43.176 198.353 42.672 198.171V196.743C43.232 196.925 43.862 197.065 44.562 197.163C45.262 197.261 45.934 197.31 46.578 197.31C47.628 197.31 48.398 197.247 48.888 197.121C49.378 196.995 49.623 196.673 49.623 196.155C49.623 195.791 49.49 195.532 49.224 195.378C48.972 195.224 48.517 195.147 47.859 195.147H45.213C43.379 195.147 42.462 194.531 42.462 193.299C42.462 192.893 42.588 192.508 42.84 192.144C43.106 191.766 43.498 191.5 44.016 191.346C43.456 191.066 43.043 190.681 42.777 190.191C42.511 189.687 42.378 189.092 42.378 188.406C42.378 187.16 42.735 186.257 43.449 185.697C44.177 185.123 45.283 184.836 46.767 184.836C47.075 184.836 47.39 184.864 47.712 184.92C48.048 184.962 48.307 185.004 48.489 185.046H52.08L52.017 186.222H50.211C50.533 186.488 50.764 186.81 50.904 187.188C51.044 187.552 51.114 187.958 51.114 188.406C51.114 189.512 50.792 190.373 50.148 190.989C49.504 191.591 48.517 191.892 47.187 191.892C46.963 191.892 46.76 191.885 46.578 191.871C46.41 191.843 46.207 191.815 45.969 191.787C45.535 191.801 45.129 191.927 44.751 192.165C44.373 192.389 44.184 192.683 44.184 193.047C44.184 193.285 44.275 193.46 44.457 193.572C44.653 193.684 45.003 193.74 45.507 193.74H48.258C49.252 193.74 50.015 193.943 50.547 194.349C51.079 194.741 51.345 195.322 51.345 196.092C51.345 197.072 50.939 197.751 50.127 198.129C49.315 198.507 48.16 198.696 46.662 198.696ZM46.767 190.59C47.761 190.59 48.447 190.429 48.825 190.107C49.203 189.785 49.392 189.218 49.392 188.406C49.392 187.594 49.189 187.006 48.783 186.642C48.391 186.278 47.719 186.096 46.767 186.096C45.829 186.096 45.15 186.271 44.73 186.621C44.31 186.971 44.1 187.566 44.1 188.406C44.1 189.176 44.296 189.736 44.688 190.086C45.094 190.422 45.787 190.59 46.767 190.59ZM53.3291 195V185.046H54.8831L55.0091 186.306C55.4991 185.984 56.0731 185.69 56.7311 185.424C57.4031 185.158 58.0611 184.962 58.7051 184.836V186.18C58.3131 186.264 57.8861 186.383 57.4241 186.537C56.9621 186.677 56.5211 186.838 56.1011 187.02C55.6811 187.202 55.3311 187.391 55.0511 187.587V195H53.3291ZM62.6202 195.21C61.9902 195.21 61.4092 195.098 60.8772 194.874C60.3452 194.65 59.9182 194.321 59.5962 193.887C59.2742 193.439 59.1132 192.879 59.1132 192.207C59.1132 191.297 59.4142 190.555 60.0162 189.981C60.6182 189.393 61.5982 189.099 62.9562 189.099H66.4212V188.49C66.4212 187.944 66.3442 187.51 66.1902 187.188C66.0502 186.866 65.7772 186.635 65.3712 186.495C64.9652 186.355 64.3702 186.285 63.5862 186.285C62.9842 186.285 62.4032 186.334 61.8432 186.432C61.2832 186.53 60.7582 186.663 60.2682 186.831V185.403C60.7162 185.235 61.2412 185.102 61.8432 185.004C62.4592 184.892 63.1172 184.836 63.8172 184.836C65.2312 184.836 66.2882 185.123 66.9882 185.697C67.7022 186.271 68.0592 187.202 68.0592 188.49V195H66.6102L66.4842 193.866C66.0502 194.314 65.5252 194.65 64.9092 194.874C64.2932 195.098 63.5302 195.21 62.6202 195.21ZM63.0612 193.803C63.7892 193.803 64.4332 193.677 64.9932 193.425C65.5532 193.159 66.0292 192.802 66.4212 192.354V190.422H62.9982C62.2142 190.422 61.6542 190.569 61.3182 190.863C60.9822 191.157 60.8142 191.605 60.8142 192.207C60.8142 192.809 61.0172 193.229 61.4232 193.467C61.8292 193.691 62.3752 193.803 63.0612 193.803ZM74.5485 195.21C73.1485 195.21 72.0495 194.825 71.2515 194.055C70.4535 193.271 70.0545 191.976 70.0545 190.17C70.0545 188.378 70.4675 187.041 71.2935 186.159C72.1335 185.277 73.2535 184.836 74.6535 184.836C75.8995 184.836 76.9775 185.151 77.8875 185.781V180.846H79.6095V195H78.1395L78.0135 193.95C77.5515 194.384 77.0405 194.706 76.4805 194.916C75.9345 195.112 75.2905 195.21 74.5485 195.21ZM74.9895 193.824C75.5635 193.824 76.0955 193.726 76.5855 193.53C77.0755 193.334 77.5095 193.033 77.8875 192.627V187.209C77.5375 186.901 77.1245 186.663 76.6485 186.495C76.1725 186.313 75.6335 186.222 75.0315 186.222C73.9255 186.222 73.1065 186.544 72.5745 187.188C72.0425 187.818 71.7765 188.812 71.7765 190.17C71.7765 191.472 72.0215 192.41 72.5115 192.984C73.0015 193.544 73.8275 193.824 74.9895 193.824ZM86.8215 195.21C85.0435 195.21 83.7135 194.783 82.8315 193.929C81.9495 193.075 81.5085 191.759 81.5085 189.981C81.5085 188.385 81.8865 187.132 82.6425 186.222C83.4125 185.298 84.6235 184.836 86.2755 184.836C87.2555 184.836 88.0605 185.018 88.6905 185.382C89.3345 185.732 89.8105 186.222 90.1185 186.852C90.4405 187.468 90.6015 188.168 90.6015 188.952V190.821H83.2305C83.2865 191.577 83.4475 192.172 83.7135 192.606C83.9935 193.04 84.4065 193.355 84.9525 193.551C85.5125 193.733 86.2475 193.824 87.1575 193.824C88.1795 193.824 89.1175 193.649 89.9715 193.299V194.643C89.5375 194.825 89.0475 194.965 88.5015 195.063C87.9695 195.161 87.4095 195.21 86.8215 195.21ZM83.2305 189.582H89.0685V188.763C89.0685 187.951 88.8515 187.328 88.4175 186.894C87.9975 186.446 87.2975 186.222 86.3175 186.222C85.1275 186.222 84.3155 186.502 83.8815 187.062C83.4475 187.622 83.2305 188.462 83.2305 189.582ZM100.759 195.21C99.7786 195.21 99.0366 194.951 98.5326 194.433C98.0426 193.901 97.7976 193.166 97.7976 192.228V186.411H96.2856V185.046H97.7976V182.589L99.5196 182.064V185.046H102.271L102.166 186.411H99.5196V192.144C99.5196 192.746 99.6526 193.18 99.9186 193.446C100.199 193.698 100.675 193.824 101.347 193.824C101.711 193.824 102.11 193.754 102.544 193.614V194.916C102.026 195.112 101.431 195.21 100.759 195.21ZM108.666 195.21C106.93 195.21 105.663 194.769 104.865 193.887C104.081 192.991 103.689 191.703 103.689 190.023C103.689 188.357 104.088 187.076 104.886 186.18C105.684 185.284 106.944 184.836 108.666 184.836C110.388 184.836 111.648 185.284 112.446 186.18C113.244 187.076 113.643 188.357 113.643 190.023C113.643 191.703 113.251 192.991 112.467 193.887C111.683 194.769 110.416 195.21 108.666 195.21ZM108.666 193.74C109.856 193.74 110.696 193.446 111.186 192.858C111.676 192.256 111.921 191.311 111.921 190.023C111.921 188.735 111.669 187.797 111.165 187.209C110.675 186.607 109.842 186.306 108.666 186.306C107.49 186.306 106.65 186.607 106.146 187.209C105.656 187.797 105.411 188.735 105.411 190.023C105.411 191.311 105.656 192.256 106.146 192.858C106.636 193.446 107.476 193.74 108.666 193.74ZM126.278 195V191.892H119.327V190.59L126.467 181.476H128V190.485H129.428V191.892H128V195H126.278ZM121.049 190.527H126.509V183.534L121.049 190.527ZM137.178 195.21C135.722 195.21 134.511 194.937 133.545 194.391C132.593 193.831 131.879 193.054 131.403 192.06C130.927 191.052 130.689 189.876 130.689 188.532C130.689 187.062 130.913 185.781 131.361 184.689C131.809 183.597 132.509 182.757 133.461 182.169C134.413 181.567 135.645 181.266 137.157 181.266C137.941 181.266 138.648 181.322 139.278 181.434C139.922 181.546 140.524 181.7 141.084 181.896V183.408C140.524 183.198 139.929 183.037 139.299 182.925C138.669 182.799 138.004 182.736 137.304 182.736C136.086 182.736 135.12 182.967 134.406 183.429C133.692 183.891 133.181 184.556 132.873 185.424C132.565 186.292 132.411 187.328 132.411 188.532C132.411 190.198 132.796 191.486 133.566 192.396C134.336 193.292 135.575 193.74 137.283 193.74C137.885 193.74 138.466 193.691 139.026 193.593C139.586 193.495 140.083 193.362 140.517 193.194V188.889H136.905V187.713H142.008V194.139C141.602 194.405 141.007 194.65 140.223 194.874C139.453 195.098 138.438 195.21 137.178 195.21ZM23.539 219.21C22.083 219.21 20.872 218.937 19.906 218.391C18.954 217.831 18.24 217.054 17.764 216.06C17.288 215.052 17.05 213.876 17.05 212.532C17.05 211.062 17.274 209.781 17.722 208.689C18.17 207.597 18.87 206.757 19.822 206.169C20.774 205.567 22.006 205.266 23.518 205.266C24.302 205.266 25.009 205.322 25.639 205.434C26.283 205.546 26.885 205.7 27.445 205.896V207.408C26.885 207.198 26.29 207.037 25.66 206.925C25.03 206.799 24.365 206.736 23.665 206.736C22.447 206.736 21.481 206.967 20.767 207.429C20.053 207.891 19.542 208.556 19.234 209.424C18.926 210.292 18.772 211.328 18.772 212.532C18.772 214.198 19.157 215.486 19.927 216.396C20.697 217.292 21.936 217.74 23.644 217.74C24.246 217.74 24.827 217.691 25.387 217.593C25.947 217.495 26.444 217.362 26.878 217.194V212.889H23.266V211.713H28.369V218.139C27.963 218.405 27.368 218.65 26.584 218.874C25.814 219.098 24.799 219.21 23.539 219.21ZM35.3551 219.21C33.5771 219.21 32.2471 218.783 31.3651 217.929C30.4831 217.075 30.0421 215.759 30.0421 213.981C30.0421 212.385 30.4201 211.132 31.1761 210.222C31.9461 209.298 33.1571 208.836 34.8091 208.836C35.7891 208.836 36.5941 209.018 37.2241 209.382C37.8681 209.732 38.3441 210.222 38.6521 210.852C38.9741 211.468 39.1351 212.168 39.1351 212.952V214.821H31.7641C31.8201 215.577 31.9811 216.172 32.2471 216.606C32.5271 217.04 32.9401 217.355 33.4861 217.551C34.0461 217.733 34.7811 217.824 35.6911 217.824C36.7131 217.824 37.6511 217.649 38.5051 217.299V218.643C38.0711 218.825 37.5811 218.965 37.0351 219.063C36.5031 219.161 35.9431 219.21 35.3551 219.21ZM31.7641 213.582H37.6021V212.763C37.6021 211.951 37.3851 211.328 36.9511 210.894C36.5311 210.446 35.8311 210.222 34.8511 210.222C33.6611 210.222 32.8491 210.502 32.4151 211.062C31.9811 211.622 31.7641 212.462 31.7641 213.582ZM44.8724 219.21C43.8924 219.21 43.1504 218.951 42.6464 218.433C42.1564 217.901 41.9114 217.166 41.9114 216.228V210.411H40.3994V209.046H41.9114V206.589L43.6334 206.064V209.046H46.3844L46.2794 210.411H43.6334V216.144C43.6334 216.746 43.7664 217.18 44.0324 217.446C44.3124 217.698 44.7884 217.824 45.4604 217.824C45.8244 217.824 46.2234 217.754 46.6574 217.614V218.916C46.1394 219.112 45.5444 219.21 44.8724 219.21ZM52.6425 219V205.476H61.5045V206.841H54.3645V211.566H60.7275V212.91H54.3645V219H52.6425ZM62.2509 219V209.046H63.8049L63.9309 210.306C64.4209 209.984 64.9949 209.69 65.6529 209.424C66.3249 209.158 66.9829 208.962 67.6269 208.836V210.18C67.2349 210.264 66.8079 210.383 66.3459 210.537C65.8839 210.677 65.4429 210.838 65.0229 211.02C64.6029 211.202 64.2529 211.391 63.9729 211.587V219H62.2509ZM73.5735 219.21C71.7955 219.21 70.4655 218.783 69.5835 217.929C68.7015 217.075 68.2605 215.759 68.2605 213.981C68.2605 212.385 68.6385 211.132 69.3945 210.222C70.1645 209.298 71.3755 208.836 73.0275 208.836C74.0075 208.836 74.8125 209.018 75.4425 209.382C76.0865 209.732 76.5625 210.222 76.8705 210.852C77.1925 211.468 77.3535 212.168 77.3535 212.952V214.821H69.9825C70.0385 215.577 70.1995 216.172 70.4655 216.606C70.7455 217.04 71.1585 217.355 71.7045 217.551C72.2645 217.733 72.9995 217.824 73.9095 217.824C74.9315 217.824 75.8695 217.649 76.7235 217.299V218.643C76.2895 218.825 75.7995 218.965 75.2535 219.063C74.7215 219.161 74.1615 219.21 73.5735 219.21ZM69.9825 213.582H75.8205V212.763C75.8205 211.951 75.6035 211.328 75.1695 210.894C74.7495 210.446 74.0495 210.222 73.0695 210.222C71.8795 210.222 71.0675 210.502 70.6335 211.062C70.1995 211.622 69.9825 212.462 69.9825 213.582ZM84.3507 219.21C82.5727 219.21 81.2427 218.783 80.3607 217.929C79.4787 217.075 79.0377 215.759 79.0377 213.981C79.0377 212.385 79.4157 211.132 80.1717 210.222C80.9417 209.298 82.1527 208.836 83.8047 208.836C84.7847 208.836 85.5897 209.018 86.2197 209.382C86.8637 209.732 87.3397 210.222 87.6477 210.852C87.9697 211.468 88.1307 212.168 88.1307 212.952V214.821H80.7597C80.8157 215.577 80.9767 216.172 81.2427 216.606C81.5227 217.04 81.9357 217.355 82.4817 217.551C83.0417 217.733 83.7767 217.824 84.6867 217.824C85.7087 217.824 86.6467 217.649 87.5007 217.299V218.643C87.0667 218.825 86.5767 218.965 86.0307 219.063C85.4987 219.161 84.9387 219.21 84.3507 219.21ZM80.7597 213.582H86.5977V212.763C86.5977 211.951 86.3807 211.328 85.9467 210.894C85.5267 210.446 84.8267 210.222 83.8467 210.222C82.6567 210.222 81.8447 210.502 81.4107 211.062C80.9767 211.622 80.7597 212.462 80.7597 213.582ZM100.766 219V215.892H93.8148V214.59L100.955 205.476H102.488V214.485H103.916V215.892H102.488V219H100.766ZM95.5368 214.527H100.997V207.534L95.5368 214.527ZM111.665 219.21C110.209 219.21 108.998 218.937 108.032 218.391C107.08 217.831 106.366 217.054 105.89 216.06C105.414 215.052 105.176 213.876 105.176 212.532C105.176 211.062 105.4 209.781 105.848 208.689C106.296 207.597 106.996 206.757 107.948 206.169C108.9 205.567 110.132 205.266 111.644 205.266C112.428 205.266 113.135 205.322 113.765 205.434C114.409 205.546 115.011 205.7 115.571 205.896V207.408C115.011 207.198 114.416 207.037 113.786 206.925C113.156 206.799 112.491 206.736 111.791 206.736C110.573 206.736 109.607 206.967 108.893 207.429C108.179 207.891 107.668 208.556 107.36 209.424C107.052 210.292 106.898 211.328 106.898 212.532C106.898 214.198 107.283 215.486 108.053 216.396C108.823 217.292 110.062 217.74 111.77 217.74C112.372 217.74 112.953 217.691 113.513 217.593C114.073 217.495 114.57 217.362 115.004 217.194V212.889H111.392V211.713H116.495V218.139C116.089 218.405 115.494 218.65 114.71 218.874C113.94 219.098 112.925 219.21 111.665 219.21ZM118.588 219V205.476H124.846C126.176 205.476 127.149 205.791 127.765 206.421C128.395 207.037 128.71 207.912 128.71 209.046C128.71 209.788 128.556 210.411 128.248 210.915C127.954 211.405 127.541 211.776 127.009 212.028C127.695 212.196 128.234 212.525 128.626 213.015C129.032 213.491 129.235 214.198 129.235 215.136C129.235 216.452 128.892 217.425 128.206 218.055C127.52 218.685 126.512 219 125.182 219H118.588ZM120.31 211.398H124.741C125.595 211.398 126.197 211.195 126.547 210.789C126.911 210.369 127.093 209.83 127.093 209.172C127.093 208.388 126.911 207.8 126.547 207.408C126.183 207.002 125.476 206.799 124.426 206.799H120.31V211.398ZM120.31 217.698H124.888C125.798 217.698 126.463 217.502 126.883 217.11C127.303 216.704 127.513 216.025 127.513 215.073C127.513 214.289 127.303 213.701 126.883 213.309C126.477 212.903 125.721 212.7 124.615 212.7H120.31V217.698ZM135.754 219V205.476H141.046C143.006 205.476 144.441 206.008 145.351 207.072C146.261 208.136 146.716 209.886 146.716 212.322C146.716 214.632 146.268 216.326 145.372 217.404C144.49 218.468 143.048 219 141.046 219H135.754ZM137.476 217.656H140.731C141.683 217.656 142.474 217.516 143.104 217.236C143.734 216.942 144.203 216.41 144.511 215.64C144.833 214.87 144.994 213.764 144.994 212.322C144.994 210.894 144.847 209.781 144.553 208.983C144.273 208.185 143.818 207.632 143.188 207.324C142.572 207.002 141.753 206.841 140.731 206.841H137.476V217.656ZM151.587 219.21C150.957 219.21 150.376 219.098 149.844 218.874C149.312 218.65 148.885 218.321 148.563 217.887C148.241 217.439 148.08 216.879 148.08 216.207C148.08 215.297 148.381 214.555 148.983 213.981C149.585 213.393 150.565 213.099 151.923 213.099H155.388V212.49C155.388 211.944 155.311 211.51 155.157 211.188C155.017 210.866 154.744 210.635 154.338 210.495C153.932 210.355 153.337 210.285 152.553 210.285C151.951 210.285 151.37 210.334 150.81 210.432C150.25 210.53 149.725 210.663 149.235 210.831V209.403C149.683 209.235 150.208 209.102 150.81 209.004C151.426 208.892 152.084 208.836 152.784 208.836C154.198 208.836 155.255 209.123 155.955 209.697C156.669 210.271 157.026 211.202 157.026 212.49V219H155.577L155.451 217.866C155.017 218.314 154.492 218.65 153.876 218.874C153.26 219.098 152.497 219.21 151.587 219.21ZM152.028 217.803C152.756 217.803 153.4 217.677 153.96 217.425C154.52 217.159 154.996 216.802 155.388 216.354V214.422H151.965C151.181 214.422 150.621 214.569 150.285 214.863C149.949 215.157 149.781 215.605 149.781 216.207C149.781 216.809 149.984 217.229 150.39 217.467C150.796 217.691 151.342 217.803 152.028 217.803ZM163.074 219.21C162.094 219.21 161.352 218.951 160.848 218.433C160.358 217.901 160.113 217.166 160.113 216.228V210.411H158.601V209.046H160.113V206.589L161.835 206.064V209.046H164.586L164.481 210.411H161.835V216.144C161.835 216.746 161.968 217.18 162.234 217.446C162.514 217.698 162.99 217.824 163.662 217.824C164.026 217.824 164.425 217.754 164.859 217.614V218.916C164.341 219.112 163.746 219.21 163.074 219.21ZM169.512 219.21C168.882 219.21 168.301 219.098 167.769 218.874C167.237 218.65 166.81 218.321 166.488 217.887C166.166 217.439 166.005 216.879 166.005 216.207C166.005 215.297 166.306 214.555 166.908 213.981C167.51 213.393 168.49 213.099 169.848 213.099H173.313V212.49C173.313 211.944 173.236 211.51 173.082 211.188C172.942 210.866 172.669 210.635 172.263 210.495C171.857 210.355 171.262 210.285 170.478 210.285C169.876 210.285 169.295 210.334 168.735 210.432C168.175 210.53 167.65 210.663 167.16 210.831V209.403C167.608 209.235 168.133 209.102 168.735 209.004C169.351 208.892 170.009 208.836 170.709 208.836C172.123 208.836 173.18 209.123 173.88 209.697C174.594 210.271 174.951 211.202 174.951 212.49V219H173.502L173.376 217.866C172.942 218.314 172.417 218.65 171.801 218.874C171.185 219.098 170.422 219.21 169.512 219.21ZM169.953 217.803C170.681 217.803 171.325 217.677 171.885 217.425C172.445 217.159 172.921 216.802 173.313 216.354V214.422H169.89C169.106 214.422 168.546 214.569 168.21 214.863C167.874 215.157 167.706 215.605 167.706 216.207C167.706 216.809 167.909 217.229 168.315 217.467C168.721 217.691 169.267 217.803 169.953 217.803Z" fill="white"/>
<rect x="16" y="151" width="51" height="18" rx="9" fill="white"/>
<path d="M24.9236 165L28.3676 155.984H30.0756L33.4916 165H31.9236L31.0276 162.676H27.4016L26.5056 165H24.9236ZM27.6396 161.5H30.7756L29.2076 157.37L27.6396 161.5ZM34.6363 156.978V155.718H36.3023V156.978H34.6363ZM34.7623 165V159.526H33.7543L33.8943 158.364H36.2883V165H34.7623ZM38.0685 165V158.364H39.4685L39.5525 159.134C39.8699 158.929 40.2479 158.742 40.6865 158.574C41.1252 158.406 41.5592 158.289 41.9885 158.224V159.386C41.7272 159.433 41.4425 159.503 41.1345 159.596C40.8359 159.68 40.5512 159.778 40.2805 159.89C40.0099 159.993 39.7812 160.1 39.5945 160.212V165H38.0685ZM45.6338 165.14C44.9244 165.14 44.3924 164.953 44.0378 164.58C43.6924 164.197 43.5198 163.679 43.5198 163.026V159.554H42.5398V158.364H43.5198V156.838L45.0318 156.376V158.364H46.7958L46.6978 159.554H45.0318V162.942C45.0318 163.325 45.1204 163.595 45.2978 163.754C45.4751 163.903 45.7644 163.978 46.1658 163.978C46.4178 163.978 46.6838 163.931 46.9638 163.838V164.916C46.5998 165.065 46.1564 165.14 45.6338 165.14ZM51.491 165.14C50.3337 165.14 49.4377 164.855 48.803 164.286C48.1684 163.717 47.851 162.844 47.851 161.668C47.851 160.604 48.1217 159.764 48.663 159.148C49.2044 158.532 50.0257 158.224 51.127 158.224C52.135 158.224 52.891 158.49 53.395 159.022C53.9084 159.545 54.165 160.221 54.165 161.052V162.284H49.307C49.3817 162.928 49.615 163.371 50.007 163.614C50.399 163.857 50.9964 163.978 51.799 163.978C52.135 163.978 52.4804 163.945 52.835 163.88C53.1897 163.815 53.4977 163.731 53.759 163.628V164.748C53.4604 164.879 53.115 164.977 52.723 165.042C52.3404 165.107 51.9297 165.14 51.491 165.14ZM49.307 161.29H52.821V160.828C52.821 160.371 52.695 160.016 52.443 159.764C52.191 159.503 51.7664 159.372 51.169 159.372C50.4597 159.372 49.9697 159.526 49.699 159.834C49.4377 160.142 49.307 160.627 49.307 161.29ZM57.3026 165.14C56.7612 165.14 56.3506 165.009 56.0706 164.748C55.7906 164.477 55.6506 164.034 55.6506 163.418V155.564H57.1766V163.278C57.1766 163.539 57.2232 163.717 57.3166 163.81C57.4099 163.903 57.5499 163.95 57.7366 163.95C57.9606 163.95 58.1752 163.922 58.3806 163.866V164.972C58.2032 165.037 58.0306 165.079 57.8626 165.098C57.7039 165.126 57.5172 165.14 57.3026 165.14Z" fill="#ED1D24"/>
</g>
<defs>
<clipPath id="clip0_4689_59923">
<rect width="200" height="248" rx="12" fill="white"/>
</clipPath>
</defs>
</svg>
