<svg width="200" height="248" viewBox="0 0 200 248" fill="none" xmlns="http://www.w3.org/2000/svg">
<g clip-path="url(#clip0_4857_71800)">
<rect width="200" height="248" rx="12" fill="#00FFFF"/>
<rect width="200" height="160" fill="#00FFFF"/>
<path fill-rule="evenodd" clip-rule="evenodd" d="M113.712 75.568C126.311 75.568 136.053 65.5474 136.053 53.3029C136.053 41.0583 126.02 31.1136 113.637 31.0251C103.439 30.962 95.4277 31.0378 81.8058 31.0378C80.0114 31.0378 78.4698 32.2635 78.0654 33.982L76.1447 42.3851C76.0815 42.7011 76.2964 43.0043 76.6123 43.0422L99.029 45.9865L104.955 46.7826C110.73 47.5407 114.749 51.6096 114.622 57.1569C114.521 61.7818 111.337 65.7496 106.775 66.7984C100.154 68.3021 94.2146 63.4119 94.1009 57.0811C94.0756 55.0846 94.6316 53.2018 95.6172 51.6096L75.1717 48.9181C74.8937 48.8802 74.6284 49.0571 74.5652 49.3351L66.8697 83.0613C66.8065 83.3772 67.0213 83.6805 67.3373 83.7184L98.6752 87.8252L102.062 88.2674C108.797 89.1772 114.129 94.0927 113.927 100.878C113.75 106.678 109.403 111.645 103.603 112.58C95.9837 113.805 89.3117 108.068 89.1727 100.702C89.1222 97.7952 90.1078 95.1036 91.7758 92.9681L65.8967 89.5942C65.6187 89.5563 65.3534 89.7332 65.2902 90.0112L59.25 116.535C57.8474 122.625 62.5228 128.489 68.841 128.514C75.4876 128.527 100.267 128.501 113.434 128.501C128.231 128.501 140.109 116.648 140.109 102.016C140.109 87.3829 128.446 75.5301 113.712 75.5301V75.568Z" fill="#000100"/>
<path d="M0 160H200V236C200 242.627 194.627 248 188 248H12C5.37258 248 0 242.627 0 236V160Z" fill="#00FFFF"/>
<path d="M17.47 195V181.476H26.605V182.841H19.192V187.566H25.849V188.91H19.192V193.656H26.605V195H17.47ZM28.6984 195V185.046H30.2524L30.3574 186.18C30.8334 185.788 31.3864 185.466 32.0164 185.214C32.6604 184.962 33.3954 184.836 34.2214 184.836C35.4814 184.836 36.3984 185.13 36.9724 185.718C37.5464 186.306 37.8334 187.23 37.8334 188.49V195H36.1114V188.553C36.1114 187.685 35.9364 187.083 35.5864 186.747C35.2364 186.397 34.5644 186.222 33.5704 186.222C32.9544 186.222 32.3734 186.334 31.8274 186.558C31.2814 186.782 30.8124 187.09 30.4204 187.482V195H28.6984ZM40.9423 182.715V181.14H42.8533V182.715H40.9423ZM39.8083 199.914C39.1083 199.914 38.4853 199.816 37.9393 199.62V198.255C38.1773 198.325 38.4013 198.374 38.6113 198.402C38.8353 198.444 39.0383 198.465 39.2203 198.465C39.9763 198.465 40.4803 198.339 40.7323 198.087C40.9983 197.835 41.1313 197.415 41.1313 196.827V186.411H39.5983L39.7663 185.046H42.8533V196.974C42.8533 197.87 42.5943 198.584 42.0763 199.116C41.5583 199.648 40.8023 199.914 39.8083 199.914ZM49.9291 195.21C48.1931 195.21 46.9261 194.769 46.1281 193.887C45.3441 192.991 44.9521 191.703 44.9521 190.023C44.9521 188.357 45.3511 187.076 46.1491 186.18C46.9471 185.284 48.2071 184.836 49.9291 184.836C51.6511 184.836 52.9111 185.284 53.7091 186.18C54.5071 187.076 54.9061 188.357 54.9061 190.023C54.9061 191.703 54.5141 192.991 53.7301 193.887C52.9461 194.769 51.6791 195.21 49.9291 195.21ZM49.9291 193.74C51.1191 193.74 51.9591 193.446 52.4491 192.858C52.9391 192.256 53.1841 191.311 53.1841 190.023C53.1841 188.735 52.9321 187.797 52.4281 187.209C51.9381 186.607 51.1051 186.306 49.9291 186.306C48.7531 186.306 47.9131 186.607 47.4091 187.209C46.9191 187.797 46.6741 188.735 46.6741 190.023C46.6741 191.311 46.9191 192.256 47.4091 192.858C47.8991 193.446 48.7391 193.74 49.9291 193.74ZM57.7313 198.696C57.0733 198.696 56.4993 198.605 56.0093 198.423V197.037C56.2473 197.121 56.4643 197.177 56.6603 197.205C56.8703 197.233 57.0803 197.247 57.2903 197.247C57.7663 197.247 58.1373 197.163 58.4033 196.995C58.6833 196.827 58.9283 196.568 59.1383 196.218C59.3483 195.882 59.5793 195.441 59.8313 194.895L55.4423 185.046H57.2273L60.6923 193.068L64.2623 185.046H66.0263L61.8473 194.559C61.4973 195.357 61.1403 196.064 60.7763 196.68C60.4123 197.31 59.9923 197.8 59.5163 198.15C59.0403 198.514 58.4453 198.696 57.7313 198.696ZM75.6328 195.21C74.4428 195.21 73.5398 194.881 72.9238 194.223C72.3218 193.565 72.0208 192.606 72.0208 191.346V185.046H73.7428V191.409C73.7428 192.235 73.9458 192.844 74.3518 193.236C74.7718 193.628 75.4158 193.824 76.2838 193.824C76.8998 193.824 77.4808 193.712 78.0268 193.488C78.5728 193.264 79.0418 192.956 79.4338 192.564V185.046H81.1558V195H79.6018L79.4968 193.866C79.0208 194.258 78.4538 194.58 77.7958 194.832C77.1378 195.084 76.4168 195.21 75.6328 195.21ZM83.6823 195V185.046H85.2363L85.3413 186.18C85.8173 185.788 86.3703 185.466 87.0003 185.214C87.6443 184.962 88.3793 184.836 89.2053 184.836C90.4653 184.836 91.3823 185.13 91.9563 185.718C92.5303 186.306 92.8173 187.23 92.8173 188.49V195H91.0953V188.553C91.0953 187.685 90.9203 187.083 90.5703 186.747C90.2203 186.397 89.5483 186.222 88.5543 186.222C87.9383 186.222 87.3573 186.334 86.8113 186.558C86.2653 186.782 85.7963 187.09 85.4043 187.482V195H83.6823ZM97.4019 195.21C96.7299 195.21 96.1979 195.035 95.8059 194.685C95.4279 194.321 95.2389 193.712 95.2389 192.858V180.846H96.9609V192.669C96.9609 193.089 97.0309 193.376 97.1709 193.53C97.3109 193.684 97.5279 193.761 97.8219 193.761C98.1439 193.761 98.4589 193.719 98.7669 193.635V195C98.5429 195.084 98.3189 195.14 98.0949 195.168C97.8709 195.196 97.6399 195.21 97.4019 195.21ZM100.542 182.715V181.14H102.453V182.715H100.542ZM100.71 195V186.411H99.1772L99.3452 185.046H102.432V195H100.71ZM104.981 195V185.046H106.535L106.64 186.18C107.172 185.76 107.732 185.431 108.32 185.193C108.922 184.955 109.566 184.836 110.252 184.836C110.994 184.836 111.568 184.955 111.974 185.193C112.394 185.431 112.702 185.767 112.898 186.201C113.374 185.809 113.92 185.487 114.536 185.235C115.152 184.969 115.887 184.836 116.741 184.836C117.875 184.836 118.715 185.13 119.261 185.718C119.821 186.292 120.101 187.181 120.101 188.385V195H118.4V188.553C118.4 187.671 118.211 187.062 117.833 186.726C117.469 186.39 116.874 186.222 116.048 186.222C115.502 186.222 114.977 186.313 114.473 186.495C113.983 186.677 113.563 186.957 113.213 187.335C113.297 187.685 113.339 188.091 113.339 188.553V195H111.722V188.595C111.722 187.755 111.582 187.153 111.302 186.789C111.022 186.411 110.469 186.222 109.643 186.222C109.083 186.222 108.544 186.348 108.026 186.6C107.522 186.838 107.074 187.139 106.682 187.503V195H104.981ZM122.835 182.715V181.14H124.746V182.715H122.835ZM123.003 195V186.411H121.47L121.638 185.046H124.725V195H123.003ZM130.907 195.21C129.927 195.21 129.185 194.951 128.681 194.433C128.191 193.901 127.946 193.166 127.946 192.228V186.411H126.434V185.046H127.946V182.589L129.668 182.064V185.046H132.419L132.314 186.411H129.668V192.144C129.668 192.746 129.801 193.18 130.067 193.446C130.347 193.698 130.823 193.824 131.495 193.824C131.859 193.824 132.258 193.754 132.692 193.614V194.916C132.174 195.112 131.579 195.21 130.907 195.21ZM139.15 195.21C137.372 195.21 136.042 194.783 135.16 193.929C134.278 193.075 133.837 191.759 133.837 189.981C133.837 188.385 134.215 187.132 134.971 186.222C135.741 185.298 136.952 184.836 138.604 184.836C139.584 184.836 140.389 185.018 141.019 185.382C141.663 185.732 142.139 186.222 142.447 186.852C142.769 187.468 142.93 188.168 142.93 188.952V190.821H135.559C135.615 191.577 135.776 192.172 136.042 192.606C136.322 193.04 136.735 193.355 137.281 193.551C137.841 193.733 138.576 193.824 139.486 193.824C140.508 193.824 141.446 193.649 142.3 193.299V194.643C141.866 194.825 141.376 194.965 140.83 195.063C140.298 195.161 139.738 195.21 139.15 195.21ZM135.559 189.582H141.397V188.763C141.397 187.951 141.18 187.328 140.746 186.894C140.326 186.446 139.626 186.222 138.646 186.222C137.456 186.222 136.644 186.502 136.21 187.062C135.776 187.622 135.559 188.462 135.559 189.582ZM149.108 195.21C147.708 195.21 146.609 194.825 145.811 194.055C145.013 193.271 144.614 191.976 144.614 190.17C144.614 188.378 145.027 187.041 145.853 186.159C146.693 185.277 147.813 184.836 149.213 184.836C150.459 184.836 151.537 185.151 152.447 185.781V180.846H154.169V195H152.699L152.573 193.95C152.111 194.384 151.6 194.706 151.04 194.916C150.494 195.112 149.85 195.21 149.108 195.21ZM149.549 193.824C150.123 193.824 150.655 193.726 151.145 193.53C151.635 193.334 152.069 193.033 152.447 192.627V187.209C152.097 186.901 151.684 186.663 151.208 186.495C150.732 186.313 150.193 186.222 149.591 186.222C148.485 186.222 147.666 186.544 147.134 187.188C146.602 187.818 146.336 188.812 146.336 190.17C146.336 191.472 146.581 192.41 147.071 192.984C147.561 193.544 148.387 193.824 149.549 193.824ZM21.544 219.21C20.144 219.21 19.045 218.825 18.247 218.055C17.449 217.271 17.05 215.976 17.05 214.17C17.05 212.378 17.463 211.041 18.289 210.159C19.129 209.277 20.249 208.836 21.649 208.836C22.895 208.836 23.973 209.151 24.883 209.781V204.846H26.605V219H25.135L25.009 217.95C24.547 218.384 24.036 218.706 23.476 218.916C22.93 219.112 22.286 219.21 21.544 219.21ZM21.985 217.824C22.559 217.824 23.091 217.726 23.581 217.53C24.071 217.334 24.505 217.033 24.883 216.627V211.209C24.533 210.901 24.12 210.663 23.644 210.495C23.168 210.313 22.629 210.222 22.027 210.222C20.921 210.222 20.102 210.544 19.57 211.188C19.038 211.818 18.772 212.812 18.772 214.17C18.772 215.472 19.017 216.41 19.507 216.984C19.997 217.544 20.823 217.824 21.985 217.824ZM33.481 219.21C31.745 219.21 30.478 218.769 29.68 217.887C28.896 216.991 28.504 215.703 28.504 214.023C28.504 212.357 28.903 211.076 29.701 210.18C30.499 209.284 31.759 208.836 33.481 208.836C35.203 208.836 36.463 209.284 37.261 210.18C38.059 211.076 38.458 212.357 38.458 214.023C38.458 215.703 38.066 216.991 37.282 217.887C36.498 218.769 35.231 219.21 33.481 219.21ZM33.481 217.74C34.671 217.74 35.511 217.446 36.001 216.858C36.491 216.256 36.736 215.311 36.736 214.023C36.736 212.735 36.484 211.797 35.98 211.209C35.49 210.607 34.657 210.306 33.481 210.306C32.305 210.306 31.465 210.607 30.961 211.209C30.471 211.797 30.226 212.735 30.226 214.023C30.226 215.311 30.471 216.256 30.961 216.858C31.451 217.446 32.291 217.74 33.481 217.74ZM41.8033 219L39.1993 209.046H40.9213L42.8743 217.047L45.1003 210.201V209.046H46.4233L48.8803 217.047L50.8333 209.046H52.5553L49.9513 219H48.2293L45.8983 211.776L43.5253 219H41.8033ZM54.1289 219V209.046H55.6829L55.7879 210.18C56.2639 209.788 56.8169 209.466 57.4469 209.214C58.0909 208.962 58.8259 208.836 59.6519 208.836C60.9119 208.836 61.8289 209.13 62.4029 209.718C62.9769 210.306 63.2639 211.23 63.2639 212.49V219H61.5419V212.553C61.5419 211.685 61.3669 211.083 61.0169 210.747C60.6669 210.397 59.9949 210.222 59.0009 210.222C58.3849 210.222 57.8039 210.334 57.2579 210.558C56.7119 210.782 56.2429 211.09 55.8509 211.482V219H54.1289ZM67.8485 219.21C67.1765 219.21 66.6445 219.035 66.2525 218.685C65.8745 218.321 65.6855 217.712 65.6855 216.858V204.846H67.4075V216.669C67.4075 217.089 67.4775 217.376 67.6175 217.53C67.7575 217.684 67.9745 217.761 68.2685 217.761C68.5905 217.761 68.9055 217.719 69.2135 217.635V219C68.9895 219.084 68.7655 219.14 68.5415 219.168C68.3175 219.196 68.0865 219.21 67.8485 219.21ZM75.3391 219.21C73.6031 219.21 72.3361 218.769 71.5381 217.887C70.7541 216.991 70.3621 215.703 70.3621 214.023C70.3621 212.357 70.7611 211.076 71.5591 210.18C72.3571 209.284 73.6171 208.836 75.3391 208.836C77.0611 208.836 78.3211 209.284 79.1191 210.18C79.9171 211.076 80.3161 212.357 80.3161 214.023C80.3161 215.703 79.9241 216.991 79.1401 217.887C78.3561 218.769 77.0891 219.21 75.3391 219.21ZM75.3391 217.74C76.5291 217.74 77.3691 217.446 77.8591 216.858C78.3491 216.256 78.5941 215.311 78.5941 214.023C78.5941 212.735 78.3421 211.797 77.8381 211.209C77.3481 210.607 76.5151 210.306 75.3391 210.306C74.1631 210.306 73.3231 210.607 72.8191 211.209C72.3291 211.797 72.0841 212.735 72.0841 214.023C72.0841 215.311 72.3291 216.256 72.8191 216.858C73.3091 217.446 74.1491 217.74 75.3391 217.74ZM85.4052 219.21C84.7752 219.21 84.1942 219.098 83.6622 218.874C83.1302 218.65 82.7032 218.321 82.3812 217.887C82.0592 217.439 81.8982 216.879 81.8982 216.207C81.8982 215.297 82.1992 214.555 82.8012 213.981C83.4032 213.393 84.3832 213.099 85.7412 213.099H89.2062V212.49C89.2062 211.944 89.1292 211.51 88.9752 211.188C88.8352 210.866 88.5622 210.635 88.1562 210.495C87.7502 210.355 87.1552 210.285 86.3712 210.285C85.7692 210.285 85.1882 210.334 84.6282 210.432C84.0682 210.53 83.5432 210.663 83.0532 210.831V209.403C83.5012 209.235 84.0262 209.102 84.6282 209.004C85.2442 208.892 85.9022 208.836 86.6022 208.836C88.0162 208.836 89.0732 209.123 89.7732 209.697C90.4872 210.271 90.8442 211.202 90.8442 212.49V219H89.3952L89.2692 217.866C88.8352 218.314 88.3102 218.65 87.6942 218.874C87.0782 219.098 86.3152 219.21 85.4052 219.21ZM85.8462 217.803C86.5742 217.803 87.2182 217.677 87.7782 217.425C88.3382 217.159 88.8142 216.802 89.2062 216.354V214.422H85.7832C84.9992 214.422 84.4392 214.569 84.1032 214.863C83.7672 215.157 83.5992 215.605 83.5992 216.207C83.5992 216.809 83.8022 217.229 84.2082 217.467C84.6142 217.691 85.1602 217.803 85.8462 217.803ZM97.3335 219.21C95.9335 219.21 94.8345 218.825 94.0365 218.055C93.2385 217.271 92.8395 215.976 92.8395 214.17C92.8395 212.378 93.2525 211.041 94.0785 210.159C94.9185 209.277 96.0385 208.836 97.4385 208.836C98.6845 208.836 99.7625 209.151 100.672 209.781V204.846H102.394V219H100.924L100.798 217.95C100.336 218.384 99.8255 218.706 99.2655 218.916C98.7195 219.112 98.0755 219.21 97.3335 219.21ZM97.7745 217.824C98.3485 217.824 98.8805 217.726 99.3705 217.53C99.8605 217.334 100.294 217.033 100.672 216.627V211.209C100.322 210.901 99.9095 210.663 99.4335 210.495C98.9575 210.313 98.4185 210.222 97.8165 210.222C96.7105 210.222 95.8915 210.544 95.3595 211.188C94.8275 211.818 94.5615 212.812 94.5615 214.17C94.5615 215.472 94.8065 216.41 95.2965 216.984C95.7865 217.544 96.6125 217.824 97.7745 217.824ZM108.048 219.21C107.404 219.21 106.788 219.168 106.2 219.084C105.626 219 105.143 218.888 104.751 218.748V217.236C105.227 217.404 105.724 217.53 106.242 217.614C106.774 217.698 107.299 217.74 107.817 217.74C108.699 217.74 109.329 217.649 109.707 217.467C110.085 217.271 110.274 216.914 110.274 216.396C110.274 216.018 110.169 215.731 109.959 215.535C109.763 215.339 109.455 215.164 109.035 215.01C108.629 214.856 108.104 214.674 107.46 214.464C106.886 214.268 106.375 214.065 105.927 213.855C105.479 213.645 105.129 213.365 104.877 213.015C104.625 212.651 104.499 212.168 104.499 211.566C104.499 210.684 104.807 210.012 105.423 209.55C106.039 209.074 107.033 208.836 108.405 208.836C108.937 208.836 109.448 208.878 109.938 208.962C110.428 209.032 110.855 209.123 111.219 209.235V210.747C110.337 210.453 109.49 210.306 108.678 210.306C107.81 210.306 107.18 210.397 106.788 210.579C106.41 210.747 106.221 211.069 106.221 211.545C106.221 211.867 106.305 212.126 106.473 212.322C106.655 212.504 106.928 212.665 107.292 212.805C107.67 212.931 108.153 213.092 108.741 213.288C109.511 213.526 110.134 213.771 110.61 214.023C111.086 214.275 111.436 214.583 111.66 214.947C111.884 215.311 111.996 215.787 111.996 216.375C111.996 217.355 111.653 218.076 110.967 218.538C110.281 218.986 109.308 219.21 108.048 219.21ZM119.167 219V210.411H117.676V209.046H119.167V207.597C119.167 206.645 119.426 205.896 119.944 205.35C120.476 204.79 121.253 204.51 122.275 204.51C122.639 204.51 122.968 204.538 123.262 204.594C123.57 204.65 123.85 204.727 124.102 204.825V206.127C123.668 205.973 123.206 205.896 122.716 205.896C122.002 205.896 121.519 206.029 121.267 206.295C121.015 206.547 120.889 206.981 120.889 207.597V209.046H123.577L123.493 210.411H120.889V219H119.167ZM129.339 219.21C127.603 219.21 126.336 218.769 125.538 217.887C124.754 216.991 124.362 215.703 124.362 214.023C124.362 212.357 124.761 211.076 125.559 210.18C126.357 209.284 127.617 208.836 129.339 208.836C131.061 208.836 132.321 209.284 133.119 210.18C133.917 211.076 134.316 212.357 134.316 214.023C134.316 215.703 133.924 216.991 133.14 217.887C132.356 218.769 131.089 219.21 129.339 219.21ZM129.339 217.74C130.529 217.74 131.369 217.446 131.859 216.858C132.349 216.256 132.594 215.311 132.594 214.023C132.594 212.735 132.342 211.797 131.838 211.209C131.348 210.607 130.515 210.306 129.339 210.306C128.163 210.306 127.323 210.607 126.819 211.209C126.329 211.797 126.084 212.735 126.084 214.023C126.084 215.311 126.329 216.256 126.819 216.858C127.309 217.446 128.149 217.74 129.339 217.74ZM136.42 219V209.046H137.974L138.1 210.306C138.59 209.984 139.164 209.69 139.822 209.424C140.494 209.158 141.152 208.962 141.796 208.836V210.18C141.404 210.264 140.977 210.383 140.515 210.537C140.053 210.677 139.612 210.838 139.192 211.02C138.772 211.202 138.422 211.391 138.142 211.587V219H136.42ZM150.767 219.21C150.137 219.21 149.556 219.098 149.024 218.874C148.492 218.65 148.065 218.321 147.743 217.887C147.421 217.439 147.26 216.879 147.26 216.207C147.26 215.297 147.561 214.555 148.163 213.981C148.765 213.393 149.745 213.099 151.103 213.099H154.568V212.49C154.568 211.944 154.491 211.51 154.337 211.188C154.197 210.866 153.924 210.635 153.518 210.495C153.112 210.355 152.517 210.285 151.733 210.285C151.131 210.285 150.55 210.334 149.99 210.432C149.43 210.53 148.905 210.663 148.415 210.831V209.403C148.863 209.235 149.388 209.102 149.99 209.004C150.606 208.892 151.264 208.836 151.964 208.836C153.378 208.836 154.435 209.123 155.135 209.697C155.849 210.271 156.206 211.202 156.206 212.49V219H154.757L154.631 217.866C154.197 218.314 153.672 218.65 153.056 218.874C152.44 219.098 151.677 219.21 150.767 219.21ZM151.208 217.803C151.936 217.803 152.58 217.677 153.14 217.425C153.7 217.159 154.176 216.802 154.568 216.354V214.422H151.145C150.361 214.422 149.801 214.569 149.465 214.863C149.129 215.157 148.961 215.605 148.961 216.207C148.961 216.809 149.164 217.229 149.57 217.467C149.976 217.691 150.522 217.803 151.208 217.803ZM158.201 219V217.551H159.755V219H158.201ZM161.432 219V217.551H162.986V219H161.432ZM164.662 219V217.551H166.216V219H164.662Z" fill="#000100"/>
<rect x="16" y="151" width="81" height="18" rx="9" fill="#000100"/>
<path d="M25.1027 165V155.984H29.4707C30.3667 155.984 31.0294 156.194 31.4587 156.614C31.888 157.034 32.1027 157.627 32.1027 158.392C32.1027 158.877 32.0047 159.288 31.8087 159.624C31.6127 159.951 31.3514 160.198 31.0247 160.366C31.4634 160.487 31.8087 160.707 32.0607 161.024C32.322 161.332 32.4527 161.789 32.4527 162.396C32.4527 163.273 32.2147 163.927 31.7387 164.356C31.272 164.785 30.5814 165 29.6667 165H25.1027ZM26.6287 159.834H29.2607C29.774 159.834 30.138 159.717 30.3527 159.484C30.5767 159.241 30.6887 158.919 30.6887 158.518C30.6887 158.051 30.5767 157.706 30.3527 157.482C30.1287 157.249 29.7087 157.132 29.0927 157.132H26.6287V159.834ZM26.6287 163.88H29.3447C29.886 163.88 30.2827 163.768 30.5347 163.544C30.7867 163.311 30.9127 162.909 30.9127 162.34C30.9127 161.873 30.7867 161.528 30.5347 161.304C30.292 161.071 29.844 160.954 29.1907 160.954H26.6287V163.88ZM37.1127 165.14C35.9181 165.14 35.0407 164.841 34.4807 164.244C33.9301 163.647 33.6547 162.793 33.6547 161.682C33.6547 160.571 33.9347 159.717 34.4947 159.12C35.0547 158.523 35.9274 158.224 37.1127 158.224C38.3074 158.224 39.1847 158.523 39.7447 159.12C40.3047 159.717 40.5847 160.571 40.5847 161.682C40.5847 162.793 40.3047 163.647 39.7447 164.244C39.1941 164.841 38.3167 165.14 37.1127 165.14ZM37.1127 163.852C37.8127 163.852 38.3074 163.684 38.5967 163.348C38.8954 163.003 39.0447 162.447 39.0447 161.682C39.0447 160.917 38.8954 160.366 38.5967 160.03C38.3074 159.694 37.8127 159.526 37.1127 159.526C36.4221 159.526 35.9274 159.694 35.6287 160.03C35.3394 160.366 35.1947 160.917 35.1947 161.682C35.1947 162.447 35.3394 163.003 35.6287 163.348C35.9274 163.684 36.4221 163.852 37.1127 163.852ZM45.2475 165.14C44.0528 165.14 43.1755 164.841 42.6155 164.244C42.0648 163.647 41.7895 162.793 41.7895 161.682C41.7895 160.571 42.0695 159.717 42.6295 159.12C43.1895 158.523 44.0622 158.224 45.2475 158.224C46.4422 158.224 47.3195 158.523 47.8795 159.12C48.4395 159.717 48.7195 160.571 48.7195 161.682C48.7195 162.793 48.4395 163.647 47.8795 164.244C47.3288 164.841 46.4515 165.14 45.2475 165.14ZM45.2475 163.852C45.9475 163.852 46.4422 163.684 46.7315 163.348C47.0302 163.003 47.1795 162.447 47.1795 161.682C47.1795 160.917 47.0302 160.366 46.7315 160.03C46.4422 159.694 45.9475 159.526 45.2475 159.526C44.5568 159.526 44.0622 159.694 43.7635 160.03C43.4742 160.366 43.3295 160.917 43.3295 161.682C43.3295 162.447 43.4742 163.003 43.7635 163.348C44.0622 163.684 44.5568 163.852 45.2475 163.852ZM50.2043 165V158.364H51.6043L51.6743 159.064C52.0009 158.803 52.3603 158.597 52.7523 158.448C53.1443 158.299 53.5643 158.224 54.0123 158.224C54.4883 158.224 54.8569 158.303 55.1183 158.462C55.3889 158.611 55.5943 158.821 55.7343 159.092C56.0423 158.84 56.3969 158.635 56.7983 158.476C57.1996 158.308 57.6803 158.224 58.2403 158.224C59.0056 158.224 59.5703 158.42 59.9343 158.812C60.2983 159.204 60.4803 159.806 60.4803 160.618V165H58.9823V160.772C58.9823 160.259 58.8749 159.899 58.6603 159.694C58.4456 159.489 58.0956 159.386 57.6103 159.386C57.2929 159.386 56.9896 159.442 56.7003 159.554C56.4203 159.666 56.1776 159.834 55.9723 160.058C56.0003 160.161 56.0189 160.268 56.0283 160.38C56.0376 160.492 56.0423 160.613 56.0423 160.744V165H54.6283V160.786C54.6283 160.301 54.5443 159.946 54.3763 159.722C54.2083 159.498 53.8909 159.386 53.4243 159.386C53.0976 159.386 52.7849 159.465 52.4863 159.624C52.1969 159.773 51.9356 159.955 51.7023 160.17V165H50.2043ZM62.1945 168.024V158.364H63.5105L63.5945 159.022C63.8932 158.751 64.2198 158.551 64.5745 158.42C64.9292 158.289 65.3492 158.224 65.8345 158.224C66.7865 158.224 67.5285 158.485 68.0605 159.008C68.5925 159.521 68.8585 160.375 68.8585 161.57C68.8585 162.765 68.5832 163.661 68.0325 164.258C67.4818 164.846 66.7305 165.14 65.7785 165.14C64.9758 165.14 64.2898 164.953 63.7205 164.58V168.024H62.1945ZM65.3865 163.992C66.6745 163.992 67.3185 163.18 67.3185 161.556C67.3185 160.772 67.1738 160.217 66.8845 159.89C66.5952 159.554 66.1098 159.386 65.4285 159.386C64.7472 159.386 64.1778 159.619 63.7205 160.086V163.404C63.9352 163.581 64.1732 163.726 64.4345 163.838C64.7052 163.941 65.0225 163.992 65.3865 163.992ZM71.9949 165.14C71.4536 165.14 71.0429 165.009 70.7629 164.748C70.4829 164.477 70.3429 164.034 70.3429 163.418V155.564H71.8689V163.278C71.8689 163.539 71.9156 163.717 72.0089 163.81C72.1023 163.903 72.2423 163.95 72.4289 163.95C72.6529 163.95 72.8676 163.922 73.0729 163.866V164.972C72.8956 165.037 72.7229 165.079 72.5549 165.098C72.3963 165.126 72.2096 165.14 71.9949 165.14ZM76.3388 165.14C75.9188 165.14 75.5268 165.065 75.1628 164.916C74.8081 164.767 74.5234 164.543 74.3088 164.244C74.0941 163.936 73.9868 163.558 73.9868 163.11C73.9868 162.475 74.2014 161.967 74.6308 161.584C75.0694 161.192 75.7414 160.996 76.6468 160.996H78.7748V160.702C78.7748 160.385 78.7234 160.133 78.6208 159.946C78.5274 159.759 78.3501 159.624 78.0888 159.54C77.8368 159.456 77.4634 159.414 76.9688 159.414C76.1848 159.414 75.4521 159.531 74.7708 159.764V158.63C75.0694 158.509 75.4334 158.411 75.8628 158.336C76.2921 158.261 76.7541 158.224 77.2488 158.224C78.2194 158.224 78.9568 158.42 79.4608 158.812C79.9741 159.204 80.2308 159.843 80.2308 160.73V165H78.9288L78.8308 164.328C78.5601 164.589 78.2241 164.79 77.8228 164.93C77.4308 165.07 76.9361 165.14 76.3388 165.14ZM76.7448 164.048C77.2021 164.048 77.5988 163.973 77.9348 163.824C78.2801 163.665 78.5601 163.455 78.7748 163.194V162.032H76.6748C76.2268 162.032 75.9001 162.121 75.6948 162.298C75.4988 162.466 75.4008 162.727 75.4008 163.082C75.4008 163.427 75.5174 163.675 75.7508 163.824C75.9841 163.973 76.3154 164.048 76.7448 164.048ZM82.7921 167.464C82.2881 167.464 81.8588 167.399 81.5041 167.268V166.134C81.6628 166.19 81.8074 166.227 81.9381 166.246C82.0781 166.265 82.2181 166.274 82.3581 166.274C82.6474 166.274 82.8808 166.227 83.0581 166.134C83.2354 166.041 83.3894 165.891 83.5201 165.686C83.6601 165.49 83.8094 165.233 83.9681 164.916L81.0141 158.364H82.5961L84.7241 163.292L86.8801 158.364H88.4481L85.7461 164.622C85.5128 165.182 85.2608 165.672 84.9901 166.092C84.7288 166.521 84.4208 166.857 84.0661 167.1C83.7208 167.343 83.2961 167.464 82.7921 167.464Z" fill="#00FFFF"/>
</g>
<defs>
<clipPath id="clip0_4857_71800">
<rect width="200" height="248" rx="12" fill="white"/>
</clipPath>
</defs>
</svg>
