<svg width="200" height="248" viewBox="0 0 200 248" fill="none" xmlns="http://www.w3.org/2000/svg">
<g clip-path="url(#clip0_4855_71782)">
<rect width="200" height="248" rx="12" fill="#FFEB00"/>
<rect width="200" height="160" fill="#0DAACB"/>
<rect width="160" height="160" transform="translate(20)" fill="#0DAACB"/>
<path d="M76.4903 120.199H49.4238L84.0088 76.5923L67.4682 39H94.5346L109.572 76.5923L76.4903 120.199Z" fill="#FFEB00"/>
<path d="M117.09 120.199H90.0234L124.608 76.5923L108.068 39H135.134L150.171 76.5923L117.09 120.199Z" fill="#FFEB00"/>
<path d="M0 160H200V236C200 242.627 194.627 248 188 248H12C5.37258 248 0 242.627 0 236V160Z" fill="#FFEB00"/>
<path d="M20.662 194.18C19.222 194.18 18.058 194 17.17 193.64V192.326C17.674 192.518 18.208 192.668 18.772 192.776C19.348 192.872 19.936 192.92 20.536 192.92C21.568 192.92 22.342 192.782 22.858 192.506C23.374 192.218 23.632 191.708 23.632 190.976C23.632 190.52 23.524 190.16 23.308 189.896C23.104 189.62 22.762 189.392 22.282 189.212C21.802 189.02 21.16 188.828 20.356 188.636C19.084 188.324 18.19 187.922 17.674 187.43C17.158 186.926 16.9 186.254 16.9 185.414C16.9 184.43 17.254 183.656 17.962 183.092C18.67 182.516 19.75 182.228 21.202 182.228C21.874 182.228 22.498 182.276 23.074 182.372C23.65 182.468 24.094 182.57 24.406 182.678V183.974C23.974 183.818 23.506 183.698 23.002 183.614C22.498 183.53 21.976 183.488 21.436 183.488C20.452 183.488 19.696 183.632 19.168 183.92C18.64 184.208 18.376 184.706 18.376 185.414C18.376 185.81 18.466 186.134 18.646 186.386C18.838 186.626 19.156 186.836 19.6 187.016C20.044 187.184 20.662 187.364 21.454 187.556C22.402 187.784 23.14 188.06 23.668 188.384C24.196 188.696 24.568 189.068 24.784 189.5C25 189.932 25.108 190.424 25.108 190.976C25.108 191.996 24.736 192.788 23.992 193.352C23.248 193.904 22.138 194.18 20.662 194.18ZM31.096 194.18C29.572 194.18 28.432 193.814 27.676 193.082C26.92 192.35 26.542 191.222 26.542 189.698C26.542 188.33 26.866 187.256 27.514 186.476C28.174 185.684 29.212 185.288 30.628 185.288C31.468 185.288 32.158 185.444 32.698 185.756C33.25 186.056 33.658 186.476 33.922 187.016C34.198 187.544 34.336 188.144 34.336 188.816V190.418H28.018C28.066 191.066 28.204 191.576 28.432 191.948C28.672 192.32 29.026 192.59 29.494 192.758C29.974 192.914 30.604 192.992 31.384 192.992C32.26 192.992 33.064 192.842 33.796 192.542V193.694C33.424 193.85 33.004 193.97 32.536 194.054C32.08 194.138 31.6 194.18 31.096 194.18ZM28.018 189.356H33.022V188.654C33.022 187.958 32.836 187.424 32.464 187.052C32.104 186.668 31.504 186.476 30.664 186.476C29.644 186.476 28.948 186.716 28.576 187.196C28.204 187.676 28.018 188.396 28.018 189.356ZM36.1396 194V185.468H37.4716L37.5796 186.548C37.9996 186.272 38.4916 186.02 39.0556 185.792C39.6316 185.564 40.1956 185.396 40.7476 185.288V186.44C40.4116 186.512 40.0456 186.614 39.6496 186.746C39.2536 186.866 38.8756 187.004 38.5156 187.16C38.1556 187.316 37.8556 187.478 37.6156 187.646V194H36.1396ZM44.3575 194L41.0095 185.468H42.5395L45.1855 192.632L47.8315 185.468H49.3615L46.0135 194H44.3575ZM51.3468 183.47V182.12H52.9848V183.47H51.3468ZM51.4908 194V186.638H50.1768L50.3208 185.468H52.9668V194H51.4908ZM59.1834 194.18C57.6954 194.18 56.5914 193.796 55.8714 193.028C55.1514 192.248 54.7914 191.15 54.7914 189.734C54.7914 188.234 55.1994 187.118 56.0154 186.386C56.8314 185.654 57.9294 185.288 59.3094 185.288C59.8734 185.288 60.3414 185.33 60.7134 185.414C61.0854 185.486 61.4454 185.606 61.7934 185.774V186.944C61.1454 186.632 60.4074 186.476 59.5794 186.476C58.5234 186.476 57.7074 186.728 57.1314 187.232C56.5554 187.724 56.2674 188.558 56.2674 189.734C56.2674 190.862 56.5194 191.69 57.0234 192.218C57.5274 192.734 58.3614 192.992 59.5254 192.992C60.3534 192.992 61.1154 192.836 61.8114 192.524V193.712C61.4394 193.868 61.0374 193.982 60.6054 194.054C60.1854 194.138 59.7114 194.18 59.1834 194.18ZM67.2999 194.18C65.7759 194.18 64.6359 193.814 63.8799 193.082C63.1239 192.35 62.7459 191.222 62.7459 189.698C62.7459 188.33 63.0699 187.256 63.7179 186.476C64.3779 185.684 65.4159 185.288 66.8319 185.288C67.6719 185.288 68.3619 185.444 68.9019 185.756C69.4539 186.056 69.8619 186.476 70.1259 187.016C70.4019 187.544 70.5399 188.144 70.5399 188.816V190.418H64.2219C64.2699 191.066 64.4079 191.576 64.6359 191.948C64.8759 192.32 65.2299 192.59 65.6979 192.758C66.1779 192.914 66.8079 192.992 67.5879 192.992C68.4639 192.992 69.2679 192.842 69.9999 192.542V193.694C69.6279 193.85 69.2079 193.97 68.7399 194.054C68.2839 194.138 67.8039 194.18 67.2999 194.18ZM64.2219 189.356H69.2259V188.654C69.2259 187.958 69.0399 187.424 68.6679 187.052C68.3079 186.668 67.7079 186.476 66.8679 186.476C65.8479 186.476 65.1519 186.716 64.7799 187.196C64.4079 187.676 64.2219 188.396 64.2219 189.356ZM74.9376 194.18C74.3856 194.18 73.8576 194.144 73.3536 194.072C72.8616 194 72.4476 193.904 72.1116 193.784V192.488C72.5196 192.632 72.9456 192.74 73.3896 192.812C73.8456 192.884 74.2956 192.92 74.7396 192.92C75.4956 192.92 76.0356 192.842 76.3596 192.686C76.6836 192.518 76.8456 192.212 76.8456 191.768C76.8456 191.444 76.7556 191.198 76.5756 191.03C76.4076 190.862 76.1436 190.712 75.7836 190.58C75.4356 190.448 74.9856 190.292 74.4336 190.112C73.9416 189.944 73.5036 189.77 73.1196 189.59C72.7356 189.41 72.4356 189.17 72.2196 188.87C72.0036 188.558 71.8956 188.144 71.8956 187.628C71.8956 186.872 72.1596 186.296 72.6876 185.9C73.2156 185.492 74.0676 185.288 75.2436 185.288C75.6996 185.288 76.1376 185.324 76.5576 185.396C76.9776 185.456 77.3436 185.534 77.6556 185.63V186.926C76.8996 186.674 76.1736 186.548 75.4776 186.548C74.7336 186.548 74.1936 186.626 73.8576 186.782C73.5336 186.926 73.3716 187.202 73.3716 187.61C73.3716 187.886 73.4436 188.108 73.5876 188.276C73.7436 188.432 73.9776 188.57 74.2896 188.69C74.6136 188.798 75.0276 188.936 75.5316 189.104C76.1916 189.308 76.7256 189.518 77.1336 189.734C77.5416 189.95 77.8416 190.214 78.0336 190.526C78.2256 190.838 78.3216 191.246 78.3216 191.75C78.3216 192.59 78.0276 193.208 77.4396 193.604C76.8516 193.988 76.0176 194.18 74.9376 194.18ZM86.5926 194.18C86.0406 194.18 85.5126 194.144 85.0086 194.072C84.5166 194 84.1026 193.904 83.7666 193.784V192.488C84.1746 192.632 84.6006 192.74 85.0446 192.812C85.5006 192.884 85.9506 192.92 86.3946 192.92C87.1506 192.92 87.6906 192.842 88.0146 192.686C88.3386 192.518 88.5006 192.212 88.5006 191.768C88.5006 191.444 88.4106 191.198 88.2306 191.03C88.0626 190.862 87.7986 190.712 87.4386 190.58C87.0906 190.448 86.6406 190.292 86.0886 190.112C85.5966 189.944 85.1586 189.77 84.7746 189.59C84.3906 189.41 84.0906 189.17 83.8746 188.87C83.6586 188.558 83.5506 188.144 83.5506 187.628C83.5506 186.872 83.8146 186.296 84.3426 185.9C84.8706 185.492 85.7226 185.288 86.8986 185.288C87.3546 185.288 87.7926 185.324 88.2126 185.396C88.6326 185.456 88.9986 185.534 89.3106 185.63V186.926C88.5546 186.674 87.8286 186.548 87.1326 186.548C86.3886 186.548 85.8486 186.626 85.5126 186.782C85.1886 186.926 85.0266 187.202 85.0266 187.61C85.0266 187.886 85.0986 188.108 85.2426 188.276C85.3986 188.432 85.6326 188.57 85.9446 188.69C86.2686 188.798 86.6826 188.936 87.1866 189.104C87.8466 189.308 88.3806 189.518 88.7886 189.734C89.1966 189.95 89.4966 190.214 89.6886 190.526C89.8806 190.838 89.9766 191.246 89.9766 191.75C89.9766 192.59 89.6826 193.208 89.0946 193.604C88.5066 193.988 87.6726 194.18 86.5926 194.18ZM94.6275 194.18C93.7875 194.18 93.1515 193.958 92.7195 193.514C92.2995 193.058 92.0895 192.428 92.0895 191.624V186.638H90.7935V185.468H92.0895V183.362L93.5655 182.912V185.468H95.9235L95.8335 186.638H93.5655V191.552C93.5655 192.068 93.6795 192.44 93.9075 192.668C94.1475 192.884 94.5555 192.992 95.1315 192.992C95.4435 192.992 95.7855 192.932 96.1575 192.812V193.928C95.7135 194.096 95.2035 194.18 94.6275 194.18ZM100.145 194.18C99.6052 194.18 99.1072 194.084 98.6512 193.892C98.1952 193.7 97.8292 193.418 97.5532 193.046C97.2772 192.662 97.1392 192.182 97.1392 191.606C97.1392 190.826 97.3972 190.19 97.9132 189.698C98.4292 189.194 99.2692 188.942 100.433 188.942H103.403V188.42C103.403 187.952 103.337 187.58 103.205 187.304C103.085 187.028 102.851 186.83 102.503 186.71C102.155 186.59 101.645 186.53 100.973 186.53C100.457 186.53 99.9592 186.572 99.4792 186.656C98.9992 186.74 98.5492 186.854 98.1292 186.998V185.774C98.5132 185.63 98.9632 185.516 99.4792 185.432C100.007 185.336 100.571 185.288 101.171 185.288C102.383 185.288 103.289 185.534 103.889 186.026C104.501 186.518 104.807 187.316 104.807 188.42V194H103.565L103.457 193.028C103.085 193.412 102.635 193.7 102.107 193.892C101.579 194.084 100.925 194.18 100.145 194.18ZM100.523 192.974C101.147 192.974 101.699 192.866 102.179 192.65C102.659 192.422 103.067 192.116 103.403 191.732V190.076H100.469C99.7972 190.076 99.3172 190.202 99.0292 190.454C98.7412 190.706 98.5972 191.09 98.5972 191.606C98.5972 192.122 98.7712 192.482 99.1192 192.686C99.4672 192.878 99.9352 192.974 100.523 192.974ZM106.878 194V185.468H108.21L108.318 186.548C108.738 186.272 109.23 186.02 109.794 185.792C110.37 185.564 110.934 185.396 111.486 185.288V186.44C111.15 186.512 110.784 186.614 110.388 186.746C109.992 186.866 109.614 187.004 109.254 187.16C108.894 187.316 108.594 187.478 108.354 187.646V194H106.878ZM115.854 194.18C115.014 194.18 114.378 193.958 113.946 193.514C113.526 193.058 113.316 192.428 113.316 191.624V186.638H112.02V185.468H113.316V183.362L114.792 182.912V185.468H117.15L117.06 186.638H114.792V191.552C114.792 192.068 114.906 192.44 115.134 192.668C115.374 192.884 115.782 192.992 116.358 192.992C116.67 192.992 117.012 192.932 117.384 192.812V193.928C116.94 194.096 116.43 194.18 115.854 194.18ZM123.072 194V186.638H121.794V185.468H123.072V184.226C123.072 183.41 123.294 182.768 123.738 182.3C124.194 181.82 124.86 181.58 125.736 181.58C126.048 181.58 126.33 181.604 126.582 181.652C126.846 181.7 127.086 181.766 127.302 181.85V182.966C126.93 182.834 126.534 182.768 126.114 182.768C125.502 182.768 125.088 182.882 124.872 183.11C124.656 183.326 124.548 183.698 124.548 184.226V185.468H126.852L126.78 186.638H124.548V194H123.072ZM128.061 194V185.468H129.393L129.501 186.548C129.921 186.272 130.413 186.02 130.977 185.792C131.553 185.564 132.117 185.396 132.669 185.288V186.44C132.333 186.512 131.967 186.614 131.571 186.746C131.175 186.866 130.797 187.004 130.437 187.16C130.077 187.316 129.777 187.478 129.537 187.646V194H128.061ZM137.478 194.18C135.99 194.18 134.904 193.802 134.22 193.046C133.548 192.278 133.212 191.174 133.212 189.734C133.212 188.306 133.554 187.208 134.238 186.44C134.922 185.672 136.002 185.288 137.478 185.288C138.954 185.288 140.034 185.672 140.718 186.44C141.402 187.208 141.744 188.306 141.744 189.734C141.744 191.174 141.408 192.278 140.736 193.046C140.064 193.802 138.978 194.18 137.478 194.18ZM137.478 192.92C138.498 192.92 139.218 192.668 139.638 192.164C140.058 191.648 140.268 190.838 140.268 189.734C140.268 188.63 140.052 187.826 139.62 187.322C139.2 186.806 138.486 186.548 137.478 186.548C136.47 186.548 135.75 186.806 135.318 187.322C134.898 187.826 134.688 188.63 134.688 189.734C134.688 190.838 134.898 191.648 135.318 192.164C135.738 192.668 136.458 192.92 137.478 192.92ZM143.548 194V185.468H144.88L144.97 186.44C145.426 186.08 145.906 185.798 146.41 185.594C146.926 185.39 147.478 185.288 148.066 185.288C148.702 185.288 149.194 185.39 149.542 185.594C149.902 185.798 150.166 186.086 150.334 186.458C150.742 186.122 151.21 185.846 151.738 185.63C152.266 185.402 152.896 185.288 153.628 185.288C154.6 185.288 155.32 185.54 155.788 186.044C156.268 186.536 156.508 187.298 156.508 188.33V194H155.05V188.474C155.05 187.718 154.888 187.196 154.564 186.908C154.252 186.62 153.742 186.476 153.034 186.476C152.566 186.476 152.116 186.554 151.684 186.71C151.264 186.866 150.904 187.106 150.604 187.43C150.676 187.73 150.712 188.078 150.712 188.474V194H149.326V188.51C149.326 187.79 149.206 187.274 148.966 186.962C148.726 186.638 148.252 186.476 147.544 186.476C147.064 186.476 146.602 186.584 146.158 186.8C145.726 187.004 145.342 187.262 145.006 187.574V194H143.548ZM165.02 194.18C164.48 194.18 163.982 194.084 163.526 193.892C163.07 193.7 162.704 193.418 162.428 193.046C162.152 192.662 162.014 192.182 162.014 191.606C162.014 190.826 162.272 190.19 162.788 189.698C163.304 189.194 164.144 188.942 165.308 188.942H168.278V188.42C168.278 187.952 168.212 187.58 168.08 187.304C167.96 187.028 167.726 186.83 167.378 186.71C167.03 186.59 166.52 186.53 165.848 186.53C165.332 186.53 164.834 186.572 164.354 186.656C163.874 186.74 163.424 186.854 163.004 186.998V185.774C163.388 185.63 163.838 185.516 164.354 185.432C164.882 185.336 165.446 185.288 166.046 185.288C167.258 185.288 168.164 185.534 168.764 186.026C169.376 186.518 169.682 187.316 169.682 188.42V194H168.44L168.332 193.028C167.96 193.412 167.51 193.7 166.982 193.892C166.454 194.084 165.8 194.18 165.02 194.18ZM165.398 192.974C166.022 192.974 166.574 192.866 167.054 192.65C167.534 192.422 167.942 192.116 168.278 191.732V190.076H165.344C164.672 190.076 164.192 190.202 163.904 190.454C163.616 190.706 163.472 191.09 163.472 191.606C163.472 192.122 163.646 192.482 163.994 192.686C164.342 192.878 164.81 192.974 165.398 192.974ZM174.435 194.18C173.883 194.18 173.355 194.144 172.851 194.072C172.359 194 171.945 193.904 171.609 193.784V192.488C172.017 192.632 172.443 192.74 172.887 192.812C173.343 192.884 173.793 192.92 174.237 192.92C174.993 192.92 175.533 192.842 175.857 192.686C176.181 192.518 176.343 192.212 176.343 191.768C176.343 191.444 176.253 191.198 176.073 191.03C175.905 190.862 175.641 190.712 175.281 190.58C174.933 190.448 174.483 190.292 173.931 190.112C173.439 189.944 173.001 189.77 172.617 189.59C172.233 189.41 171.933 189.17 171.717 188.87C171.501 188.558 171.393 188.144 171.393 187.628C171.393 186.872 171.657 186.296 172.185 185.9C172.713 185.492 173.565 185.288 174.741 185.288C175.197 185.288 175.635 185.324 176.055 185.396C176.475 185.456 176.841 185.534 177.153 185.63V186.926C176.397 186.674 175.671 186.548 174.975 186.548C174.231 186.548 173.691 186.626 173.355 186.782C173.031 186.926 172.869 187.202 172.869 187.61C172.869 187.886 172.941 188.108 173.085 188.276C173.241 188.432 173.475 188.57 173.787 188.69C174.111 188.798 174.525 188.936 175.029 189.104C175.689 189.308 176.223 189.518 176.631 189.734C177.039 189.95 177.339 190.214 177.531 190.526C177.723 190.838 177.819 191.246 177.819 191.75C177.819 192.59 177.525 193.208 176.937 193.604C176.349 193.988 175.515 194.18 174.435 194.18ZM19.114 218.18C18.538 218.18 18.082 218.03 17.746 217.73C17.422 217.418 17.26 216.896 17.26 216.164V205.868H18.736V216.002C18.736 216.362 18.796 216.608 18.916 216.74C19.036 216.872 19.222 216.938 19.474 216.938C19.75 216.938 20.02 216.902 20.284 216.83V218C20.092 218.072 19.9 218.12 19.708 218.144C19.516 218.168 19.318 218.18 19.114 218.18ZM25.5345 218.18C24.0465 218.18 22.9605 217.802 22.2765 217.046C21.6045 216.278 21.2685 215.174 21.2685 213.734C21.2685 212.306 21.6105 211.208 22.2945 210.44C22.9785 209.672 24.0585 209.288 25.5345 209.288C27.0105 209.288 28.0905 209.672 28.7745 210.44C29.4585 211.208 29.8005 212.306 29.8005 213.734C29.8005 215.174 29.4645 216.278 28.7925 217.046C28.1205 217.802 27.0345 218.18 25.5345 218.18ZM25.5345 216.92C26.5545 216.92 27.2745 216.668 27.6945 216.164C28.1145 215.648 28.3245 214.838 28.3245 213.734C28.3245 212.63 28.1085 211.826 27.6765 211.322C27.2565 210.806 26.5425 210.548 25.5345 210.548C24.5265 210.548 23.8065 210.806 23.3745 211.322C22.9545 211.826 22.7445 212.63 22.7445 213.734C22.7445 214.838 22.9545 215.648 23.3745 216.164C23.7945 216.668 24.5145 216.92 25.5345 216.92ZM32.6679 218L30.4359 209.468H31.9119L33.5859 216.326L35.4939 210.458V209.468H36.6279L38.7339 216.326L40.4079 209.468H41.8839L39.6519 218H38.1759L36.1779 211.808L34.1439 218H32.6679ZM50.1242 218.18C49.5842 218.18 49.0862 218.084 48.6302 217.892C48.1742 217.7 47.8082 217.418 47.5322 217.046C47.2562 216.662 47.1182 216.182 47.1182 215.606C47.1182 214.826 47.3762 214.19 47.8922 213.698C48.4082 213.194 49.2482 212.942 50.4122 212.942H53.3822V212.42C53.3822 211.952 53.3162 211.58 53.1842 211.304C53.0642 211.028 52.8302 210.83 52.4822 210.71C52.1342 210.59 51.6242 210.53 50.9522 210.53C50.4362 210.53 49.9382 210.572 49.4582 210.656C48.9782 210.74 48.5282 210.854 48.1082 210.998V209.774C48.4922 209.63 48.9422 209.516 49.4582 209.432C49.9862 209.336 50.5502 209.288 51.1502 209.288C52.3622 209.288 53.2682 209.534 53.8682 210.026C54.4802 210.518 54.7862 211.316 54.7862 212.42V218H53.5442L53.4362 217.028C53.0642 217.412 52.6142 217.7 52.0862 217.892C51.5582 218.084 50.9042 218.18 50.1242 218.18ZM50.5022 216.974C51.1262 216.974 51.6782 216.866 52.1582 216.65C52.6382 216.422 53.0462 216.116 53.3822 215.732V214.076H50.4482C49.7762 214.076 49.2962 214.202 49.0082 214.454C48.7202 214.706 48.5762 215.09 48.5762 215.606C48.5762 216.122 48.7502 216.482 49.0982 216.686C49.4462 216.878 49.9142 216.974 50.5022 216.974ZM59.5385 218.18C58.9865 218.18 58.4585 218.144 57.9545 218.072C57.4625 218 57.0485 217.904 56.7125 217.784V216.488C57.1205 216.632 57.5465 216.74 57.9905 216.812C58.4465 216.884 58.8965 216.92 59.3405 216.92C60.0965 216.92 60.6365 216.842 60.9605 216.686C61.2845 216.518 61.4465 216.212 61.4465 215.768C61.4465 215.444 61.3565 215.198 61.1765 215.03C61.0085 214.862 60.7445 214.712 60.3845 214.58C60.0365 214.448 59.5865 214.292 59.0345 214.112C58.5425 213.944 58.1045 213.77 57.7205 213.59C57.3365 213.41 57.0365 213.17 56.8205 212.87C56.6045 212.558 56.4965 212.144 56.4965 211.628C56.4965 210.872 56.7605 210.296 57.2885 209.9C57.8165 209.492 58.6685 209.288 59.8445 209.288C60.3005 209.288 60.7385 209.324 61.1585 209.396C61.5785 209.456 61.9445 209.534 62.2565 209.63V210.926C61.5005 210.674 60.7745 210.548 60.0785 210.548C59.3345 210.548 58.7945 210.626 58.4585 210.782C58.1345 210.926 57.9725 211.202 57.9725 211.61C57.9725 211.886 58.0445 212.108 58.1885 212.276C58.3445 212.432 58.5785 212.57 58.8905 212.69C59.2145 212.798 59.6285 212.936 60.1325 213.104C60.7925 213.308 61.3265 213.518 61.7345 213.734C62.1425 213.95 62.4425 214.214 62.6345 214.526C62.8265 214.838 62.9225 215.246 62.9225 215.75C62.9225 216.59 62.6285 217.208 62.0405 217.604C61.4525 217.988 60.6185 218.18 59.5385 218.18ZM68.5115 218V206.408H69.9875V212.15L75.4055 206.408H77.1335L72.8135 211.052L77.2775 218H75.6935L71.8775 212.006L69.9875 214.004V218H68.5115ZM81.8543 218.18C80.4143 218.18 79.2503 218 78.3623 217.64V216.326C78.8663 216.518 79.4003 216.668 79.9643 216.776C80.5403 216.872 81.1283 216.92 81.7283 216.92C82.7603 216.92 83.5343 216.782 84.0503 216.506C84.5663 216.218 84.8243 215.708 84.8243 214.976C84.8243 214.52 84.7163 214.16 84.5003 213.896C84.2963 213.62 83.9543 213.392 83.4743 213.212C82.9943 213.02 82.3523 212.828 81.5483 212.636C80.2763 212.324 79.3823 211.922 78.8663 211.43C78.3503 210.926 78.0923 210.254 78.0923 209.414C78.0923 208.43 78.4463 207.656 79.1543 207.092C79.8623 206.516 80.9423 206.228 82.3943 206.228C83.0663 206.228 83.6903 206.276 84.2663 206.372C84.8423 206.468 85.2863 206.57 85.5983 206.678V207.974C85.1663 207.818 84.6983 207.698 84.1943 207.614C83.6903 207.53 83.1683 207.488 82.6283 207.488C81.6443 207.488 80.8883 207.632 80.3603 207.92C79.8323 208.208 79.5683 208.706 79.5683 209.414C79.5683 209.81 79.6583 210.134 79.8383 210.386C80.0303 210.626 80.3483 210.836 80.7923 211.016C81.2363 211.184 81.8543 211.364 82.6463 211.556C83.5943 211.784 84.3323 212.06 84.8603 212.384C85.3883 212.696 85.7603 213.068 85.9763 213.5C86.1923 213.932 86.3003 214.424 86.3003 214.976C86.3003 215.996 85.9283 216.788 85.1843 217.352C84.4403 217.904 83.3303 218.18 81.8543 218.18ZM88.0942 218V205.868H89.5702V210.386C89.9662 210.062 90.4282 209.798 90.9562 209.594C91.4962 209.39 92.1202 209.288 92.8282 209.288C93.8602 209.288 94.6342 209.54 95.1502 210.044C95.6662 210.548 95.9242 211.34 95.9242 212.42V218H94.4482V212.474C94.4482 211.73 94.2802 211.214 93.9442 210.926C93.6202 210.626 93.0802 210.476 92.3242 210.476C91.8442 210.476 91.3462 210.584 90.8302 210.8C90.3262 211.004 89.9062 211.274 89.5702 211.61V218H88.0942ZM97.6398 218V216.758H98.9718V218H97.6398ZM107.311 218.18C106.783 218.18 106.219 218.132 105.619 218.036C105.019 217.94 104.545 217.826 104.197 217.694V216.398C104.653 216.578 105.127 216.71 105.619 216.794C106.111 216.878 106.615 216.92 107.131 216.92C108.163 216.92 108.925 216.764 109.417 216.452C109.921 216.14 110.173 215.594 110.173 214.814C110.173 214.07 109.939 213.53 109.471 213.194C109.003 212.858 108.349 212.69 107.509 212.69H105.835L105.979 211.574H107.365C108.229 211.574 108.871 211.388 109.291 211.016C109.711 210.632 109.921 210.098 109.921 209.414C109.921 208.754 109.699 208.268 109.255 207.956C108.823 207.644 108.127 207.488 107.167 207.488C106.687 207.488 106.201 207.536 105.709 207.632C105.229 207.728 104.797 207.854 104.413 208.01V206.732C104.749 206.6 105.187 206.486 105.727 206.39C106.279 206.282 106.825 206.228 107.365 206.228C108.745 206.228 109.759 206.528 110.407 207.128C111.067 207.716 111.397 208.472 111.397 209.396C111.397 209.984 111.241 210.536 110.929 211.052C110.629 211.556 110.143 211.91 109.471 212.114C110.239 212.282 110.791 212.618 111.127 213.122C111.475 213.614 111.649 214.178 111.649 214.814C111.649 215.942 111.259 216.788 110.479 217.352C109.699 217.904 108.643 218.18 107.311 218.18ZM113.083 220.16L113.587 216.974H114.919L114.163 220.16H113.083ZM121.872 218V215.336H115.914V214.22L122.034 206.408H123.348V214.13H124.572V215.336H123.348V218H121.872ZM117.39 214.166H122.07V208.172L117.39 214.166ZM129.414 218.18C128.862 218.18 128.364 218.144 127.92 218.072C127.488 218.012 127.098 217.922 126.75 217.802V216.524C127.098 216.644 127.482 216.74 127.902 216.812C128.334 216.884 128.814 216.92 129.342 216.92C130.518 216.92 131.37 216.62 131.898 216.02C132.426 215.42 132.69 214.628 132.69 213.644V212.762C132.222 213.098 131.7 213.35 131.124 213.518C130.56 213.686 130.044 213.77 129.576 213.77C128.256 213.77 127.272 213.446 126.624 212.798C125.976 212.15 125.652 211.226 125.652 210.026C125.652 208.886 126 207.968 126.696 207.272C127.392 206.576 128.448 206.228 129.864 206.228C131.256 206.228 132.306 206.582 133.014 207.29C133.734 207.986 134.094 209.102 134.094 210.638V213.374C134.094 214.334 133.902 215.174 133.518 215.894C133.146 216.614 132.606 217.178 131.898 217.586C131.202 217.982 130.374 218.18 129.414 218.18ZM129.702 212.618C130.29 212.618 130.836 212.528 131.34 212.348C131.844 212.156 132.294 211.916 132.69 211.628V210.224C132.69 208.34 131.748 207.398 129.864 207.398C128.904 207.398 128.184 207.632 127.704 208.1C127.224 208.556 126.984 209.186 126.984 209.99C126.984 210.53 127.062 210.998 127.218 211.394C127.374 211.79 127.65 212.096 128.046 212.312C128.442 212.516 128.994 212.618 129.702 212.618ZM139.302 218.18C138.75 218.18 138.252 218.144 137.808 218.072C137.376 218.012 136.986 217.922 136.638 217.802V216.524C136.986 216.644 137.37 216.74 137.79 216.812C138.222 216.884 138.702 216.92 139.23 216.92C140.406 216.92 141.258 216.62 141.786 216.02C142.314 215.42 142.578 214.628 142.578 213.644V212.762C142.11 213.098 141.588 213.35 141.012 213.518C140.448 213.686 139.932 213.77 139.464 213.77C138.144 213.77 137.16 213.446 136.512 212.798C135.864 212.15 135.54 211.226 135.54 210.026C135.54 208.886 135.888 207.968 136.584 207.272C137.28 206.576 138.336 206.228 139.752 206.228C141.144 206.228 142.194 206.582 142.902 207.29C143.622 207.986 143.982 209.102 143.982 210.638V213.374C143.982 214.334 143.79 215.174 143.406 215.894C143.034 216.614 142.494 217.178 141.786 217.586C141.09 217.982 140.262 218.18 139.302 218.18ZM139.59 212.618C140.178 212.618 140.724 212.528 141.228 212.348C141.732 212.156 142.182 211.916 142.578 211.628V210.224C142.578 208.34 141.636 207.398 139.752 207.398C138.792 207.398 138.072 207.632 137.592 208.1C137.112 208.556 136.872 209.186 136.872 209.99C136.872 210.53 136.95 210.998 137.106 211.394C137.262 211.79 137.538 212.096 137.934 212.312C138.33 212.516 138.882 212.618 139.59 212.618Z" fill="black"/>
<rect x="16" y="151" width="61" height="18" rx="9" fill="#FFEB00"/>
<path d="M27.3186 165V157.174H24.4346V155.984H31.7146V157.174H28.8446V165H27.3186ZM34.9715 165.14C33.8142 165.14 32.9182 164.855 32.2835 164.286C31.6488 163.717 31.3315 162.844 31.3315 161.668C31.3315 160.604 31.6022 159.764 32.1435 159.148C32.6848 158.532 33.5062 158.224 34.6075 158.224C35.6155 158.224 36.3715 158.49 36.8755 159.022C37.3888 159.545 37.6455 160.221 37.6455 161.052V162.284H32.7875C32.8622 162.928 33.0955 163.371 33.4875 163.614C33.8795 163.857 34.4768 163.978 35.2795 163.978C35.6155 163.978 35.9608 163.945 36.3155 163.88C36.6702 163.815 36.9782 163.731 37.2395 163.628V164.748C36.9408 164.879 36.5955 164.977 36.2035 165.042C35.8208 165.107 35.4102 165.14 34.9715 165.14ZM32.7875 161.29H36.3015V160.828C36.3015 160.371 36.1755 160.016 35.9235 159.764C35.6715 159.503 35.2468 159.372 34.6495 159.372C33.9402 159.372 33.4502 159.526 33.1795 159.834C32.9182 160.142 32.7875 160.627 32.7875 161.29ZM40.783 165.14C40.2417 165.14 39.831 165.009 39.551 164.748C39.271 164.477 39.131 164.034 39.131 163.418V155.564H40.657V163.278C40.657 163.539 40.7037 163.717 40.797 163.81C40.8904 163.903 41.0304 163.95 41.217 163.95C41.441 163.95 41.6557 163.922 41.861 163.866V164.972C41.6837 165.037 41.511 165.079 41.343 165.098C41.1844 165.126 40.9977 165.14 40.783 165.14ZM43.0549 165V155.564H44.5809V161.024L47.3669 158.364H49.1169L46.4149 161.038L49.2709 165H47.6609L45.4629 161.85L44.5809 162.69V165H43.0549ZM52.8364 165.14C51.6417 165.14 50.7644 164.841 50.2044 164.244C49.6537 163.647 49.3784 162.793 49.3784 161.682C49.3784 160.571 49.6584 159.717 50.2184 159.12C50.7784 158.523 51.651 158.224 52.8364 158.224C54.031 158.224 54.9084 158.523 55.4684 159.12C56.0284 159.717 56.3084 160.571 56.3084 161.682C56.3084 162.793 56.0284 163.647 55.4684 164.244C54.9177 164.841 54.0404 165.14 52.8364 165.14ZM52.8364 163.852C53.5364 163.852 54.031 163.684 54.3204 163.348C54.619 163.003 54.7684 162.447 54.7684 161.682C54.7684 160.917 54.619 160.366 54.3204 160.03C54.031 159.694 53.5364 159.526 52.8364 159.526C52.1457 159.526 51.651 159.694 51.3524 160.03C51.063 160.366 50.9184 160.917 50.9184 161.682C50.9184 162.447 51.063 163.003 51.3524 163.348C51.651 163.684 52.1457 163.852 52.8364 163.852ZM57.7931 165V158.364H59.1931L59.2631 159.064C59.5898 158.803 59.9491 158.597 60.3411 158.448C60.7331 158.299 61.1531 158.224 61.6011 158.224C62.0771 158.224 62.4458 158.303 62.7071 158.462C62.9778 158.611 63.1831 158.821 63.3231 159.092C63.6311 158.84 63.9858 158.635 64.3871 158.476C64.7885 158.308 65.2691 158.224 65.8291 158.224C66.5945 158.224 67.1591 158.42 67.5231 158.812C67.8871 159.204 68.0691 159.806 68.0691 160.618V165H66.5711V160.772C66.5711 160.259 66.4638 159.899 66.2491 159.694C66.0345 159.489 65.6845 159.386 65.1991 159.386C64.8818 159.386 64.5785 159.442 64.2891 159.554C64.0091 159.666 63.7665 159.834 63.5611 160.058C63.5891 160.161 63.6078 160.268 63.6171 160.38C63.6265 160.492 63.6311 160.613 63.6311 160.744V165H62.2171V160.786C62.2171 160.301 62.1331 159.946 61.9651 159.722C61.7971 159.498 61.4798 159.386 61.0131 159.386C60.6865 159.386 60.3738 159.465 60.0751 159.624C59.7858 159.773 59.5245 159.955 59.2911 160.17V165H57.7931Z" fill="black"/>
</g>
<defs>
<clipPath id="clip0_4855_71782">
<rect width="200" height="248" rx="12" fill="white"/>
</clipPath>
</defs>
</svg>
