<svg width="200" height="248" viewBox="0 0 200 248" fill="none" xmlns="http://www.w3.org/2000/svg">
<g clip-path="url(#clip0_4857_71787)">
<rect width="200" height="248" rx="12" fill="#EE3023"/>
<rect width="200" height="160" fill="#A238FF"/>
<path fill-rule="evenodd" clip-rule="evenodd" d="M133.709 44.4091C134.643 38.993 136.015 35.5872 137.534 35.5807H137.537C140.369 35.5904 142.665 47.4018 142.665 61.9847C142.665 76.5677 140.366 88.3886 137.53 88.3886C136.368 88.3886 135.295 86.3815 134.432 83.0179C133.067 95.3306 130.235 103.795 126.956 103.795C124.419 103.795 122.143 98.7102 120.614 90.6918C119.571 105.941 116.944 116.761 113.874 116.761C111.947 116.761 110.191 112.473 108.89 105.492C107.327 119.903 103.714 130 99.5011 130C95.2882 130 91.6689 119.906 90.1118 105.492C88.8208 112.473 87.0643 116.761 85.128 116.761C82.0582 116.761 79.4379 105.941 78.3878 90.6918C76.8594 98.7102 74.5891 103.795 72.0459 103.795C68.7705 103.795 65.9351 95.3335 64.5704 83.0179C63.713 86.3913 62.6341 88.3886 61.4716 88.3886C58.6362 88.3886 56.337 76.5677 56.337 61.9847C56.337 47.4018 58.6362 35.5807 61.4716 35.5807C62.9937 35.5807 64.3552 38.9962 65.2993 44.4091C66.8117 35.07 69.2682 29 72.0459 29C75.3437 29 78.2016 37.5845 79.5535 50.0497C80.8765 40.9773 82.8834 35.1936 85.1312 35.1936C88.2814 35.1936 90.9593 46.5691 91.9516 62.4368C93.8172 54.3013 96.518 49.1974 99.5076 49.1974C102.497 49.1974 105.198 54.3045 107.06 62.4368C108.056 46.5691 110.73 35.1936 113.881 35.1936C116.125 35.1936 118.129 40.9773 119.458 50.0497C120.807 37.5845 123.665 29 126.963 29C129.731 29 132.197 35.0732 133.709 44.4091ZM49 59.3877C49 52.8688 50.3037 47.5828 51.9125 47.5828C53.5213 47.5828 54.825 52.8688 54.825 59.3877C54.825 65.9064 53.5213 71.1927 51.9125 71.1927C50.3037 71.1927 49 65.9064 49 59.3877ZM144.175 59.3877C144.175 52.8688 145.479 47.5828 147.088 47.5828C148.696 47.5828 150 52.8688 150 59.3877C150 65.9064 148.696 71.1927 147.088 71.1927C145.479 71.1927 144.175 65.9064 144.175 59.3877Z" fill="white"/>
<path d="M0 160H200V236C200 242.627 194.627 248 188 248H12C5.37258 248 0 242.627 0 236V160Z" fill="#A238FF"/>
<path d="M19.192 195V182.946L17.05 183.324V181.875L20.914 181.266V195H19.192ZM27.8478 195V181.476H29.6958L34.2738 190.863L38.8518 181.476H40.6998V195H38.9988V184.164L34.8618 192.648H33.7068L29.5488 184.164V195H27.8478ZM47.7758 195.21C46.0398 195.21 44.7728 194.769 43.9748 193.887C43.1908 192.991 42.7988 191.703 42.7988 190.023C42.7988 188.357 43.1978 187.076 43.9958 186.18C44.7938 185.284 46.0538 184.836 47.7758 184.836C49.4978 184.836 50.7578 185.284 51.5558 186.18C52.3538 187.076 52.7528 188.357 52.7528 190.023C52.7528 191.703 52.3608 192.991 51.5768 193.887C50.7928 194.769 49.5258 195.21 47.7758 195.21ZM47.7758 193.74C48.9658 193.74 49.8058 193.446 50.2958 192.858C50.7858 192.256 51.0308 191.311 51.0308 190.023C51.0308 188.735 50.7788 187.797 50.2748 187.209C49.7848 186.607 48.9518 186.306 47.7758 186.306C46.5998 186.306 45.7598 186.607 45.2558 187.209C44.7658 187.797 44.5208 188.735 44.5208 190.023C44.5208 191.311 44.7658 192.256 45.2558 192.858C45.7458 193.446 46.5858 193.74 47.7758 193.74ZM54.8574 195V185.046H56.4114L56.5164 186.18C56.9924 185.788 57.5454 185.466 58.1754 185.214C58.8194 184.962 59.5544 184.836 60.3804 184.836C61.6404 184.836 62.5574 185.13 63.1314 185.718C63.7054 186.306 63.9924 187.23 63.9924 188.49V195H62.2704V188.553C62.2704 187.685 62.0954 187.083 61.7454 186.747C61.3954 186.397 60.7234 186.222 59.7294 186.222C59.1134 186.222 58.5324 186.334 57.9864 186.558C57.4404 186.782 56.9714 187.09 56.5794 187.482V195H54.8574ZM70.0469 195.21C69.0669 195.21 68.3249 194.951 67.8209 194.433C67.3309 193.901 67.0859 193.166 67.0859 192.228V186.411H65.5739V185.046H67.0859V182.589L68.8079 182.064V185.046H71.5589L71.4539 186.411H68.8079V192.144C68.8079 192.746 68.9409 193.18 69.2069 193.446C69.4869 193.698 69.9629 193.824 70.6349 193.824C70.9989 193.824 71.3979 193.754 71.8319 193.614V194.916C71.3139 195.112 70.7189 195.21 70.0469 195.21ZM73.3973 195V180.846H75.1193V186.117C75.5813 185.739 76.1203 185.431 76.7363 185.193C77.3663 184.955 78.0943 184.836 78.9203 184.836C80.1243 184.836 81.0273 185.13 81.6293 185.718C82.2313 186.306 82.5323 187.23 82.5323 188.49V195H80.8103V188.553C80.8103 187.685 80.6143 187.083 80.2223 186.747C79.8443 186.397 79.2143 186.222 78.3323 186.222C77.7723 186.222 77.1913 186.348 76.5893 186.6C76.0013 186.838 75.5113 187.153 75.1193 187.545V195H73.3973ZM90.0247 195V186.411H88.5337V185.046H90.0247V183.597C90.0247 182.645 90.2837 181.896 90.8017 181.35C91.3337 180.79 92.1107 180.51 93.1327 180.51C93.4967 180.51 93.8257 180.538 94.1197 180.594C94.4277 180.65 94.7077 180.727 94.9597 180.825V182.127C94.5257 181.973 94.0637 181.896 93.5737 181.896C92.8597 181.896 92.3767 182.029 92.1247 182.295C91.8727 182.547 91.7467 182.981 91.7467 183.597V185.046H94.4347L94.3507 186.411H91.7467V195H90.0247ZM95.8443 195V185.046H97.3983L97.5243 186.306C98.0143 185.984 98.5883 185.69 99.2463 185.424C99.9183 185.158 100.576 184.962 101.22 184.836V186.18C100.828 186.264 100.401 186.383 99.9393 186.537C99.4773 186.677 99.0363 186.838 98.6163 187.02C98.1963 187.202 97.8463 187.391 97.5663 187.587V195H95.8443ZM107.167 195.21C105.389 195.21 104.059 194.783 103.177 193.929C102.295 193.075 101.854 191.759 101.854 189.981C101.854 188.385 102.232 187.132 102.988 186.222C103.758 185.298 104.969 184.836 106.621 184.836C107.601 184.836 108.406 185.018 109.036 185.382C109.68 185.732 110.156 186.222 110.464 186.852C110.786 187.468 110.947 188.168 110.947 188.952V190.821H103.576C103.632 191.577 103.793 192.172 104.059 192.606C104.339 193.04 104.752 193.355 105.298 193.551C105.858 193.733 106.593 193.824 107.503 193.824C108.525 193.824 109.463 193.649 110.317 193.299V194.643C109.883 194.825 109.393 194.965 108.847 195.063C108.315 195.161 107.755 195.21 107.167 195.21ZM103.576 189.582H109.414V188.763C109.414 187.951 109.197 187.328 108.763 186.894C108.343 186.446 107.643 186.222 106.663 186.222C105.473 186.222 104.661 186.502 104.227 187.062C103.793 187.622 103.576 188.462 103.576 189.582ZM117.944 195.21C116.166 195.21 114.836 194.783 113.954 193.929C113.072 193.075 112.631 191.759 112.631 189.981C112.631 188.385 113.009 187.132 113.765 186.222C114.535 185.298 115.746 184.836 117.398 184.836C118.378 184.836 119.183 185.018 119.813 185.382C120.457 185.732 120.933 186.222 121.241 186.852C121.563 187.468 121.724 188.168 121.724 188.952V190.821H114.353C114.409 191.577 114.57 192.172 114.836 192.606C115.116 193.04 115.529 193.355 116.075 193.551C116.635 193.733 117.37 193.824 118.28 193.824C119.302 193.824 120.24 193.649 121.094 193.299V194.643C120.66 194.825 120.17 194.965 119.624 195.063C119.092 195.161 118.532 195.21 117.944 195.21ZM114.353 189.582H120.191V188.763C120.191 187.951 119.974 187.328 119.54 186.894C119.12 186.446 118.42 186.222 117.44 186.222C116.25 186.222 115.438 186.502 115.004 187.062C114.57 187.622 114.353 188.462 114.353 189.582ZM17.47 223.536V209.046H18.94L19.066 210.096C19.528 209.662 20.032 209.347 20.578 209.151C21.138 208.941 21.789 208.836 22.531 208.836C23.931 208.836 25.03 209.228 25.828 210.012C26.626 210.782 27.025 212.07 27.025 213.876C27.025 215.668 26.626 217.005 25.828 217.887C25.03 218.769 23.924 219.21 22.51 219.21C21.208 219.21 20.102 218.895 19.192 218.265V223.536H17.47ZM22.048 217.824C23.168 217.824 23.987 217.509 24.505 216.879C25.037 216.235 25.303 215.234 25.303 213.876C25.303 212.574 25.058 211.643 24.568 211.083C24.078 210.509 23.252 210.222 22.09 210.222C21.516 210.222 20.984 210.32 20.494 210.516C20.004 210.712 19.57 211.013 19.192 211.419V216.837C19.542 217.145 19.955 217.39 20.431 217.572C20.907 217.74 21.446 217.824 22.048 217.824ZM29.1291 219V209.046H30.6831L30.8091 210.306C31.2991 209.984 31.8731 209.69 32.5311 209.424C33.2031 209.158 33.8611 208.962 34.5051 208.836V210.18C34.1131 210.264 33.6861 210.383 33.2241 210.537C32.7621 210.677 32.3211 210.838 31.9011 211.02C31.4811 211.202 31.1311 211.391 30.8511 211.587V219H29.1291ZM40.4517 219.21C38.6737 219.21 37.3437 218.783 36.4617 217.929C35.5797 217.075 35.1387 215.759 35.1387 213.981C35.1387 212.385 35.5167 211.132 36.2727 210.222C37.0427 209.298 38.2537 208.836 39.9057 208.836C40.8857 208.836 41.6907 209.018 42.3207 209.382C42.9647 209.732 43.4407 210.222 43.7487 210.852C44.0707 211.468 44.2317 212.168 44.2317 212.952V214.821H36.8607C36.9167 215.577 37.0777 216.172 37.3437 216.606C37.6237 217.04 38.0367 217.355 38.5827 217.551C39.1427 217.733 39.8777 217.824 40.7877 217.824C41.8097 217.824 42.7477 217.649 43.6017 217.299V218.643C43.1677 218.825 42.6777 218.965 42.1317 219.063C41.5997 219.161 41.0397 219.21 40.4517 219.21ZM36.8607 213.582H42.6987V212.763C42.6987 211.951 42.4817 211.328 42.0477 210.894C41.6277 210.446 40.9277 210.222 39.9477 210.222C38.7577 210.222 37.9457 210.502 37.5117 211.062C37.0777 211.622 36.8607 212.462 36.8607 213.582ZM46.336 219V209.046H47.89L47.995 210.18C48.527 209.76 49.087 209.431 49.675 209.193C50.277 208.955 50.921 208.836 51.607 208.836C52.349 208.836 52.923 208.955 53.329 209.193C53.749 209.431 54.057 209.767 54.253 210.201C54.729 209.809 55.275 209.487 55.891 209.235C56.507 208.969 57.242 208.836 58.096 208.836C59.23 208.836 60.07 209.13 60.616 209.718C61.176 210.292 61.456 211.181 61.456 212.385V219H59.755V212.553C59.755 211.671 59.566 211.062 59.188 210.726C58.824 210.39 58.229 210.222 57.403 210.222C56.857 210.222 56.332 210.313 55.828 210.495C55.338 210.677 54.918 210.957 54.568 211.335C54.652 211.685 54.694 212.091 54.694 212.553V219H53.077V212.595C53.077 211.755 52.937 211.153 52.657 210.789C52.377 210.411 51.824 210.222 50.998 210.222C50.438 210.222 49.899 210.348 49.381 210.6C48.877 210.838 48.429 211.139 48.037 211.503V219H46.336ZM64.1901 206.715V205.14H66.1011V206.715H64.1901ZM64.3581 219V210.411H62.8251L62.9931 209.046H66.0801V219H64.3581ZM72.1358 219.21C70.9458 219.21 70.0428 218.881 69.4268 218.223C68.8248 217.565 68.5238 216.606 68.5238 215.346V209.046H70.2458V215.409C70.2458 216.235 70.4488 216.844 70.8548 217.236C71.2748 217.628 71.9188 217.824 72.7868 217.824C73.4028 217.824 73.9838 217.712 74.5298 217.488C75.0758 217.264 75.5448 216.956 75.9368 216.564V209.046H77.6588V219H76.1048L75.9998 217.866C75.5238 218.258 74.9568 218.58 74.2988 218.832C73.6408 219.084 72.9198 219.21 72.1358 219.21ZM80.1854 219V209.046H81.7394L81.8444 210.18C82.3764 209.76 82.9364 209.431 83.5244 209.193C84.1264 208.955 84.7704 208.836 85.4564 208.836C86.1984 208.836 86.7724 208.955 87.1784 209.193C87.5984 209.431 87.9064 209.767 88.1024 210.201C88.5784 209.809 89.1244 209.487 89.7404 209.235C90.3564 208.969 91.0914 208.836 91.9454 208.836C93.0794 208.836 93.9194 209.13 94.4654 209.718C95.0254 210.292 95.3054 211.181 95.3054 212.385V219H93.6044V212.553C93.6044 211.671 93.4154 211.062 93.0374 210.726C92.6734 210.39 92.0784 210.222 91.2524 210.222C90.7064 210.222 90.1814 210.313 89.6774 210.495C89.1874 210.677 88.7674 210.957 88.4174 211.335C88.5014 211.685 88.5434 212.091 88.5434 212.553V219H86.9264V212.595C86.9264 211.755 86.7864 211.153 86.5064 210.789C86.2264 210.411 85.6734 210.222 84.8474 210.222C84.2874 210.222 83.7484 210.348 83.2304 210.6C82.7264 210.838 82.2784 211.139 81.8864 211.503V219H80.1854Z" fill="white"/>
<rect x="16" y="151" width="59" height="18" rx="9" fill="white"/>
<path d="M24.9035 165V155.984H28.5575C29.8922 155.984 30.8815 156.339 31.5255 157.048C32.1695 157.748 32.4915 158.915 32.4915 160.548C32.4915 162.088 32.1742 163.217 31.5395 163.936C30.9048 164.645 29.9108 165 28.5575 165H24.9035ZM26.4295 163.824H28.3195C28.9075 163.824 29.3975 163.74 29.7895 163.572C30.1815 163.395 30.4755 163.068 30.6715 162.592C30.8675 162.116 30.9655 161.435 30.9655 160.548C30.9655 159.661 30.8768 158.975 30.6995 158.49C30.5222 158.005 30.2375 157.664 29.8455 157.468C29.4628 157.272 28.9542 157.174 28.3195 157.174H26.4295V163.824ZM37.3553 165.14C36.1979 165.14 35.3019 164.855 34.6673 164.286C34.0326 163.717 33.7153 162.844 33.7153 161.668C33.7153 160.604 33.9859 159.764 34.5273 159.148C35.0686 158.532 35.8899 158.224 36.9913 158.224C37.9993 158.224 38.7553 158.49 39.2593 159.022C39.7726 159.545 40.0293 160.221 40.0293 161.052V162.284H35.1713C35.2459 162.928 35.4793 163.371 35.8713 163.614C36.2633 163.857 36.8606 163.978 37.6633 163.978C37.9993 163.978 38.3446 163.945 38.6993 163.88C39.0539 163.815 39.3619 163.731 39.6233 163.628V164.748C39.3246 164.879 38.9793 164.977 38.5873 165.042C38.2046 165.107 37.7939 165.14 37.3553 165.14ZM35.1713 161.29H38.6853V160.828C38.6853 160.371 38.5593 160.016 38.3073 159.764C38.0553 159.503 37.6306 159.372 37.0333 159.372C36.3239 159.372 35.8339 159.526 35.5633 159.834C35.3019 160.142 35.1713 160.627 35.1713 161.29ZM44.8748 165.14C43.7175 165.14 42.8215 164.855 42.1868 164.286C41.5521 163.717 41.2348 162.844 41.2348 161.668C41.2348 160.604 41.5055 159.764 42.0468 159.148C42.5881 158.532 43.4095 158.224 44.5108 158.224C45.5188 158.224 46.2748 158.49 46.7788 159.022C47.2921 159.545 47.5488 160.221 47.5488 161.052V162.284H42.6908C42.7655 162.928 42.9988 163.371 43.3908 163.614C43.7828 163.857 44.3801 163.978 45.1828 163.978C45.5188 163.978 45.8641 163.945 46.2188 163.88C46.5735 163.815 46.8815 163.731 47.1428 163.628V164.748C46.8441 164.879 46.4988 164.977 46.1068 165.042C45.7241 165.107 45.3135 165.14 44.8748 165.14ZM42.6908 161.29H46.2048V160.828C46.2048 160.371 46.0788 160.016 45.8268 159.764C45.5748 159.503 45.1501 159.372 44.5528 159.372C43.8435 159.372 43.3535 159.526 43.0828 159.834C42.8215 160.142 42.6908 160.627 42.6908 161.29ZM48.4809 165V164.202L52.1069 159.61H48.6489V158.364H53.9829V159.302L50.4269 163.824H54.0809V165H48.4809ZM58.6697 165.14C57.5124 165.14 56.6164 164.855 55.9817 164.286C55.3471 163.717 55.0297 162.844 55.0297 161.668C55.0297 160.604 55.3004 159.764 55.8417 159.148C56.3831 158.532 57.2044 158.224 58.3057 158.224C59.3137 158.224 60.0697 158.49 60.5737 159.022C61.0871 159.545 61.3437 160.221 61.3437 161.052V162.284H56.4857C56.5604 162.928 56.7937 163.371 57.1857 163.614C57.5777 163.857 58.1751 163.978 58.9777 163.978C59.3137 163.978 59.6591 163.945 60.0137 163.88C60.3684 163.815 60.6764 163.731 60.9377 163.628V164.748C60.6391 164.879 60.2937 164.977 59.9017 165.042C59.5191 165.107 59.1084 165.14 58.6697 165.14ZM56.4857 161.29H59.9997V160.828C59.9997 160.371 59.8737 160.016 59.6217 159.764C59.3697 159.503 58.9451 159.372 58.3477 159.372C57.6384 159.372 57.1484 159.526 56.8777 159.834C56.6164 160.142 56.4857 160.627 56.4857 161.29ZM62.8293 165V158.364H64.2293L64.3133 159.134C64.6306 158.929 65.0086 158.742 65.4473 158.574C65.8859 158.406 66.3199 158.289 66.7493 158.224V159.386C66.4879 159.433 66.2033 159.503 65.8953 159.596C65.5966 159.68 65.3119 159.778 65.0413 159.89C64.7706 159.993 64.5419 160.1 64.3553 160.212V165H62.8293Z" fill="#A238FF"/>
</g>
<defs>
<clipPath id="clip0_4857_71787">
<rect width="200" height="248" rx="12" fill="white"/>
</clipPath>
</defs>
</svg>
