<svg width="200" height="248" viewBox="0 0 200 248" fill="none" xmlns="http://www.w3.org/2000/svg">
<g clip-path="url(#clip0_4857_71817)">
<rect width="200" height="248" rx="12" fill="#00FFFF"/>
<rect width="200" height="160" fill="#27824D"/>
<path fill-rule="evenodd" clip-rule="evenodd" d="M70.0572 91.4165C68.6197 93.3085 67.145 95.1719 65.6341 97.0058L92.6686 96.951C92.5095 100.542 93.3553 104.92 91.6823 108.002C90.0013 111.382 86.0554 113.06 82.4076 113.133C71.5059 112.123 64.2556 102.604 60.1092 93.597C59.7973 92.8818 59.5142 92.1544 59.2605 91.4165C55.5314 80.6029 57.5432 66.7326 64.6478 57.8797C75.2054 43.9614 93.848 38.3389 111.218 43.6714C121.812 46.9698 131.233 55.1569 135.885 65.5754C139.242 73.4428 139.343 82.9261 136.616 91.4173C134.866 96.8585 131.955 101.892 127.992 105.831C123.096 109.951 117.818 114.293 111.021 112.936C107.313 112.073 104.65 109.508 103.719 106.028C102.923 102.997 103.12 100.089 103.522 96.951L131.108 96.9036L130.359 95.9647C129.08 94.4678 127.823 92.9516 126.59 91.4165C114.434 76.2774 104.708 59.4912 97.9959 41.8956C90.9491 59.2974 81.3866 76.5149 70.0572 91.4165ZM48.5371 91.4165C52.8315 107.523 65.879 120.729 82.0125 125.366C102.33 131.751 125.313 124.946 138.449 109.383C142.678 104.255 145.726 98.0327 147.415 91.4165C150.252 80.3061 149.256 68.0852 143.579 58.0758C139.519 51.0134 133.55 44.355 126.807 40.1183C111.652 30.1511 89.1622 29.3616 73.3298 37.7507C57.1037 46.0316 45.9083 63.3431 47.0847 82.1507C47.2408 85.2819 47.7276 88.3878 48.5371 91.4165Z" fill="white"/>
<path d="M0 160H200V236C200 242.627 194.627 248 188 248H12C5.37258 248 0 242.627 0 236V160Z" fill="#EE293D"/>
<path d="M21.124 195V182.841H16.63V181.476H27.34V182.841H22.846V195H21.124ZM29.0266 195V180.846H30.7486V186.117C31.2106 185.739 31.7496 185.431 32.3656 185.193C32.9956 184.955 33.7236 184.836 34.5496 184.836C35.7536 184.836 36.6566 185.13 37.2586 185.718C37.8606 186.306 38.1616 187.23 38.1616 188.49V195H36.4396V188.553C36.4396 187.685 36.2436 187.083 35.8516 186.747C35.4736 186.397 34.8436 186.222 33.9616 186.222C33.4016 186.222 32.8206 186.348 32.2186 186.6C31.6306 186.838 31.1406 187.153 30.7486 187.545V195H29.0266ZM45.148 195.21C43.37 195.21 42.04 194.783 41.158 193.929C40.276 193.075 39.835 191.759 39.835 189.981C39.835 188.385 40.213 187.132 40.969 186.222C41.739 185.298 42.95 184.836 44.602 184.836C45.582 184.836 46.387 185.018 47.017 185.382C47.661 185.732 48.137 186.222 48.445 186.852C48.767 187.468 48.928 188.168 48.928 188.952V190.821H41.557C41.613 191.577 41.774 192.172 42.04 192.606C42.32 193.04 42.733 193.355 43.279 193.551C43.839 193.733 44.574 193.824 45.484 193.824C46.506 193.824 47.444 193.649 48.298 193.299V194.643C47.864 194.825 47.374 194.965 46.828 195.063C46.296 195.161 45.736 195.21 45.148 195.21ZM41.557 189.582H47.395V188.763C47.395 187.951 47.178 187.328 46.744 186.894C46.324 186.446 45.624 186.222 44.644 186.222C43.454 186.222 42.642 186.502 42.208 187.062C41.774 187.622 41.557 188.462 41.557 189.582ZM60.5131 195.21C59.7711 195.21 59.1201 195.112 58.5601 194.916C58.0141 194.706 57.5101 194.384 57.0481 193.95L56.9221 195H55.4521V180.846H57.1741V185.781C58.0841 185.151 59.1901 184.836 60.4921 184.836C61.9061 184.836 63.0121 185.242 63.8101 186.054C64.6081 186.852 65.0071 188.147 65.0071 189.939C65.0071 191.745 64.6081 193.075 63.8101 193.929C63.0121 194.783 61.9131 195.21 60.5131 195.21ZM60.0721 193.824C61.2341 193.824 62.0601 193.502 62.5501 192.858C63.0401 192.214 63.2851 191.241 63.2851 189.939C63.2851 188.581 63.0191 187.622 62.4871 187.062C61.9691 186.502 61.1501 186.222 60.0301 186.222C59.4281 186.222 58.8891 186.313 58.4131 186.495C57.9371 186.663 57.5241 186.901 57.1741 187.209V192.627C57.5521 193.033 57.9861 193.334 58.4761 193.53C58.9661 193.726 59.4981 193.824 60.0721 193.824ZM72.0042 195.21C70.2262 195.21 68.8962 194.783 68.0142 193.929C67.1322 193.075 66.6912 191.759 66.6912 189.981C66.6912 188.385 67.0692 187.132 67.8252 186.222C68.5952 185.298 69.8062 184.836 71.4582 184.836C72.4382 184.836 73.2432 185.018 73.8732 185.382C74.5172 185.732 74.9932 186.222 75.3012 186.852C75.6232 187.468 75.7842 188.168 75.7842 188.952V190.821H68.4132C68.4692 191.577 68.6302 192.172 68.8962 192.606C69.1762 193.04 69.5892 193.355 70.1352 193.551C70.6952 193.733 71.4302 193.824 72.3402 193.824C73.3622 193.824 74.3002 193.649 75.1542 193.299V194.643C74.7202 194.825 74.2302 194.965 73.6842 195.063C73.1522 195.161 72.5922 195.21 72.0042 195.21ZM68.4132 189.582H74.2512V188.763C74.2512 187.951 74.0342 187.328 73.6002 186.894C73.1802 186.446 72.4802 186.222 71.5002 186.222C70.3102 186.222 69.4982 186.502 69.0642 187.062C68.6302 187.622 68.4132 188.462 68.4132 189.582ZM80.9149 195.21C80.2709 195.21 79.6549 195.168 79.0669 195.084C78.4929 195 78.0099 194.888 77.6179 194.748V193.236C78.0939 193.404 78.5909 193.53 79.1089 193.614C79.6409 193.698 80.1659 193.74 80.6839 193.74C81.5659 193.74 82.1959 193.649 82.5739 193.467C82.9519 193.271 83.1409 192.914 83.1409 192.396C83.1409 192.018 83.0359 191.731 82.8259 191.535C82.6299 191.339 82.3219 191.164 81.9019 191.01C81.4959 190.856 80.9709 190.674 80.3269 190.464C79.7529 190.268 79.2419 190.065 78.7939 189.855C78.3459 189.645 77.9959 189.365 77.7439 189.015C77.4919 188.651 77.3659 188.168 77.3659 187.566C77.3659 186.684 77.6739 186.012 78.2899 185.55C78.9059 185.074 79.8999 184.836 81.2719 184.836C81.8039 184.836 82.3149 184.878 82.8049 184.962C83.2949 185.032 83.7219 185.123 84.0859 185.235V186.747C83.2039 186.453 82.3569 186.306 81.5449 186.306C80.6769 186.306 80.0469 186.397 79.6549 186.579C79.2769 186.747 79.0879 187.069 79.0879 187.545C79.0879 187.867 79.1719 188.126 79.3399 188.322C79.5219 188.504 79.7949 188.665 80.1589 188.805C80.5369 188.931 81.0199 189.092 81.6079 189.288C82.3779 189.526 83.0009 189.771 83.4769 190.023C83.9529 190.275 84.3029 190.583 84.5269 190.947C84.7509 191.311 84.8629 191.787 84.8629 192.375C84.8629 193.355 84.5199 194.076 83.8339 194.538C83.1479 194.986 82.1749 195.21 80.9149 195.21ZM90.289 195.21C89.309 195.21 88.567 194.951 88.063 194.433C87.573 193.901 87.328 193.166 87.328 192.228V186.411H85.816V185.046H87.328V182.589L89.05 182.064V185.046H91.801L91.696 186.411H89.05V192.144C89.05 192.746 89.183 193.18 89.449 193.446C89.729 193.698 90.205 193.824 90.877 193.824C91.241 193.824 91.64 193.754 92.074 193.614V194.916C91.556 195.112 90.961 195.21 90.289 195.21ZM98.7101 195V186.411H97.2191V185.046H98.7101V183.597C98.7101 182.645 98.9691 181.896 99.4871 181.35C100.019 180.79 100.796 180.51 101.818 180.51C102.182 180.51 102.511 180.538 102.805 180.594C103.113 180.65 103.393 180.727 103.645 180.825V182.127C103.211 181.973 102.749 181.896 102.259 181.896C101.545 181.896 101.062 182.029 100.81 182.295C100.558 182.547 100.432 182.981 100.432 183.597V185.046H103.12L103.036 186.411H100.432V195H98.7101ZM107.002 195.21C106.372 195.21 105.791 195.098 105.259 194.874C104.727 194.65 104.3 194.321 103.978 193.887C103.656 193.439 103.495 192.879 103.495 192.207C103.495 191.297 103.796 190.555 104.398 189.981C105 189.393 105.98 189.099 107.338 189.099H110.803V188.49C110.803 187.944 110.726 187.51 110.572 187.188C110.432 186.866 110.159 186.635 109.753 186.495C109.347 186.355 108.752 186.285 107.968 186.285C107.366 186.285 106.785 186.334 106.225 186.432C105.665 186.53 105.14 186.663 104.65 186.831V185.403C105.098 185.235 105.623 185.102 106.225 185.004C106.841 184.892 107.499 184.836 108.199 184.836C109.613 184.836 110.67 185.123 111.37 185.697C112.084 186.271 112.441 187.202 112.441 188.49V195H110.992L110.866 193.866C110.432 194.314 109.907 194.65 109.291 194.874C108.675 195.098 107.912 195.21 107.002 195.21ZM107.443 193.803C108.171 193.803 108.815 193.677 109.375 193.425C109.935 193.159 110.411 192.802 110.803 192.354V190.422H107.38C106.596 190.422 106.036 190.569 105.7 190.863C105.364 191.157 105.196 191.605 105.196 192.207C105.196 192.809 105.399 193.229 105.805 193.467C106.211 193.691 106.757 193.803 107.443 193.803ZM114.856 195V185.046H116.41L116.515 186.18C117.047 185.76 117.607 185.431 118.195 185.193C118.797 184.955 119.441 184.836 120.127 184.836C120.869 184.836 121.443 184.955 121.849 185.193C122.269 185.431 122.577 185.767 122.773 186.201C123.249 185.809 123.795 185.487 124.411 185.235C125.027 184.969 125.762 184.836 126.616 184.836C127.75 184.836 128.59 185.13 129.136 185.718C129.696 186.292 129.976 187.181 129.976 188.385V195H128.275V188.553C128.275 187.671 128.086 187.062 127.708 186.726C127.344 186.39 126.749 186.222 125.923 186.222C125.377 186.222 124.852 186.313 124.348 186.495C123.858 186.677 123.438 186.957 123.088 187.335C123.172 187.685 123.214 188.091 123.214 188.553V195H121.597V188.595C121.597 187.755 121.457 187.153 121.177 186.789C120.897 186.411 120.344 186.222 119.518 186.222C118.958 186.222 118.419 186.348 117.901 186.6C117.397 186.838 116.949 187.139 116.557 187.503V195H114.856ZM132.71 182.715V181.14H134.621V182.715H132.71ZM132.878 195V186.411H131.345L131.513 185.046H134.6V195H132.878ZM139.312 195.21C138.64 195.21 138.108 195.035 137.716 194.685C137.338 194.321 137.149 193.712 137.149 192.858V180.846H138.871V192.669C138.871 193.089 138.941 193.376 139.081 193.53C139.221 193.684 139.438 193.761 139.732 193.761C140.054 193.761 140.369 193.719 140.677 193.635V195C140.453 195.084 140.229 195.14 140.005 195.168C139.781 195.196 139.55 195.21 139.312 195.21ZM142.74 198.696C142.082 198.696 141.508 198.605 141.018 198.423V197.037C141.256 197.121 141.473 197.177 141.669 197.205C141.879 197.233 142.089 197.247 142.299 197.247C142.775 197.247 143.146 197.163 143.412 196.995C143.692 196.827 143.937 196.568 144.147 196.218C144.357 195.882 144.588 195.441 144.84 194.895L140.451 185.046H142.236L145.701 193.068L149.271 185.046H151.035L146.856 194.559C146.506 195.357 146.149 196.064 145.785 196.68C145.421 197.31 145.001 197.8 144.525 198.15C144.049 198.514 143.454 198.696 142.74 198.696ZM20.599 219.21C19.955 219.21 19.339 219.168 18.751 219.084C18.177 219 17.694 218.888 17.302 218.748V217.236C17.778 217.404 18.275 217.53 18.793 217.614C19.325 217.698 19.85 217.74 20.368 217.74C21.25 217.74 21.88 217.649 22.258 217.467C22.636 217.271 22.825 216.914 22.825 216.396C22.825 216.018 22.72 215.731 22.51 215.535C22.314 215.339 22.006 215.164 21.586 215.01C21.18 214.856 20.655 214.674 20.011 214.464C19.437 214.268 18.926 214.065 18.478 213.855C18.03 213.645 17.68 213.365 17.428 213.015C17.176 212.651 17.05 212.168 17.05 211.566C17.05 210.684 17.358 210.012 17.974 209.55C18.59 209.074 19.584 208.836 20.956 208.836C21.488 208.836 21.999 208.878 22.489 208.962C22.979 209.032 23.406 209.123 23.77 209.235V210.747C22.888 210.453 22.041 210.306 21.229 210.306C20.361 210.306 19.731 210.397 19.339 210.579C18.961 210.747 18.772 211.069 18.772 211.545C18.772 211.867 18.856 212.126 19.024 212.322C19.206 212.504 19.479 212.665 19.843 212.805C20.221 212.931 20.704 213.092 21.292 213.288C22.062 213.526 22.685 213.771 23.161 214.023C23.637 214.275 23.987 214.583 24.211 214.947C24.435 215.311 24.547 215.787 24.547 216.375C24.547 217.355 24.204 218.076 23.518 218.538C22.832 218.986 21.859 219.21 20.599 219.21ZM26.6477 219V204.846H28.3697V210.117C28.8317 209.739 29.3707 209.431 29.9867 209.193C30.6167 208.955 31.3447 208.836 32.1707 208.836C33.3747 208.836 34.2777 209.13 34.8797 209.718C35.4817 210.306 35.7827 211.23 35.7827 212.49V219H34.0607V212.553C34.0607 211.685 33.8647 211.083 33.4727 210.747C33.0947 210.397 32.4647 210.222 31.5827 210.222C31.0227 210.222 30.4417 210.348 29.8397 210.6C29.2517 210.838 28.7617 211.153 28.3697 211.545V219H26.6477ZM42.4331 219.21C40.6971 219.21 39.4301 218.769 38.6321 217.887C37.8481 216.991 37.4561 215.703 37.4561 214.023C37.4561 212.357 37.8551 211.076 38.6531 210.18C39.4511 209.284 40.7111 208.836 42.4331 208.836C44.1551 208.836 45.4151 209.284 46.2131 210.18C47.0111 211.076 47.4101 212.357 47.4101 214.023C47.4101 215.703 47.0181 216.991 46.2341 217.887C45.4501 218.769 44.1831 219.21 42.4331 219.21ZM42.4331 217.74C43.6231 217.74 44.4631 217.446 44.9531 216.858C45.4431 216.256 45.6881 215.311 45.6881 214.023C45.6881 212.735 45.4361 211.797 44.9321 211.209C44.4421 210.607 43.6091 210.306 42.4331 210.306C41.2571 210.306 40.4171 210.607 39.9131 211.209C39.4231 211.797 39.1781 212.735 39.1781 214.023C39.1781 215.311 39.4231 216.256 39.9131 216.858C40.4031 217.446 41.2431 217.74 42.4331 217.74ZM49.5147 223.536V209.046H50.9847L51.1107 210.096C51.5727 209.662 52.0767 209.347 52.6227 209.151C53.1827 208.941 53.8337 208.836 54.5757 208.836C55.9757 208.836 57.0747 209.228 57.8727 210.012C58.6707 210.782 59.0697 212.07 59.0697 213.876C59.0697 215.668 58.6707 217.005 57.8727 217.887C57.0747 218.769 55.9687 219.21 54.5547 219.21C53.2527 219.21 52.1467 218.895 51.2367 218.265V223.536H49.5147ZM54.0927 217.824C55.2127 217.824 56.0317 217.509 56.5497 216.879C57.0817 216.235 57.3477 215.234 57.3477 213.876C57.3477 212.574 57.1027 211.643 56.6127 211.083C56.1227 210.509 55.2967 210.222 54.1347 210.222C53.5607 210.222 53.0287 210.32 52.5387 210.516C52.0487 210.712 51.6147 211.013 51.2367 211.419V216.837C51.5867 217.145 51.9997 217.39 52.4757 217.572C52.9517 217.74 53.4907 217.824 54.0927 217.824ZM61.1738 223.536V209.046H62.6438L62.7698 210.096C63.2318 209.662 63.7358 209.347 64.2818 209.151C64.8418 208.941 65.4928 208.836 66.2348 208.836C67.6348 208.836 68.7338 209.228 69.5318 210.012C70.3298 210.782 70.7288 212.07 70.7288 213.876C70.7288 215.668 70.3298 217.005 69.5318 217.887C68.7338 218.769 67.6278 219.21 66.2138 219.21C64.9118 219.21 63.8058 218.895 62.8958 218.265V223.536H61.1738ZM65.7518 217.824C66.8718 217.824 67.6908 217.509 68.2088 216.879C68.7408 216.235 69.0068 215.234 69.0068 213.876C69.0068 212.574 68.7618 211.643 68.2718 211.083C67.7818 210.509 66.9558 210.222 65.7938 210.222C65.2198 210.222 64.6878 210.32 64.1978 210.516C63.7078 210.712 63.2738 211.013 62.8958 211.419V216.837C63.2458 217.145 63.6588 217.39 64.1348 217.572C64.6108 217.74 65.1498 217.824 65.7518 217.824ZM73.3677 206.715V205.14H75.2787V206.715H73.3677ZM73.5357 219V210.411H72.0027L72.1707 209.046H75.2577V219H73.5357ZM77.8064 219V209.046H79.3604L79.4654 210.18C79.9414 209.788 80.4944 209.466 81.1244 209.214C81.7684 208.962 82.5034 208.836 83.3294 208.836C84.5894 208.836 85.5064 209.13 86.0804 209.718C86.6544 210.306 86.9414 211.23 86.9414 212.49V219H85.2194V212.553C85.2194 211.685 85.0444 211.083 84.6944 210.747C84.3444 210.397 83.6724 210.222 82.6784 210.222C82.0624 210.222 81.4814 210.334 80.9354 210.558C80.3894 210.782 79.9204 211.09 79.5284 211.482V219H77.8064ZM93.227 222.696C92.485 222.696 91.757 222.654 91.043 222.57C90.343 222.486 89.741 222.353 89.237 222.171V220.743C89.797 220.925 90.427 221.065 91.127 221.163C91.827 221.261 92.499 221.31 93.143 221.31C94.193 221.31 94.963 221.247 95.453 221.121C95.943 220.995 96.188 220.673 96.188 220.155C96.188 219.791 96.055 219.532 95.789 219.378C95.537 219.224 95.082 219.147 94.424 219.147H91.778C89.944 219.147 89.027 218.531 89.027 217.299C89.027 216.893 89.153 216.508 89.405 216.144C89.671 215.766 90.063 215.5 90.581 215.346C90.021 215.066 89.608 214.681 89.342 214.191C89.076 213.687 88.943 213.092 88.943 212.406C88.943 211.16 89.3 210.257 90.014 209.697C90.742 209.123 91.848 208.836 93.332 208.836C93.64 208.836 93.955 208.864 94.277 208.92C94.613 208.962 94.872 209.004 95.054 209.046H98.645L98.582 210.222H96.776C97.098 210.488 97.329 210.81 97.469 211.188C97.609 211.552 97.679 211.958 97.679 212.406C97.679 213.512 97.357 214.373 96.713 214.989C96.069 215.591 95.082 215.892 93.752 215.892C93.528 215.892 93.325 215.885 93.143 215.871C92.975 215.843 92.772 215.815 92.534 215.787C92.1 215.801 91.694 215.927 91.316 216.165C90.938 216.389 90.749 216.683 90.749 217.047C90.749 217.285 90.84 217.46 91.022 217.572C91.218 217.684 91.568 217.74 92.072 217.74H94.823C95.817 217.74 96.58 217.943 97.112 218.349C97.644 218.741 97.91 219.322 97.91 220.092C97.91 221.072 97.504 221.751 96.692 222.129C95.88 222.507 94.725 222.696 93.227 222.696ZM93.332 214.59C94.326 214.59 95.012 214.429 95.39 214.107C95.768 213.785 95.957 213.218 95.957 212.406C95.957 211.594 95.754 211.006 95.348 210.642C94.956 210.278 94.284 210.096 93.332 210.096C92.394 210.096 91.715 210.271 91.295 210.621C90.875 210.971 90.665 211.566 90.665 212.406C90.665 213.176 90.861 213.736 91.253 214.086C91.659 214.422 92.352 214.59 93.332 214.59Z" fill="white"/>
<rect x="16" y="151" width="88" height="18" rx="9" fill="white"/>
<path d="M28.0925 165.14C26.9258 165.14 25.9878 164.991 25.2785 164.692V163.348C25.6798 163.497 26.1091 163.619 26.5665 163.712C27.0331 163.805 27.4951 163.852 27.9525 163.852C28.6711 163.852 29.2078 163.768 29.5625 163.6C29.9265 163.432 30.1085 163.096 30.1085 162.592C30.1085 162.284 30.0338 162.037 29.8845 161.85C29.7351 161.663 29.4878 161.505 29.1425 161.374C28.7971 161.234 28.3211 161.089 27.7145 160.94C26.7438 160.688 26.0625 160.371 25.6705 159.988C25.2785 159.596 25.0825 159.059 25.0825 158.378C25.0825 157.585 25.3718 156.964 25.9505 156.516C26.5291 156.068 27.3925 155.844 28.5405 155.844C29.0631 155.844 29.5531 155.881 30.0105 155.956C30.4771 156.031 30.8411 156.115 31.1025 156.208V157.552C30.3931 157.281 29.6091 157.146 28.7505 157.146C28.0785 157.146 27.5558 157.235 27.1825 157.412C26.8091 157.589 26.6225 157.911 26.6225 158.378C26.6225 158.649 26.6878 158.868 26.8185 159.036C26.9491 159.204 27.1731 159.349 27.4905 159.47C27.8171 159.591 28.2651 159.727 28.8345 159.876C29.5718 160.063 30.1411 160.287 30.5425 160.548C30.9531 160.8 31.2378 161.099 31.3965 161.444C31.5645 161.78 31.6485 162.163 31.6485 162.592C31.6485 163.385 31.3545 164.011 30.7665 164.468C30.1785 164.916 29.2871 165.14 28.0925 165.14ZM33.1281 168.024V158.364H34.4441L34.5281 159.022C34.8268 158.751 35.1534 158.551 35.5081 158.42C35.8628 158.289 36.2828 158.224 36.7681 158.224C37.7201 158.224 38.4621 158.485 38.9941 159.008C39.5261 159.521 39.7921 160.375 39.7921 161.57C39.7921 162.765 39.5168 163.661 38.9661 164.258C38.4154 164.846 37.6641 165.14 36.7121 165.14C35.9094 165.14 35.2234 164.953 34.6541 164.58V168.024H33.1281ZM36.3201 163.992C37.6081 163.992 38.2521 163.18 38.2521 161.556C38.2521 160.772 38.1074 160.217 37.8181 159.89C37.5288 159.554 37.0434 159.386 36.3621 159.386C35.6808 159.386 35.1114 159.619 34.6541 160.086V163.404C34.8688 163.581 35.1068 163.726 35.3681 163.838C35.6388 163.941 35.9561 163.992 36.3201 163.992ZM43.3485 165.14C42.9285 165.14 42.5365 165.065 42.1725 164.916C41.8179 164.767 41.5332 164.543 41.3185 164.244C41.1039 163.936 40.9965 163.558 40.9965 163.11C40.9965 162.475 41.2112 161.967 41.6405 161.584C42.0792 161.192 42.7512 160.996 43.6565 160.996H45.7845V160.702C45.7845 160.385 45.7332 160.133 45.6305 159.946C45.5372 159.759 45.3599 159.624 45.0985 159.54C44.8465 159.456 44.4732 159.414 43.9785 159.414C43.1945 159.414 42.4619 159.531 41.7805 159.764V158.63C42.0792 158.509 42.4432 158.411 42.8725 158.336C43.3019 158.261 43.7639 158.224 44.2585 158.224C45.2292 158.224 45.9665 158.42 46.4705 158.812C46.9839 159.204 47.2405 159.843 47.2405 160.73V165H45.9385L45.8405 164.328C45.5699 164.589 45.2339 164.79 44.8325 164.93C44.4405 165.07 43.9459 165.14 43.3485 165.14ZM43.7545 164.048C44.2119 164.048 44.6085 163.973 44.9445 163.824C45.2899 163.665 45.5699 163.455 45.7845 163.194V162.032H43.6845C43.2365 162.032 42.9099 162.121 42.7045 162.298C42.5085 162.466 42.4105 162.727 42.4105 163.082C42.4105 163.427 42.5272 163.675 42.7605 163.824C42.9939 163.973 43.3252 164.048 43.7545 164.048ZM48.9328 165V158.364H50.3328L50.4168 159.134C50.7341 158.929 51.1121 158.742 51.5508 158.574C51.9894 158.406 52.4234 158.289 52.8528 158.224V159.386C52.5914 159.433 52.3068 159.503 51.9988 159.596C51.7001 159.68 51.4154 159.778 51.1448 159.89C50.8741 159.993 50.6454 160.1 50.4588 160.212V165H48.9328ZM53.964 165V155.984H55.532L58.388 161.822L61.23 155.984H62.798V165H61.286V158.462L58.85 163.446H57.926L55.476 158.462V165H53.964ZM66.6317 165.14C66.2117 165.14 65.8197 165.065 65.4557 164.916C65.1011 164.767 64.8164 164.543 64.6017 164.244C64.3871 163.936 64.2797 163.558 64.2797 163.11C64.2797 162.475 64.4944 161.967 64.9237 161.584C65.3624 161.192 66.0344 160.996 66.9397 160.996H69.0677V160.702C69.0677 160.385 69.0164 160.133 68.9137 159.946C68.8204 159.759 68.6431 159.624 68.3817 159.54C68.1297 159.456 67.7564 159.414 67.2617 159.414C66.4777 159.414 65.7451 159.531 65.0637 159.764V158.63C65.3624 158.509 65.7264 158.411 66.1557 158.336C66.5851 158.261 67.0471 158.224 67.5417 158.224C68.5124 158.224 69.2497 158.42 69.7537 158.812C70.2671 159.204 70.5237 159.843 70.5237 160.73V165H69.2217L69.1237 164.328C68.8531 164.589 68.5171 164.79 68.1157 164.93C67.7237 165.07 67.2291 165.14 66.6317 165.14ZM67.0377 164.048C67.4951 164.048 67.8917 163.973 68.2277 163.824C68.5731 163.665 68.8531 163.455 69.0677 163.194V162.032H66.9677C66.5197 162.032 66.1931 162.121 65.9877 162.298C65.7917 162.466 65.6937 162.727 65.6937 163.082C65.6937 163.427 65.8104 163.675 66.0437 163.824C66.2771 163.973 66.6084 164.048 67.0377 164.048ZM72.216 165V158.364H73.616L73.7 159.134C74.0173 158.929 74.3953 158.742 74.834 158.574C75.2727 158.406 75.7067 158.289 76.136 158.224V159.386C75.8747 159.433 75.59 159.503 75.282 159.596C74.9833 159.68 74.6987 159.778 74.428 159.89C74.1573 159.993 73.9287 160.1 73.742 160.212V165H72.216ZM77.2472 165V155.564H78.7732V161.024L81.5592 158.364H83.3092L80.6072 161.038L83.4632 165H81.8532L79.6552 161.85L78.7732 162.69V165H77.2472ZM87.2108 165.14C86.0534 165.14 85.1574 164.855 84.5228 164.286C83.8881 163.717 83.5708 162.844 83.5708 161.668C83.5708 160.604 83.8414 159.764 84.3828 159.148C84.9241 158.532 85.7454 158.224 86.8468 158.224C87.8548 158.224 88.6108 158.49 89.1148 159.022C89.6281 159.545 89.8848 160.221 89.8848 161.052V162.284H85.0267C85.1014 162.928 85.3348 163.371 85.7268 163.614C86.1188 163.857 86.7161 163.978 87.5188 163.978C87.8548 163.978 88.2001 163.945 88.5548 163.88C88.9094 163.815 89.2174 163.731 89.4788 163.628V164.748C89.1801 164.879 88.8348 164.977 88.4428 165.042C88.0601 165.107 87.6494 165.14 87.2108 165.14ZM85.0267 161.29H88.5408V160.828C88.5408 160.371 88.4148 160.016 88.1628 159.764C87.9108 159.503 87.4861 159.372 86.8888 159.372C86.1794 159.372 85.6894 159.526 85.4188 159.834C85.1574 160.142 85.0267 160.627 85.0267 161.29ZM93.9043 165.14C93.1949 165.14 92.6629 164.953 92.3083 164.58C91.9629 164.197 91.7903 163.679 91.7903 163.026V159.554H90.8103V158.364H91.7903V156.838L93.3023 156.376V158.364H95.0663L94.9683 159.554H93.3023V162.942C93.3023 163.325 93.3909 163.595 93.5683 163.754C93.7456 163.903 94.0349 163.978 94.4363 163.978C94.6883 163.978 94.9543 163.931 95.2343 163.838V164.916C94.8703 165.065 94.4269 165.14 93.9043 165.14Z" fill="#27824D"/>
</g>
<defs>
<clipPath id="clip0_4857_71817">
<rect width="200" height="248" rx="12" fill="white"/>
</clipPath>
</defs>
</svg>
