<svg width="200" height="248" viewBox="0 0 200 248" fill="none" xmlns="http://www.w3.org/2000/svg">
<g clip-path="url(#clip0_4857_71945)">
<rect width="200" height="248" rx="12" fill="#EE3023"/>
<rect width="200" height="160" fill="black"/>
<path d="M66.7227 37.918H105.992C108.595 37.9557 111.084 38.9742 112.933 40.7472L137.603 65.4176C139.791 67.6055 140.998 70.5479 140.998 73.6034V110.647L128.55 98.0853V66.587L116.101 53.7614L99.9562 70.5856L66.7227 37.918Z" fill="white"/>
<path d="M134.887 121.848H94.0332C91.4303 121.81 88.9407 120.754 87.0923 118.906L62.4595 93.6317C60.2716 91.3683 59.0645 88.3128 59.0645 85.1818V47.1953L72.1542 60.2096V92.5377L84.6026 105.816V72.6957L100.182 87.9356L116.025 72.6957V102.798L134.887 121.848Z" fill="white"/>
<path d="M121.457 37.918L140.96 57.4205V37.918H121.457Z" fill="white"/>
<path d="M78.567 121.855L59.0645 102.391V121.855H78.567Z" fill="white"/>
<path d="M0 160H200V236C200 242.627 194.627 248 188 248H12C5.37258 248 0 242.627 0 236V160Z" fill="black"/>
<path d="M23.539 195.21C22.083 195.21 20.872 194.937 19.906 194.391C18.954 193.831 18.24 193.054 17.764 192.06C17.288 191.052 17.05 189.876 17.05 188.532C17.05 187.062 17.274 185.781 17.722 184.689C18.17 183.597 18.87 182.757 19.822 182.169C20.774 181.567 22.006 181.266 23.518 181.266C24.302 181.266 25.009 181.322 25.639 181.434C26.283 181.546 26.885 181.7 27.445 181.896V183.408C26.885 183.198 26.29 183.037 25.66 182.925C25.03 182.799 24.365 182.736 23.665 182.736C22.447 182.736 21.481 182.967 20.767 183.429C20.053 183.891 19.542 184.556 19.234 185.424C18.926 186.292 18.772 187.328 18.772 188.532C18.772 190.198 19.157 191.486 19.927 192.396C20.697 193.292 21.936 193.74 23.644 193.74C24.246 193.74 24.827 193.691 25.387 193.593C25.947 193.495 26.444 193.362 26.878 193.194V188.889H23.266V187.713H28.369V194.139C27.963 194.405 27.368 194.65 26.584 194.874C25.814 195.098 24.799 195.21 23.539 195.21ZM32.6251 195.21C31.9531 195.21 31.4211 195.035 31.0291 194.685C30.6511 194.321 30.4621 193.712 30.4621 192.858V180.846H32.1841V192.669C32.1841 193.089 32.2541 193.376 32.3941 193.53C32.5341 193.684 32.7511 193.761 33.0451 193.761C33.3671 193.761 33.6821 193.719 33.9901 193.635V195C33.7661 195.084 33.5421 195.14 33.3181 195.168C33.0941 195.196 32.8631 195.21 32.6251 195.21ZM40.1157 195.21C38.3797 195.21 37.1127 194.769 36.3147 193.887C35.5307 192.991 35.1387 191.703 35.1387 190.023C35.1387 188.357 35.5377 187.076 36.3357 186.18C37.1337 185.284 38.3937 184.836 40.1157 184.836C41.8377 184.836 43.0977 185.284 43.8957 186.18C44.6937 187.076 45.0927 188.357 45.0927 190.023C45.0927 191.703 44.7007 192.991 43.9167 193.887C43.1327 194.769 41.8657 195.21 40.1157 195.21ZM40.1157 193.74C41.3057 193.74 42.1457 193.446 42.6357 192.858C43.1257 192.256 43.3707 191.311 43.3707 190.023C43.3707 188.735 43.1187 187.797 42.6147 187.209C42.1247 186.607 41.2917 186.306 40.1157 186.306C38.9397 186.306 38.0997 186.607 37.5957 187.209C37.1057 187.797 36.8607 188.735 36.8607 190.023C36.8607 191.311 37.1057 192.256 37.5957 192.858C38.0857 193.446 38.9257 193.74 40.1157 193.74ZM52.2583 195.21C51.5163 195.21 50.8653 195.112 50.3053 194.916C49.7593 194.706 49.2553 194.384 48.7933 193.95L48.6673 195H47.1973V180.846H48.9193V185.781C49.8293 185.151 50.9353 184.836 52.2373 184.836C53.6513 184.836 54.7573 185.242 55.5553 186.054C56.3533 186.852 56.7523 188.147 56.7523 189.939C56.7523 191.745 56.3533 193.075 55.5553 193.929C54.7573 194.783 53.6583 195.21 52.2583 195.21ZM51.8173 193.824C52.9793 193.824 53.8053 193.502 54.2953 192.858C54.7853 192.214 55.0303 191.241 55.0303 189.939C55.0303 188.581 54.7643 187.622 54.2323 187.062C53.7143 186.502 52.8953 186.222 51.7753 186.222C51.1733 186.222 50.6343 186.313 50.1583 186.495C49.6823 186.663 49.2693 186.901 48.9193 187.209V192.627C49.2973 193.033 49.7313 193.334 50.2213 193.53C50.7113 193.726 51.2433 193.824 51.8173 193.824ZM61.8409 195.21C61.2109 195.21 60.6299 195.098 60.0979 194.874C59.5659 194.65 59.1389 194.321 58.8169 193.887C58.4949 193.439 58.3339 192.879 58.3339 192.207C58.3339 191.297 58.6349 190.555 59.2369 189.981C59.8389 189.393 60.8189 189.099 62.1769 189.099H65.6419V188.49C65.6419 187.944 65.5649 187.51 65.4109 187.188C65.2709 186.866 64.9979 186.635 64.5919 186.495C64.1859 186.355 63.5909 186.285 62.8069 186.285C62.2049 186.285 61.6239 186.334 61.0639 186.432C60.5039 186.53 59.9789 186.663 59.4889 186.831V185.403C59.9369 185.235 60.4619 185.102 61.0639 185.004C61.6799 184.892 62.3379 184.836 63.0379 184.836C64.4519 184.836 65.5089 185.123 66.2089 185.697C66.9229 186.271 67.2799 187.202 67.2799 188.49V195H65.8309L65.7049 193.866C65.2709 194.314 64.7459 194.65 64.1299 194.874C63.5139 195.098 62.7509 195.21 61.8409 195.21ZM62.2819 193.803C63.0099 193.803 63.6539 193.677 64.2139 193.425C64.7739 193.159 65.2499 192.802 65.6419 192.354V190.422H62.2189C61.4349 190.422 60.8749 190.569 60.5389 190.863C60.2029 191.157 60.0349 191.605 60.0349 192.207C60.0349 192.809 60.2379 193.229 60.6439 193.467C61.0499 193.691 61.5959 193.803 62.2819 193.803ZM71.8582 195.21C71.1862 195.21 70.6542 195.035 70.2622 194.685C69.8842 194.321 69.6952 193.712 69.6952 192.858V180.846H71.4172V192.669C71.4172 193.089 71.4872 193.376 71.6272 193.53C71.7672 193.684 71.9842 193.761 72.2782 193.761C72.6002 193.761 72.9152 193.719 73.2232 193.635V195C72.9992 195.084 72.7752 195.14 72.5512 195.168C72.3272 195.196 72.0962 195.21 71.8582 195.21ZM82.4246 195.21C81.8086 195.21 81.1506 195.154 80.4506 195.042C79.7506 194.93 79.1976 194.797 78.7916 194.643V193.131C79.3236 193.341 79.8766 193.495 80.4506 193.593C81.0246 193.691 81.6126 193.74 82.2146 193.74C83.4186 193.74 84.3076 193.558 84.8816 193.194C85.4696 192.83 85.7636 192.193 85.7636 191.283C85.7636 190.415 85.4906 189.785 84.9446 189.393C84.3986 189.001 83.6356 188.805 82.6556 188.805H80.7026L80.8706 187.503H82.4876C83.4956 187.503 84.2446 187.286 84.7346 186.852C85.2246 186.404 85.4696 185.781 85.4696 184.983C85.4696 184.213 85.2106 183.646 84.6926 183.282C84.1886 182.918 83.3766 182.736 82.2566 182.736C81.6966 182.736 81.1296 182.792 80.5556 182.904C79.9956 183.016 79.4916 183.163 79.0436 183.345V181.854C79.4356 181.7 79.9466 181.567 80.5766 181.455C81.2206 181.329 81.8576 181.266 82.4876 181.266C84.0976 181.266 85.2806 181.616 86.0366 182.316C86.8066 183.002 87.1916 183.884 87.1916 184.962C87.1916 185.648 87.0096 186.292 86.6456 186.894C86.2956 187.482 85.7286 187.895 84.9446 188.133C85.8406 188.329 86.4846 188.721 86.8766 189.309C87.2826 189.883 87.4856 190.541 87.4856 191.283C87.4856 192.599 87.0306 193.586 86.1206 194.244C85.2106 194.888 83.9786 195.21 82.4246 195.21ZM94.9127 195.21C93.5547 195.21 92.4487 194.937 91.5947 194.391C90.7547 193.845 90.1387 193.061 89.7467 192.039C89.3547 191.017 89.1587 189.806 89.1587 188.406C89.1587 186.894 89.3407 185.606 89.7047 184.542C90.0687 183.478 90.6707 182.666 91.5107 182.106C92.3507 181.546 93.4847 181.266 94.9127 181.266C96.3267 181.266 97.4537 181.546 98.2937 182.106C99.1337 182.666 99.7357 183.478 100.1 184.542C100.464 185.606 100.646 186.894 100.646 188.406C100.646 189.806 100.45 191.017 100.058 192.039C99.6798 193.061 99.0708 193.845 98.2307 194.391C97.3907 194.937 96.2847 195.21 94.9127 195.21ZM94.9127 193.74C95.9067 193.74 96.6907 193.523 97.2647 193.089C97.8527 192.641 98.2727 192.018 98.5247 191.22C98.7908 190.408 98.9238 189.47 98.9238 188.406C98.9238 186.572 98.6298 185.172 98.0417 184.206C97.4677 183.226 96.4247 182.736 94.9127 182.736C93.9047 182.736 93.1067 182.953 92.5187 183.387C91.9307 183.821 91.5107 184.465 91.2587 185.319C91.0067 186.159 90.8807 187.188 90.8807 188.406C90.8807 189.47 91.0067 190.408 91.2587 191.22C91.5247 192.018 91.9517 192.641 92.5397 193.089C93.1417 193.523 93.9327 193.74 94.9127 193.74ZM108.089 195.21C106.731 195.21 105.625 194.937 104.771 194.391C103.931 193.845 103.315 193.061 102.923 192.039C102.531 191.017 102.335 189.806 102.335 188.406C102.335 186.894 102.517 185.606 102.881 184.542C103.245 183.478 103.847 182.666 104.687 182.106C105.527 181.546 106.661 181.266 108.089 181.266C109.503 181.266 110.63 181.546 111.47 182.106C112.31 182.666 112.912 183.478 113.276 184.542C113.64 185.606 113.822 186.894 113.822 188.406C113.822 189.806 113.626 191.017 113.234 192.039C112.856 193.061 112.247 193.845 111.407 194.391C110.567 194.937 109.461 195.21 108.089 195.21ZM108.089 193.74C109.083 193.74 109.867 193.523 110.441 193.089C111.029 192.641 111.449 192.018 111.701 191.22C111.967 190.408 112.1 189.47 112.1 188.406C112.1 186.572 111.806 185.172 111.218 184.206C110.644 183.226 109.601 182.736 108.089 182.736C107.081 182.736 106.283 182.953 105.695 183.387C105.107 183.821 104.687 184.465 104.435 185.319C104.183 186.159 104.057 187.188 104.057 188.406C104.057 189.47 104.183 190.408 104.435 191.22C104.701 192.018 105.128 192.641 105.716 193.089C106.318 193.523 107.109 193.74 108.089 193.74ZM121.266 195.21C119.908 195.21 118.802 194.937 117.948 194.391C117.108 193.845 116.492 193.061 116.1 192.039C115.708 191.017 115.512 189.806 115.512 188.406C115.512 186.894 115.694 185.606 116.058 184.542C116.422 183.478 117.024 182.666 117.864 182.106C118.704 181.546 119.838 181.266 121.266 181.266C122.68 181.266 123.807 181.546 124.647 182.106C125.487 182.666 126.089 183.478 126.453 184.542C126.817 185.606 126.999 186.894 126.999 188.406C126.999 189.806 126.803 191.017 126.411 192.039C126.033 193.061 125.424 193.845 124.584 194.391C123.744 194.937 122.638 195.21 121.266 195.21ZM121.266 193.74C122.26 193.74 123.044 193.523 123.618 193.089C124.206 192.641 124.626 192.018 124.878 191.22C125.144 190.408 125.277 189.47 125.277 188.406C125.277 186.572 124.983 185.172 124.395 184.206C123.821 183.226 122.778 182.736 121.266 182.736C120.258 182.736 119.46 182.953 118.872 183.387C118.284 183.821 117.864 184.465 117.612 185.319C117.36 186.159 117.234 187.188 117.234 188.406C117.234 189.47 117.36 190.408 117.612 191.22C117.878 192.018 118.305 192.641 118.893 193.089C119.495 193.523 120.286 193.74 121.266 193.74ZM132.343 195.21C131.727 195.21 131.083 195.161 130.411 195.063C129.739 194.965 129.186 194.825 128.752 194.643V193.11C129.788 193.53 130.922 193.74 132.154 193.74C133.358 193.74 134.233 193.516 134.779 193.068C135.339 192.62 135.619 191.92 135.619 190.968C135.619 190.072 135.409 189.4 134.989 188.952C134.583 188.504 133.785 188.28 132.595 188.28H128.689V187.083L129.046 181.476H136.375L136.207 182.82H130.495L130.222 186.915H132.763C134.345 186.915 135.5 187.251 136.228 187.923C136.97 188.595 137.341 189.61 137.341 190.968C137.341 192.284 136.914 193.32 136.06 194.076C135.22 194.832 133.981 195.21 132.343 195.21ZM21.544 219.21C20.144 219.21 19.045 218.825 18.247 218.055C17.449 217.271 17.05 215.976 17.05 214.17C17.05 212.378 17.463 211.041 18.289 210.159C19.129 209.277 20.249 208.836 21.649 208.836C22.895 208.836 23.973 209.151 24.883 209.781V204.846H26.605V219H25.135L25.009 217.95C24.547 218.384 24.036 218.706 23.476 218.916C22.93 219.112 22.286 219.21 21.544 219.21ZM21.985 217.824C22.559 217.824 23.091 217.726 23.581 217.53C24.071 217.334 24.505 217.033 24.883 216.627V211.209C24.533 210.901 24.12 210.663 23.644 210.495C23.168 210.313 22.629 210.222 22.027 210.222C20.921 210.222 20.102 210.544 19.57 211.188C19.038 211.818 18.772 212.812 18.772 214.17C18.772 215.472 19.017 216.41 19.507 216.984C19.997 217.544 20.823 217.824 21.985 217.824ZM30.0741 206.715V205.14H31.9851V206.715H30.0741ZM30.2421 219V210.411H28.7091L28.8771 209.046H31.9641V219H30.2421ZM37.5998 219.21C36.9698 219.21 36.3888 219.098 35.8568 218.874C35.3248 218.65 34.8978 218.321 34.5758 217.887C34.2538 217.439 34.0928 216.879 34.0928 216.207C34.0928 215.297 34.3938 214.555 34.9958 213.981C35.5978 213.393 36.5778 213.099 37.9358 213.099H41.4008V212.49C41.4008 211.944 41.3238 211.51 41.1698 211.188C41.0298 210.866 40.7568 210.635 40.3508 210.495C39.9448 210.355 39.3498 210.285 38.5658 210.285C37.9638 210.285 37.3828 210.334 36.8228 210.432C36.2628 210.53 35.7378 210.663 35.2478 210.831V209.403C35.6958 209.235 36.2208 209.102 36.8228 209.004C37.4388 208.892 38.0968 208.836 38.7968 208.836C40.2108 208.836 41.2678 209.123 41.9678 209.697C42.6818 210.271 43.0388 211.202 43.0388 212.49V219H41.5898L41.4638 217.866C41.0298 218.314 40.5048 218.65 39.8888 218.874C39.2728 219.098 38.5098 219.21 37.5998 219.21ZM38.0408 217.803C38.7688 217.803 39.4128 217.677 39.9728 217.425C40.5328 217.159 41.0088 216.802 41.4008 216.354V214.422H37.9778C37.1938 214.422 36.6338 214.569 36.2978 214.863C35.9618 215.157 35.7938 215.605 35.7938 216.207C35.7938 216.809 35.9968 217.229 36.4028 217.467C36.8088 217.691 37.3548 217.803 38.0408 217.803ZM45.4541 219V209.046H47.0081L47.1131 210.18C47.6451 209.76 48.2051 209.431 48.7931 209.193C49.3951 208.955 50.0391 208.836 50.7251 208.836C51.4671 208.836 52.0411 208.955 52.4471 209.193C52.8671 209.431 53.1751 209.767 53.3711 210.201C53.8471 209.809 54.3931 209.487 55.0091 209.235C55.6251 208.969 56.3601 208.836 57.2141 208.836C58.3481 208.836 59.1881 209.13 59.7341 209.718C60.2941 210.292 60.5741 211.181 60.5741 212.385V219H58.8731V212.553C58.8731 211.671 58.6841 211.062 58.3061 210.726C57.9421 210.39 57.3471 210.222 56.5211 210.222C55.9751 210.222 55.4501 210.313 54.9461 210.495C54.4561 210.677 54.0361 210.957 53.6861 211.335C53.7701 211.685 53.8121 212.091 53.8121 212.553V219H52.1951V212.595C52.1951 211.755 52.0551 211.153 51.7751 210.789C51.4951 210.411 50.9421 210.222 50.1161 210.222C49.5561 210.222 49.0171 210.348 48.4991 210.6C47.9951 210.838 47.5471 211.139 47.1551 211.503V219H45.4541ZM67.2279 219.21C65.4919 219.21 64.2249 218.769 63.4269 217.887C62.6429 216.991 62.2509 215.703 62.2509 214.023C62.2509 212.357 62.6499 211.076 63.4479 210.18C64.2459 209.284 65.5059 208.836 67.2279 208.836C68.9499 208.836 70.2099 209.284 71.0079 210.18C71.8059 211.076 72.2049 212.357 72.2049 214.023C72.2049 215.703 71.8129 216.991 71.0289 217.887C70.2449 218.769 68.9779 219.21 67.2279 219.21ZM67.2279 217.74C68.4179 217.74 69.2579 217.446 69.7479 216.858C70.2379 216.256 70.4829 215.311 70.4829 214.023C70.4829 212.735 70.2309 211.797 69.7269 211.209C69.2369 210.607 68.4039 210.306 67.2279 210.306C66.0519 210.306 65.2119 210.607 64.7079 211.209C64.2179 211.797 63.9729 212.735 63.9729 214.023C63.9729 215.311 64.2179 216.256 64.7079 216.858C65.1979 217.446 66.0379 217.74 67.2279 217.74ZM74.3095 219V209.046H75.8635L75.9685 210.18C76.4445 209.788 76.9975 209.466 77.6275 209.214C78.2715 208.962 79.0065 208.836 79.8325 208.836C81.0925 208.836 82.0095 209.13 82.5835 209.718C83.1575 210.306 83.4445 211.23 83.4445 212.49V219H81.7225V212.553C81.7225 211.685 81.5475 211.083 81.1975 210.747C80.8475 210.397 80.1755 210.222 79.1815 210.222C78.5655 210.222 77.9845 210.334 77.4385 210.558C76.8925 210.782 76.4235 211.09 76.0315 211.482V219H74.3095ZM89.6119 219.21C88.2119 219.21 87.1129 218.825 86.3149 218.055C85.5169 217.271 85.1179 215.976 85.1179 214.17C85.1179 212.378 85.5309 211.041 86.3569 210.159C87.1969 209.277 88.3169 208.836 89.7169 208.836C90.9629 208.836 92.0409 209.151 92.9509 209.781V204.846H94.6729V219H93.2029L93.0769 217.95C92.6149 218.384 92.1039 218.706 91.5439 218.916C90.9979 219.112 90.3539 219.21 89.6119 219.21ZM90.0529 217.824C90.6269 217.824 91.1589 217.726 91.6489 217.53C92.1389 217.334 92.5729 217.033 92.9509 216.627V211.209C92.6009 210.901 92.1879 210.663 91.7119 210.495C91.2359 210.313 90.6969 210.222 90.0949 210.222C88.9889 210.222 88.1699 210.544 87.6379 211.188C87.1059 211.818 86.8399 212.812 86.8399 214.17C86.8399 215.472 87.0849 216.41 87.5749 216.984C88.0649 217.544 88.8909 217.824 90.0529 217.824ZM100.326 219.21C99.682 219.21 99.066 219.168 98.478 219.084C97.904 219 97.421 218.888 97.029 218.748V217.236C97.505 217.404 98.002 217.53 98.52 217.614C99.052 217.698 99.577 217.74 100.095 217.74C100.977 217.74 101.607 217.649 101.985 217.467C102.363 217.271 102.552 216.914 102.552 216.396C102.552 216.018 102.447 215.731 102.237 215.535C102.041 215.339 101.733 215.164 101.313 215.01C100.907 214.856 100.382 214.674 99.738 214.464C99.164 214.268 98.653 214.065 98.205 213.855C97.757 213.645 97.407 213.365 97.155 213.015C96.903 212.651 96.777 212.168 96.777 211.566C96.777 210.684 97.085 210.012 97.701 209.55C98.317 209.074 99.311 208.836 100.683 208.836C101.215 208.836 101.726 208.878 102.216 208.962C102.706 209.032 103.133 209.123 103.497 209.235V210.747C102.615 210.453 101.768 210.306 100.956 210.306C100.088 210.306 99.458 210.397 99.066 210.579C98.688 210.747 98.499 211.069 98.499 211.545C98.499 211.867 98.583 212.126 98.751 212.322C98.933 212.504 99.206 212.665 99.57 212.805C99.948 212.931 100.431 213.092 101.019 213.288C101.789 213.526 102.412 213.771 102.888 214.023C103.364 214.275 103.714 214.583 103.938 214.947C104.162 215.311 104.274 215.787 104.274 216.375C104.274 217.355 103.931 218.076 103.245 218.538C102.559 218.986 101.586 219.21 100.326 219.21Z" fill="#F2F2F2"/>
<rect x="16" y="151" width="114" height="18" rx="9" fill="white"/>
<path d="M25.1213 165V155.984H26.6893L29.5453 161.822L32.3873 155.984H33.9553V165H32.4433V158.462L30.0073 163.446H29.0833L26.6333 158.462V165H25.1213ZM38.895 165.14C37.7003 165.14 36.823 164.841 36.263 164.244C35.7123 163.647 35.437 162.793 35.437 161.682C35.437 160.571 35.717 159.717 36.277 159.12C36.837 158.523 37.7096 158.224 38.895 158.224C40.0896 158.224 40.967 158.523 41.527 159.12C42.087 159.717 42.367 160.571 42.367 161.682C42.367 162.793 42.087 163.647 41.527 164.244C40.9763 164.841 40.099 165.14 38.895 165.14ZM38.895 163.852C39.595 163.852 40.0896 163.684 40.379 163.348C40.6776 163.003 40.827 162.447 40.827 161.682C40.827 160.917 40.6776 160.366 40.379 160.03C40.0896 159.694 39.595 159.526 38.895 159.526C38.2043 159.526 37.7096 159.694 37.411 160.03C37.1216 160.366 36.977 160.917 36.977 161.682C36.977 162.447 37.1216 163.003 37.411 163.348C37.7096 163.684 38.2043 163.852 38.895 163.852ZM47.4917 165.14C47.0064 165.14 46.5864 165.075 46.2317 164.944C45.8771 164.813 45.5504 164.613 45.2517 164.342L45.1677 165H43.8517V155.564H45.3777V158.798C45.9564 158.415 46.6517 158.224 47.4637 158.224C48.4064 158.224 49.1484 158.495 49.6897 159.036C50.2404 159.568 50.5157 160.431 50.5157 161.626C50.5157 162.83 50.2451 163.717 49.7037 164.286C49.1624 164.855 48.4251 165.14 47.4917 165.14ZM47.0857 163.992C47.7764 163.992 48.2617 163.796 48.5417 163.404C48.8311 163.012 48.9757 162.419 48.9757 161.626C48.9757 160.805 48.8217 160.226 48.5137 159.89C48.2057 159.554 47.7204 159.386 47.0577 159.386C46.3671 159.386 45.8071 159.577 45.3777 159.96V163.292C45.8164 163.759 46.3857 163.992 47.0857 163.992ZM52.2867 156.978V155.718H53.9527V156.978H52.2867ZM52.4127 165V159.526H51.4047L51.5447 158.364H53.9387V165H52.4127ZM57.3709 165.14C56.8296 165.14 56.4189 165.009 56.1389 164.748C55.8589 164.477 55.7189 164.034 55.7189 163.418V155.564H57.2449V163.278C57.2449 163.539 57.2916 163.717 57.3849 163.81C57.4782 163.903 57.6182 163.95 57.8049 163.95C58.0289 163.95 58.2436 163.922 58.4489 163.866V164.972C58.2716 165.037 58.0989 165.079 57.9309 165.098C57.7722 165.126 57.5856 165.14 57.3709 165.14ZM63.0027 165.14C61.8454 165.14 60.9494 164.855 60.3147 164.286C59.6801 163.717 59.3627 162.844 59.3627 161.668C59.3627 160.604 59.6334 159.764 60.1747 159.148C60.7161 158.532 61.5374 158.224 62.6387 158.224C63.6467 158.224 64.4027 158.49 64.9067 159.022C65.4201 159.545 65.6767 160.221 65.6767 161.052V162.284H60.8187C60.8934 162.928 61.1267 163.371 61.5187 163.614C61.9107 163.857 62.5081 163.978 63.3107 163.978C63.6467 163.978 63.9921 163.945 64.3467 163.88C64.7014 163.815 65.0094 163.731 65.2707 163.628V164.748C64.9721 164.879 64.6267 164.977 64.2347 165.042C63.8521 165.107 63.4414 165.14 63.0027 165.14ZM60.8187 161.29H64.3327V160.828C64.3327 160.371 64.2067 160.016 63.9547 159.764C63.7027 159.503 63.2781 159.372 62.6807 159.372C61.9714 159.372 61.4814 159.526 61.2107 159.834C60.9494 160.142 60.8187 160.627 60.8187 161.29ZM70.3888 165V155.984H71.9148V163.824H76.5348V165H70.3888ZM80.7488 165.14C79.5915 165.14 78.6955 164.855 78.0608 164.286C77.4262 163.717 77.1088 162.844 77.1088 161.668C77.1088 160.604 77.3795 159.764 77.9208 159.148C78.4622 158.532 79.2835 158.224 80.3848 158.224C81.3928 158.224 82.1488 158.49 82.6528 159.022C83.1662 159.545 83.4228 160.221 83.4228 161.052V162.284H78.5648C78.6395 162.928 78.8728 163.371 79.2648 163.614C79.6568 163.857 80.2542 163.978 81.0568 163.978C81.3928 163.978 81.7382 163.945 82.0928 163.88C82.4475 163.815 82.7555 163.731 83.0168 163.628V164.748C82.7182 164.879 82.3728 164.977 81.9808 165.042C81.5982 165.107 81.1875 165.14 80.7488 165.14ZM78.5648 161.29H82.0788V160.828C82.0788 160.371 81.9528 160.016 81.7008 159.764C81.4488 159.503 81.0242 159.372 80.4268 159.372C79.7175 159.372 79.2275 159.526 78.9568 159.834C78.6955 160.142 78.5648 160.627 78.5648 161.29ZM87.5964 167.464C87.1017 167.464 86.607 167.431 86.1124 167.366C85.6177 167.31 85.1977 167.221 84.8524 167.1V165.924C85.2257 166.045 85.655 166.139 86.1404 166.204C86.6257 166.269 87.0877 166.302 87.5264 166.302C88.1984 166.302 88.6884 166.265 88.9964 166.19C89.3044 166.115 89.4584 165.947 89.4584 165.686C89.4584 165.49 89.3837 165.35 89.2344 165.266C89.085 165.191 88.8004 165.154 88.3804 165.154H86.5884C85.3844 165.154 84.7824 164.729 84.7824 163.88C84.7824 163.609 84.8617 163.357 85.0204 163.124C85.179 162.891 85.431 162.713 85.7764 162.592C85.3937 162.405 85.109 162.149 84.9224 161.822C84.745 161.495 84.6564 161.103 84.6564 160.646C84.6564 159.797 84.9084 159.181 85.4124 158.798C85.9257 158.415 86.691 158.224 87.7084 158.224C87.923 158.224 88.147 158.243 88.3804 158.28C88.6137 158.308 88.7957 158.336 88.9264 158.364H91.3624L91.3204 159.358H90.2004C90.3777 159.507 90.5084 159.694 90.5924 159.918C90.6764 160.142 90.7184 160.385 90.7184 160.646C90.7184 161.355 90.5037 161.915 90.0744 162.326C89.645 162.727 88.9964 162.928 88.1284 162.928C87.979 162.928 87.839 162.923 87.7084 162.914C87.587 162.895 87.4517 162.877 87.3024 162.858C87.0224 162.886 86.7704 162.961 86.5464 163.082C86.3224 163.203 86.2104 163.367 86.2104 163.572C86.2104 163.712 86.2664 163.815 86.3784 163.88C86.4904 163.936 86.677 163.964 86.9384 163.964H88.8004C89.463 163.964 89.9717 164.109 90.3264 164.398C90.6904 164.678 90.8724 165.089 90.8724 165.63C90.8724 166.283 90.5877 166.75 90.0184 167.03C89.4584 167.319 88.651 167.464 87.5964 167.464ZM87.7084 161.962C88.315 161.962 88.735 161.859 88.9684 161.654C89.211 161.449 89.3324 161.099 89.3324 160.604C89.3324 160.109 89.211 159.75 88.9684 159.526C88.735 159.302 88.315 159.19 87.7084 159.19C87.139 159.19 86.7237 159.297 86.4624 159.512C86.201 159.727 86.0704 160.091 86.0704 160.604C86.0704 161.08 86.1917 161.425 86.4344 161.64C86.6864 161.855 87.111 161.962 87.7084 161.962ZM95.8836 165.14C94.7263 165.14 93.8303 164.855 93.1956 164.286C92.5609 163.717 92.2436 162.844 92.2436 161.668C92.2436 160.604 92.5143 159.764 93.0556 159.148C93.5969 158.532 94.4183 158.224 95.5196 158.224C96.5276 158.224 97.2836 158.49 97.7876 159.022C98.3009 159.545 98.5576 160.221 98.5576 161.052V162.284H93.6996C93.7743 162.928 94.0076 163.371 94.3996 163.614C94.7916 163.857 95.3889 163.978 96.1916 163.978C96.5276 163.978 96.8729 163.945 97.2276 163.88C97.5823 163.815 97.8903 163.731 98.1516 163.628V164.748C97.8529 164.879 97.5076 164.977 97.1156 165.042C96.7329 165.107 96.3223 165.14 95.8836 165.14ZM93.6996 161.29H97.2136V160.828C97.2136 160.371 97.0876 160.016 96.8356 159.764C96.5836 159.503 96.1589 159.372 95.5616 159.372C94.8523 159.372 94.3623 159.526 94.0916 159.834C93.8303 160.142 93.6996 160.627 93.6996 161.29ZM100.043 165V158.364H101.443L101.513 159.064C101.812 158.831 102.166 158.635 102.577 158.476C102.997 158.308 103.459 158.224 103.963 158.224C104.822 158.224 105.447 158.425 105.839 158.826C106.231 159.227 106.427 159.853 106.427 160.702V165H104.915V160.772C104.915 160.259 104.808 159.899 104.593 159.694C104.388 159.489 103.996 159.386 103.417 159.386C103.072 159.386 102.731 159.456 102.395 159.596C102.068 159.736 101.793 159.918 101.569 160.142V165H100.043ZM110.744 165.14C110.147 165.14 109.619 165.037 109.162 164.832C108.705 164.627 108.35 164.286 108.098 163.81C107.846 163.334 107.72 162.695 107.72 161.892C107.72 161.099 107.855 160.431 108.126 159.89C108.397 159.339 108.77 158.924 109.246 158.644C109.731 158.364 110.277 158.224 110.884 158.224C111.285 158.224 111.64 158.271 111.948 158.364C112.265 158.457 112.569 158.602 112.858 158.798V155.564H114.384V165H113.082L112.984 164.342C112.685 164.613 112.359 164.813 112.004 164.944C111.649 165.075 111.229 165.14 110.744 165.14ZM111.15 163.992C111.831 163.992 112.401 163.759 112.858 163.292V159.974C112.419 159.582 111.869 159.386 111.206 159.386C110.562 159.386 110.077 159.601 109.75 160.03C109.423 160.459 109.26 161.085 109.26 161.906C109.26 162.699 109.409 163.245 109.708 163.544C110.016 163.843 110.497 163.992 111.15 163.992ZM118.361 165.14C117.903 165.14 117.465 165.107 117.045 165.042C116.634 164.977 116.293 164.897 116.023 164.804V163.516C116.34 163.637 116.69 163.731 117.073 163.796C117.455 163.861 117.819 163.894 118.165 163.894C118.687 163.894 119.061 163.847 119.285 163.754C119.509 163.661 119.621 163.479 119.621 163.208C119.621 163.012 119.551 162.858 119.411 162.746C119.28 162.634 119.079 162.531 118.809 162.438C118.547 162.345 118.211 162.233 117.801 162.102C117.409 161.971 117.068 161.831 116.779 161.682C116.489 161.523 116.265 161.323 116.107 161.08C115.948 160.837 115.869 160.52 115.869 160.128C115.869 159.521 116.088 159.055 116.527 158.728C116.965 158.392 117.67 158.224 118.641 158.224C119.023 158.224 119.387 158.252 119.733 158.308C120.078 158.364 120.372 158.434 120.615 158.518V159.792C120.353 159.689 120.064 159.61 119.747 159.554C119.439 159.498 119.149 159.47 118.879 159.47C118.393 159.47 118.025 159.512 117.773 159.596C117.53 159.68 117.409 159.848 117.409 160.1C117.409 160.361 117.535 160.548 117.787 160.66C118.048 160.763 118.463 160.907 119.033 161.094C119.555 161.253 119.971 161.421 120.279 161.598C120.587 161.775 120.806 161.99 120.937 162.242C121.077 162.485 121.147 162.802 121.147 163.194C121.147 163.847 120.909 164.337 120.433 164.664C119.957 164.981 119.266 165.14 118.361 165.14Z" fill="black"/>
</g>
<defs>
<clipPath id="clip0_4857_71945">
<rect width="200" height="248" rx="12" fill="white"/>
</clipPath>
</defs>
</svg>
